{"glyphs":{"0":{"ha":814,"x_min":40,"x_max":774,"o":"m 774 478 q 738 239 774 347 q 616 58 701 131 q 407 -15 531 -15 q 198 58 283 -15 q 76 239 113 131 q 40 478 40 347 q 77 718 40 610 q 199 899 114 826 q 407 972 285 972 q 572 931 500 972 q 688 818 644 889 q 752 661 731 747 q 774 478 774 575 m 638 481 q 578 755 638 651 q 407 858 519 858 q 235 755 294 858 q 176 481 176 651 q 235 207 176 311 q 407 103 294 103 q 578 207 519 103 q 638 481 638 311 z "},"1":{"ha":606,"x_min":86,"x_max":404,"o":"m 404 958 l 404 0 l 274 0 l 274 860 l 86 860 l 86 958 l 404 958 z "},"2":{"ha":814,"x_min":78,"x_max":753,"o":"m 753 111 l 753 0 l 106 0 l 86 90 l 425 411 q 539 542 497 481 q 581 676 581 604 q 527 810 581 758 q 383 863 474 863 q 149 708 243 863 l 78 788 q 187 912 107 851 q 392 972 267 972 q 624 894 536 972 q 713 690 713 817 q 693 582 713 635 q 640 485 674 529 q 581 415 607 442 q 522 357 556 388 q 510 346 514 350 l 264 111 l 753 111 z "},"3":{"ha":814,"x_min":72,"x_max":729,"o":"m 729 268 q 631 63 729 140 q 383 -14 533 -14 q 72 149 197 -14 l 147 231 q 188 185 165 208 q 267 128 210 161 q 381 96 325 96 q 536 142 476 96 q 596 274 596 189 q 540 402 596 357 q 397 447 483 447 l 326 447 l 326 554 l 397 554 q 522 595 475 554 q 569 710 569 636 q 517 824 569 783 q 389 865 465 865 q 160 756 272 865 l 97 836 q 224 935 154 899 q 400 972 293 972 q 612 904 524 972 q 700 724 700 836 q 653 578 700 629 q 544 507 606 526 l 544 503 q 671 430 613 490 q 729 268 729 369 z "},"4":{"ha":814,"x_min":33,"x_max":786,"o":"m 786 321 l 786 210 l 647 210 l 647 0 l 517 0 l 517 210 l 33 210 l 33 308 l 507 964 l 647 964 l 647 321 l 786 321 m 165 319 l 518 319 l 518 806 l 165 319 z "},"5":{"ha":814,"x_min":63,"x_max":732,"o":"m 732 307 q 627 70 732 157 q 378 -17 522 -17 q 177 34 257 -17 q 63 144 97 85 l 138 222 q 234 131 169 167 q 376 94 299 94 q 533 149 467 94 q 599 307 599 204 q 533 465 599 410 q 376 519 467 519 q 207 468 265 519 l 139 508 l 222 958 l 704 958 l 704 850 l 319 850 l 269 596 q 406 621 326 621 q 633 538 533 621 q 732 307 732 454 z "},"6":{"ha":814,"x_min":72,"x_max":756,"o":"m 756 314 q 666 78 756 172 q 429 -17 576 -17 q 139 149 238 -17 q 72 461 72 258 q 185 846 72 707 q 460 972 286 972 q 590 950 526 972 q 673 915 654 928 q 729 875 692 901 l 672 785 q 461 867 574 867 q 283 778 351 867 q 201 472 201 671 q 461 608 276 608 q 668 527 581 608 q 756 314 756 446 m 573 151 q 599 182 573 151 q 625 300 625 213 q 573 449 625 388 q 426 510 521 510 q 278 449 332 510 q 225 300 225 388 q 278 151 225 213 q 426 90 332 90 q 573 151 521 90 z "},"7":{"ha":814,"x_min":83,"x_max":772,"o":"m 736 958 l 772 881 l 311 0 l 169 0 l 622 850 l 83 850 l 83 958 l 736 958 z "},"8":{"ha":814,"x_min":78,"x_max":738,"o":"m 738 265 q 645 59 738 133 q 407 -15 553 -15 q 169 59 261 -15 q 78 265 78 133 q 126 417 78 354 q 257 504 175 479 l 257 508 q 107 724 107 565 q 194 905 107 838 q 407 972 281 972 q 620 905 533 972 q 707 724 707 838 q 558 507 707 567 l 558 504 q 689 415 640 478 q 738 265 738 353 m 576 711 q 528 825 576 783 q 407 867 481 867 q 285 825 333 867 q 238 711 238 783 q 285 597 238 638 q 407 556 332 556 q 529 597 482 556 q 576 711 576 638 m 547 142 q 576 167 547 142 q 604 275 604 192 q 549 408 604 358 q 407 457 493 457 q 265 408 321 457 q 210 275 210 358 q 267 142 210 192 q 407 93 324 93 q 547 142 490 93 z "},"9":{"ha":814,"x_min":58,"x_max":742,"o":"m 742 494 q 629 110 742 251 q 358 -17 528 -17 q 81 82 199 -17 l 138 171 q 229 115 171 139 q 356 92 288 92 q 532 179 467 92 q 613 489 613 286 q 519 389 583 431 q 353 347 456 347 q 147 428 235 347 q 58 642 58 510 q 148 878 58 783 q 385 972 238 972 q 675 807 574 972 q 742 494 742 700 m 535 510 q 562 540 535 510 q 589 658 589 571 q 535 807 589 746 q 388 868 482 868 q 241 807 293 868 q 189 658 189 746 q 241 510 189 571 q 388 449 293 449 q 535 510 482 449 z "}," ":{"ha":276,"x_min":0,"x_max":0,"o":""},"!":{"ha":418,"x_min":117,"x_max":301,"o":"m 140 958 l 279 958 l 267 256 l 151 256 l 140 958 m 301 72 q 276 10 301 33 q 210 -14 250 -14 q 142 10 168 -14 q 117 72 117 33 q 142 136 117 113 q 210 160 168 160 q 276 136 250 160 q 301 72 301 113 z "},"\"":{"ha":619,"x_min":133,"x_max":486,"o":"m 358 958 l 486 958 l 471 661 l 372 661 l 358 958 m 133 958 l 261 958 l 247 661 l 147 661 l 133 958 z "},"#":{"ha":829,"x_min":51,"x_max":778,"o":"m 778 699 l 778 613 l 610 613 l 578 403 l 733 403 l 733 315 l 564 315 l 519 26 l 431 26 l 475 315 l 290 315 l 244 26 l 156 26 l 201 315 l 51 315 l 51 403 l 215 403 l 247 613 l 96 613 l 96 699 l 261 699 l 307 989 l 394 989 l 350 699 l 535 699 l 581 989 l 669 989 l 624 699 l 778 699 m 489 403 l 521 613 l 336 613 l 303 403 l 489 403 z "},"$":{"ha":814,"x_min":93,"x_max":721,"o":"m 721 258 q 622 60 721 136 q 456 -8 550 1 l 454 -110 l 376 -110 l 376 -10 q 212 38 288 -8 q 93 163 136 83 l 174 239 q 261 138 201 176 q 383 97 321 99 l 385 440 l 333 464 q 225 525 260 497 q 133 715 133 597 q 215 897 133 825 q 392 967 282 956 l 393 1061 l 471 1061 l 471 965 q 696 836 621 953 l 628 757 q 464 864 568 853 l 463 543 l 546 504 q 721 258 721 426 m 389 571 l 390 865 q 291 821 328 858 q 254 724 254 783 q 273 657 254 686 q 313 613 292 628 q 367 582 333 599 l 389 571 m 599 243 q 572 336 599 301 q 493 396 544 371 l 458 413 l 457 96 q 555 141 511 99 q 599 243 599 183 z "},"%":{"ha":1082,"x_min":43,"x_max":1039,"o":"m 975 381 q 1007 349 975 381 q 1039 214 1039 317 q 975 47 1039 111 q 813 -17 911 -17 q 650 47 714 -17 q 586 214 586 111 q 650 381 586 317 q 813 444 714 444 q 975 381 911 444 m 803 981 l 872 939 l 279 -32 l 210 10 l 803 981 m 496 735 q 432 567 496 632 q 269 503 368 503 q 107 567 171 503 q 43 735 43 632 q 107 901 43 836 q 269 965 171 965 q 432 901 368 965 q 496 735 496 836 m 906 111 q 924 131 906 111 q 942 215 942 151 q 906 319 942 279 q 813 360 871 360 q 719 319 754 360 q 683 215 683 279 q 719 111 683 151 q 813 71 754 71 q 906 111 871 71 m 363 631 q 381 651 363 631 q 399 735 399 671 q 363 839 399 799 q 269 879 328 879 q 176 839 211 879 q 140 735 140 799 q 176 631 140 671 q 269 592 211 592 q 363 631 328 592 z "},"&":{"ha":960,"x_min":51,"x_max":950,"o":"m 950 8 l 950 0 l 790 0 l 672 138 q 524 22 597 61 q 349 -17 450 -17 q 135 55 219 -17 q 51 251 51 126 q 117 422 51 354 q 303 550 182 489 q 285 571 300 553 q 265 594 269 589 q 248 617 261 600 q 231 644 235 635 q 217 670 226 653 q 205 701 208 688 q 198 733 201 715 q 194 769 194 751 q 263 918 194 863 q 439 974 332 974 q 611 918 544 974 q 678 772 678 863 q 488 528 678 635 l 674 308 q 735 399 696 335 q 793 503 775 463 l 897 456 q 830 342 878 417 q 749 228 782 267 l 950 8 m 557 769 q 525 849 557 821 q 440 876 493 876 q 356 846 389 876 q 322 764 322 815 q 375 646 322 707 l 414 601 q 458 628 442 617 q 501 661 474 639 q 543 711 529 683 q 557 769 557 739 m 597 218 l 376 474 l 336 451 q 265 406 293 426 q 212 346 238 386 q 186 258 186 306 q 238 137 186 185 q 365 89 289 89 q 497 128 435 89 q 597 218 560 168 z "},"'":{"ha":422,"x_min":147,"x_max":275,"o":"m 147 958 l 275 958 l 261 661 l 161 661 l 147 958 z "},"(":{"ha":394,"x_min":68,"x_max":357,"o":"m 357 -160 l 272 -206 q 68 432 68 101 q 272 1069 68 763 l 357 1024 q 242 765 294 931 q 189 432 189 599 q 242 99 189 265 q 357 -160 294 -67 z "},")":{"ha":394,"x_min":36,"x_max":326,"o":"m 121 1069 q 326 432 326 765 q 121 -206 326 99 l 36 -160 q 151 99 99 -67 q 204 432 204 265 q 151 765 204 599 q 36 1024 99 931 l 121 1069 z "},"*":{"ha":729,"x_min":106,"x_max":624,"o":"m 593 864 l 624 781 l 417 719 l 553 540 l 481 490 l 364 679 l 249 490 l 176 540 l 313 719 l 106 781 l 136 864 l 331 786 l 318 986 l 411 986 l 399 786 l 593 864 z "},"+":{"ha":926,"x_min":100,"x_max":826,"o":"m 826 531 l 826 428 l 515 428 l 515 117 l 413 117 l 413 428 l 100 428 l 100 531 l 413 531 l 413 842 l 515 842 l 515 531 l 826 531 z "},",":{"ha":418,"x_min":85,"x_max":318,"o":"m 182 147 l 318 147 l 190 -194 l 85 -194 l 182 147 z "},"-":{"ha":406,"x_min":35,"x_max":371,"o":"m 371 436 l 371 325 l 35 325 l 35 436 l 371 436 z "},".":{"ha":418,"x_min":117,"x_max":301,"o":"m 301 72 q 276 10 301 33 q 210 -14 250 -14 q 142 10 168 -14 q 117 72 117 33 q 142 136 117 113 q 210 160 168 160 q 276 136 250 160 q 301 72 301 113 z "},"/":{"ha":722,"x_min":29,"x_max":696,"o":"m 607 1096 l 696 1057 l 118 -129 l 29 -89 l 607 1096 z "},":":{"ha":418,"x_min":117,"x_max":301,"o":"m 276 647 q 289 634 276 647 q 301 583 301 622 q 276 520 301 544 q 210 496 250 496 q 142 520 168 496 q 117 583 117 544 q 142 647 117 622 q 210 671 168 671 q 276 647 250 671 m 301 72 q 276 10 301 33 q 210 -14 250 -14 q 142 10 168 -14 q 117 72 117 33 q 142 136 117 113 q 210 160 168 160 q 276 136 250 160 q 301 72 301 113 z "},";":{"ha":418,"x_min":85,"x_max":318,"o":"m 276 647 q 289 634 276 647 q 301 583 301 622 q 276 520 301 544 q 210 496 250 496 q 142 520 168 496 q 117 583 117 544 q 142 647 117 622 q 210 671 168 671 q 276 647 250 671 m 182 147 l 318 147 l 190 -194 l 85 -194 l 182 147 z "},"<":{"ha":926,"x_min":100,"x_max":826,"o":"m 826 224 l 826 111 l 100 422 l 100 536 l 826 847 l 826 735 l 229 479 l 826 224 z "},"=":{"ha":926,"x_min":100,"x_max":826,"o":"m 826 656 l 826 554 l 100 554 l 100 656 l 826 656 m 826 404 l 826 301 l 100 301 l 100 404 l 826 404 z "},">":{"ha":926,"x_min":100,"x_max":826,"o":"m 826 536 l 826 422 l 100 111 l 100 224 l 697 479 l 100 735 l 100 847 l 826 536 z "},"?":{"ha":683,"x_min":82,"x_max":606,"o":"m 606 744 q 587 647 606 692 q 549 581 568 603 q 492 521 531 558 q 458 489 479 508 q 425 459 436 469 q 402 433 414 449 q 385 404 390 418 q 374 353 375 383 l 371 256 l 258 256 l 256 354 q 271 447 254 406 q 303 507 288 489 q 353 556 319 525 l 433 629 q 478 731 478 671 q 435 826 478 792 q 322 861 393 861 q 212 831 258 861 q 140 758 165 801 l 82 842 q 172 931 108 889 q 342 972 235 972 q 533 905 460 972 q 606 744 606 838 m 407 72 q 382 10 407 33 q 315 -14 357 -14 q 249 10 274 -14 q 224 72 224 33 q 249 136 224 113 q 315 160 274 160 q 382 136 357 160 q 407 72 407 113 z "},"@":{"ha":1111,"x_min":57,"x_max":1054,"o":"m 1054 392 q 946 103 1054 215 q 738 0 851 0 q 621 88 638 0 q 443 0 533 0 q 390 10 417 0 q 337 42 364 19 q 292 108 310 64 q 275 214 275 153 q 313 387 275 301 q 424 531 351 472 q 585 589 497 589 q 678 572 638 589 q 731 536 718 554 l 744 519 l 758 564 l 849 564 l 731 193 q 719 112 713 144 q 765 79 725 79 q 906 169 839 79 q 974 389 974 260 q 866 636 974 538 q 582 735 758 735 q 270 608 399 735 q 142 286 142 481 q 256 -26 142 92 q 550 -144 369 -144 q 611 -142 581 -144 q 667 -135 642 -139 q 718 -124 692 -131 q 764 -112 744 -118 q 804 -97 783 -106 q 838 -82 825 -87 q 868 -67 851 -76 q 892 -54 885 -58 q 911 -42 899 -50 l 922 -35 l 953 -92 q 938 -102 951 -93 q 913 -119 925 -111 q 878 -139 901 -126 q 833 -162 856 -151 q 778 -183 811 -172 q 710 -201 744 -193 q 633 -213 676 -208 q 543 -218 589 -218 q 196 -79 335 -218 q 57 286 57 60 q 131 558 57 436 q 324 744 204 679 q 579 808 443 808 q 931 681 796 808 q 1054 392 1054 564 m 660 254 l 721 444 l 718 449 q 710 458 715 453 q 699 472 706 464 q 681 486 692 479 q 658 499 671 493 q 626 509 644 506 q 586 513 607 513 q 435 424 497 513 q 368 222 368 332 q 399 114 368 146 q 475 82 431 82 q 578 123 524 82 q 660 254 632 164 z "},"A":{"ha":903,"x_min":1,"x_max":901,"o":"m 510 961 l 901 0 l 751 0 l 653 250 l 242 250 l 143 0 l 1 0 l 392 961 l 510 961 m 279 363 l 615 363 l 447 793 l 279 363 z "},"B":{"ha":815,"x_min":106,"x_max":761,"o":"m 761 272 q 658 63 761 144 q 417 0 579 0 l 106 0 l 106 958 l 364 958 q 592 913 521 958 q 694 718 694 846 q 653 586 694 644 q 549 508 611 528 l 549 506 q 704 425 647 485 q 761 272 761 365 m 560 703 q 496 825 560 790 q 364 851 449 851 l 240 851 l 240 547 l 353 547 q 496 576 457 547 q 560 703 560 624 m 622 278 q 553 410 622 363 q 385 444 501 444 l 240 444 l 240 110 l 385 110 q 553 143 504 110 q 622 278 622 190 z "},"C":{"ha":924,"x_min":51,"x_max":892,"o":"m 833 224 l 892 125 q 542 -17 765 -17 q 190 120 329 -17 q 51 478 51 257 q 192 835 51 699 q 542 972 332 972 q 882 846 753 972 l 825 738 q 715 817 792 781 q 547 854 638 854 q 290 751 390 854 q 190 481 190 647 q 291 210 190 314 q 547 107 392 107 q 833 224 726 107 z "},"D":{"ha":953,"x_min":106,"x_max":901,"o":"m 753 833 q 901 479 901 697 q 753 125 901 261 q 394 0 617 0 l 106 0 l 106 958 l 394 958 q 753 833 617 958 m 764 479 q 650 754 764 646 q 394 843 556 843 l 240 843 l 240 117 l 394 117 q 650 206 556 117 q 764 479 764 314 z "},"E":{"ha":738,"x_min":106,"x_max":678,"o":"m 678 114 l 678 0 l 106 0 l 106 958 l 667 958 l 667 846 l 240 846 l 240 560 l 643 560 l 643 447 l 240 447 l 240 114 l 678 114 z "},"F":{"ha":686,"x_min":106,"x_max":638,"o":"m 638 958 l 638 846 l 240 846 l 240 526 l 614 526 l 614 414 l 240 414 l 240 0 l 106 0 l 106 958 l 638 958 z "},"G":{"ha":1038,"x_min":51,"x_max":947,"o":"m 947 511 l 947 139 q 540 -17 792 -17 q 192 121 332 -17 q 51 479 51 258 q 191 835 51 699 q 539 972 331 972 q 919 813 771 972 q 926 806 924 808 l 835 721 q 539 857 718 857 q 289 755 388 857 q 190 479 190 653 q 292 204 190 307 q 547 101 393 101 q 651 110 603 101 q 728 133 699 119 q 778 158 757 146 q 808 181 800 171 l 817 189 l 817 401 l 558 401 l 558 511 l 947 511 z "},"H":{"ha":992,"x_min":106,"x_max":885,"o":"m 885 958 l 885 0 l 750 0 l 750 447 l 240 447 l 240 0 l 106 0 l 106 958 l 240 958 l 240 563 l 750 563 l 750 958 l 885 958 z "},"I":{"ha":346,"x_min":106,"x_max":240,"o":"m 240 958 l 240 0 l 106 0 l 106 958 l 240 958 z "},"J":{"ha":346,"x_min":-61,"x_max":240,"o":"m 240 958 l 240 3 q 197 -200 240 -133 q 43 -278 140 -278 q -7 -274 18 -278 q -45 -267 -32 -271 q -61 -261 -58 -262 l -58 -158 q 15 -169 -32 -169 q 88 -126 71 -169 q 106 -1 106 -82 l 106 958 l 240 958 z "},"K":{"ha":804,"x_min":106,"x_max":821,"o":"m 429 581 l 821 0 l 657 0 l 339 481 l 240 381 l 240 0 l 106 0 l 106 958 l 240 958 l 240 550 l 631 958 l 794 958 l 429 581 z "},"L":{"ha":592,"x_min":106,"x_max":578,"o":"m 578 115 l 578 0 l 106 0 l 106 958 l 240 958 l 240 115 l 578 115 z "},"M":{"ha":1186,"x_min":63,"x_max":1124,"o":"m 1036 958 l 1124 0 l 990 0 l 928 757 l 924 757 l 631 -8 l 554 -8 l 261 757 l 257 757 l 196 0 l 63 0 l 149 958 l 315 958 l 592 218 l 594 218 l 871 958 l 1036 958 z "},"N":{"ha":1028,"x_min":106,"x_max":921,"o":"m 921 958 l 921 0 l 789 0 l 236 764 q 239 510 239 635 l 239 0 l 106 0 l 106 958 l 247 958 l 790 206 q 789 450 789 324 l 789 958 l 921 958 z "},"O":{"ha":1092,"x_min":51,"x_max":1040,"o":"m 897 837 q 969 769 897 837 q 1040 478 1040 701 q 897 119 1040 254 q 546 -17 754 -17 q 194 119 338 -17 q 51 478 51 254 q 194 837 51 701 q 546 972 338 972 q 897 837 754 972 m 800 208 q 851 259 800 208 q 903 481 903 310 q 800 753 903 651 q 546 856 697 856 q 292 753 394 856 q 189 481 189 651 q 292 208 189 311 q 546 106 394 106 q 800 208 697 106 z "},"P":{"ha":738,"x_min":106,"x_max":700,"o":"m 700 685 q 607 479 700 557 q 375 411 528 411 l 240 411 l 240 0 l 106 0 l 106 958 l 375 958 q 607 890 528 958 q 700 685 700 810 m 503 557 q 561 685 561 600 q 503 811 561 769 q 364 849 450 849 l 240 849 l 240 521 l 364 521 q 503 557 450 521 z "},"Q":{"ha":1092,"x_min":51,"x_max":1040,"o":"m 1040 478 q 907 126 1040 264 l 1013 6 l 925 -72 l 815 54 q 546 -17 694 -17 q 194 119 338 -17 q 51 478 51 254 q 194 837 51 701 q 546 972 338 972 q 897 837 754 972 q 1040 478 1040 701 m 903 481 q 800 753 903 651 q 546 856 697 856 q 292 753 394 856 q 189 481 189 651 q 292 208 189 311 q 546 106 394 106 q 729 153 646 106 l 649 244 l 736 322 l 818 228 q 903 481 903 331 z "},"R":{"ha":750,"x_min":106,"x_max":756,"o":"m 482 426 l 756 0 l 593 0 l 343 413 l 240 413 l 240 0 l 106 0 l 106 958 l 376 958 q 607 892 522 958 q 700 689 700 817 q 635 508 700 574 q 482 426 571 443 m 561 686 q 500 814 561 771 q 339 849 453 849 l 240 849 l 240 524 l 339 524 q 500 557 453 524 q 561 686 561 603 z "},"S":{"ha":742,"x_min":47,"x_max":692,"o":"m 692 267 q 592 58 692 140 q 357 -17 500 -17 q 247 -1 299 -17 q 154 45 194 15 q 93 95 114 75 q 47 144 72 115 l 126 235 q 233 138 168 179 q 369 97 297 97 q 503 141 450 97 q 557 258 557 185 q 542 321 557 293 q 495 369 526 349 q 449 397 464 389 q 401 417 433 404 q 249 481 289 461 q 153 549 190 507 q 90 715 90 614 q 178 900 90 826 q 399 971 263 971 q 674 847 556 971 l 603 756 q 392 858 506 858 q 272 824 318 858 q 225 725 225 789 q 235 669 225 693 q 266 627 246 644 q 304 600 286 610 q 349 579 322 590 l 525 506 q 633 428 594 474 q 692 267 692 356 z "},"T":{"ha":696,"x_min":10,"x_max":685,"o":"m 685 958 l 685 846 l 415 846 l 415 0 l 281 0 l 281 846 l 10 846 l 10 958 l 685 958 z "},"U":{"ha":926,"x_min":99,"x_max":828,"o":"m 828 958 l 828 392 q 813 222 828 290 q 751 100 797 154 q 464 -17 650 -17 q 176 100 276 -17 q 115 222 131 154 q 99 392 99 290 l 99 958 l 235 958 l 235 404 q 237 323 235 353 q 249 254 239 293 q 279 189 258 215 q 464 104 342 104 q 649 189 583 104 q 679 254 669 215 q 691 324 689 293 q 693 404 693 354 l 693 958 l 828 958 z "},"V":{"ha":828,"x_min":1,"x_max":826,"o":"m 685 958 l 826 958 l 474 -1 l 354 -1 l 1 958 l 146 958 l 415 194 l 685 958 z "},"W":{"ha":1290,"x_min":7,"x_max":1283,"o":"m 1142 958 l 1283 958 l 1007 -1 l 875 -1 l 644 774 l 415 -1 l 283 -1 l 7 958 l 149 958 l 356 203 l 576 958 l 714 958 l 935 203 l 1142 958 z "},"X":{"ha":804,"x_min":-1,"x_max":807,"o":"m 489 494 l 807 0 l 644 0 l 401 407 l 160 0 l -1 0 l 315 494 l 21 958 l 179 958 l 401 585 l 625 958 l 783 958 l 489 494 z "},"Y":{"ha":799,"x_min":-1,"x_max":800,"o":"m 649 958 l 800 958 l 467 401 l 467 0 l 332 0 l 332 401 l -1 958 l 150 958 l 399 518 l 649 958 z "},"Z":{"ha":786,"x_min":42,"x_max":751,"o":"m 751 115 l 751 0 l 42 0 l 42 103 l 565 844 l 57 844 l 57 958 l 742 958 l 742 867 l 210 115 l 751 115 z "},"[":{"ha":394,"x_min":72,"x_max":335,"o":"m 335 -117 l 335 -194 l 72 -194 l 72 1057 l 335 1057 l 335 978 l 188 978 l 188 -117 l 335 -117 z "},"\\":{"ha":717,"x_min":31,"x_max":688,"o":"m 114 1104 l 688 -7 l 603 -47 l 31 1065 l 114 1104 z "},"]":{"ha":394,"x_min":69,"x_max":332,"o":"m 332 1057 l 332 -194 l 69 -194 l 69 -117 l 217 -117 l 217 978 l 69 978 l 69 1057 l 332 1057 z "},"^":{"ha":926,"x_min":153,"x_max":774,"o":"m 521 971 l 774 417 l 661 417 l 464 857 l 265 417 l 153 417 l 406 971 l 521 971 z "},"_":{"ha":694,"x_min":0,"x_max":694,"o":"m 694 51 l 694 -53 l 0 -53 l 0 51 l 694 51 z "},"`":{"ha":465,"x_min":106,"x_max":360,"o":"m 236 958 l 360 757 l 258 757 l 106 958 l 236 958 z "},"a":{"ha":683,"x_min":36,"x_max":604,"o":"m 604 383 l 604 0 l 475 0 l 474 83 q 264 -15 381 -15 q 102 40 168 -15 q 36 189 36 96 q 106 334 36 283 q 294 390 175 385 l 471 397 l 471 424 q 426 535 471 496 q 307 574 382 574 q 108 517 200 574 l 68 606 q 315 672 185 672 q 533 597 458 672 q 604 383 604 524 m 472 175 l 472 317 l 318 307 q 168 193 168 299 q 204 112 168 144 q 304 79 240 79 q 472 175 408 79 z "},"b":{"ha":829,"x_min":99,"x_max":782,"o":"m 782 331 q 694 83 782 181 q 461 -15 606 -15 q 229 104 310 -15 l 226 104 l 226 0 l 99 0 l 99 958 l 231 958 l 231 557 l 233 557 q 464 672 315 672 q 694 576 607 672 q 782 331 782 479 m 590 165 q 618 198 590 165 q 646 332 646 231 q 590 499 646 433 q 436 564 533 564 q 282 499 339 564 q 225 332 225 433 q 282 165 225 231 q 436 99 339 99 q 590 165 533 99 z "},"c":{"ha":660,"x_min":47,"x_max":644,"o":"m 597 182 l 644 85 q 521 6 588 28 q 381 -15 458 -15 q 145 80 243 -15 q 47 329 47 175 q 147 578 47 483 q 385 672 247 672 q 528 648 464 672 q 610 608 592 624 q 640 578 629 592 l 593 481 q 396 561 513 561 q 244 498 306 561 q 182 333 182 435 q 242 164 182 229 q 397 99 301 99 q 504 119 454 99 q 575 161 554 140 l 597 182 z "},"d":{"ha":829,"x_min":47,"x_max":731,"o":"m 731 958 l 731 0 l 603 0 l 603 106 l 600 106 q 368 -15 519 -15 q 135 83 224 -15 q 47 331 47 181 q 135 576 47 479 q 365 672 222 672 q 596 557 518 672 l 599 557 l 599 958 l 731 958 m 547 165 q 575 198 547 165 q 603 332 603 231 q 547 499 603 433 q 393 564 490 564 q 240 499 296 564 q 183 332 183 433 q 240 165 183 231 q 393 99 296 99 q 547 165 490 99 z "},"e":{"ha":735,"x_min":47,"x_max":694,"o":"m 694 357 l 690 299 l 182 299 q 245 145 188 201 q 394 89 303 89 q 444 92 419 89 q 490 102 469 96 q 527 115 510 108 q 560 131 544 122 q 584 146 575 140 q 602 158 593 151 q 613 165 611 165 l 668 89 l 663 83 q 651 73 657 78 q 633 59 644 68 q 608 42 622 50 q 577 26 594 35 q 538 10 560 17 q 493 -3 517 3 q 440 -12 469 -8 q 378 -15 410 -15 q 139 79 231 -15 q 47 331 47 174 q 144 578 47 483 q 382 672 240 672 q 607 584 519 672 q 694 357 694 496 m 183 388 l 568 388 q 517 515 567 454 q 378 576 468 576 q 238 517 288 576 q 183 388 188 458 z "},"f":{"ha":381,"x_min":22,"x_max":433,"o":"m 433 958 l 425 860 q 350 872 388 872 q 269 835 290 872 q 249 732 249 799 l 249 658 l 406 658 l 406 551 l 249 551 l 249 0 l 117 0 l 117 551 l 22 551 l 22 658 l 117 658 l 117 725 q 161 901 117 846 q 319 974 219 974 q 381 970 353 974 q 422 963 410 967 l 433 958 z "},"g":{"ha":824,"x_min":47,"x_max":731,"o":"m 731 660 l 731 139 q 658 -146 731 -60 q 364 -272 556 -272 q 69 -174 207 -272 l 132 -81 q 233 -136 164 -108 q 368 -164 301 -164 q 549 -92 492 -164 q 599 93 599 -31 l 599 126 l 596 126 q 365 8 517 8 q 140 99 232 8 q 47 340 47 189 q 140 582 47 492 q 365 672 232 672 q 505 640 446 672 q 596 556 564 607 l 600 556 l 599 660 l 731 660 m 547 180 q 575 211 547 180 q 603 340 603 243 q 547 501 603 438 q 393 565 492 565 q 240 501 296 565 q 183 340 183 438 q 239 180 183 243 q 393 117 294 117 q 547 180 492 117 z "},"h":{"ha":761,"x_min":99,"x_max":672,"o":"m 672 393 l 672 0 l 539 0 l 539 374 q 534 444 539 414 q 516 503 529 474 q 474 547 503 532 q 403 563 446 563 q 274 497 317 563 q 231 326 231 432 l 231 0 l 99 0 l 99 958 l 231 958 l 231 556 l 233 556 q 314 640 261 607 q 436 672 367 672 q 621 599 569 672 q 672 393 672 525 z "},"i":{"ha":328,"x_min":76,"x_max":250,"o":"m 226 935 q 238 924 226 935 q 250 876 250 913 q 226 817 250 840 q 164 794 201 794 q 101 817 125 794 q 76 876 76 840 q 101 935 76 913 q 164 958 125 958 q 226 935 201 958 m 231 660 l 231 0 l 97 0 l 97 660 l 231 660 z "},"j":{"ha":328,"x_min":-61,"x_max":250,"o":"m 226 935 q 238 924 226 935 q 250 876 250 913 q 226 817 250 840 q 164 794 201 794 q 101 817 125 794 q 76 876 76 840 q 101 935 76 913 q 164 958 125 958 q 226 935 201 958 m 231 660 l 231 -1 q 189 -190 231 -132 q 22 -272 128 -272 q -22 -269 -1 -272 q -53 -264 -43 -267 l -61 -261 l -60 -156 q 3 -165 -32 -165 q 79 -123 61 -165 q 97 3 97 -81 l 97 660 l 231 660 z "},"k":{"ha":676,"x_min":99,"x_max":689,"o":"m 397 411 l 689 0 l 533 0 l 307 319 l 231 247 l 231 0 l 99 0 l 99 958 l 231 958 l 231 396 l 500 660 l 656 660 l 397 411 z "},"l":{"ha":329,"x_min":99,"x_max":231,"o":"m 231 958 l 231 0 l 99 0 l 99 958 l 231 958 z "},"m":{"ha":1133,"x_min":92,"x_max":1047,"o":"m 1047 400 l 1047 0 l 915 0 l 915 385 q 794 563 915 563 q 678 500 719 563 q 636 343 636 438 l 636 0 l 503 0 l 503 385 q 383 563 503 563 q 267 500 308 563 q 225 343 225 438 l 225 0 l 92 0 l 92 660 l 225 660 l 224 556 l 228 556 q 304 638 253 604 q 418 672 356 672 q 614 542 568 672 q 824 672 683 672 q 1047 400 1047 672 z "},"n":{"ha":751,"x_min":92,"x_max":665,"o":"m 665 390 l 665 0 l 532 0 l 532 368 q 504 513 532 464 q 394 563 476 563 q 266 499 307 563 q 225 332 225 435 l 225 0 l 92 0 l 92 660 l 225 660 l 224 556 l 228 556 q 308 640 256 607 q 429 672 360 672 q 613 597 560 672 q 665 390 665 522 z "},"o":{"ha":793,"x_min":47,"x_max":746,"o":"m 646 576 q 696 527 646 576 q 746 328 746 479 q 646 81 746 176 q 397 -15 546 -15 q 147 81 247 -15 q 47 328 47 176 q 147 576 47 479 q 397 672 247 672 q 646 576 546 672 m 553 165 q 582 199 553 165 q 611 332 611 232 q 553 498 611 432 q 397 564 494 564 q 241 498 300 564 q 182 332 182 432 q 241 165 182 232 q 397 99 300 99 q 553 165 494 99 z "},"p":{"ha":828,"x_min":97,"x_max":781,"o":"m 781 331 q 692 83 781 181 q 460 -15 604 -15 q 232 103 308 -15 l 231 104 l 231 -258 l 97 -258 l 97 660 l 225 660 l 225 556 l 228 556 q 463 672 315 672 q 693 576 606 672 q 781 331 781 479 m 588 165 q 616 198 588 165 q 644 332 644 231 q 588 499 644 433 q 435 564 532 564 q 281 499 338 564 q 225 332 225 433 q 281 165 225 231 q 435 99 338 99 q 588 165 532 99 z "},"q":{"ha":822,"x_min":47,"x_max":731,"o":"m 731 660 l 731 -258 l 599 -258 l 599 103 l 596 103 q 368 -15 518 -15 q 135 83 224 -15 q 47 331 47 181 q 135 576 47 479 q 365 672 222 672 q 600 556 514 672 l 604 556 l 603 660 l 731 660 m 547 165 q 575 198 547 165 q 603 332 603 231 q 547 499 603 433 q 393 564 490 564 q 240 499 296 564 q 183 332 183 433 q 240 165 183 231 q 393 99 296 99 q 547 165 490 99 z "},"r":{"ha":465,"x_min":92,"x_max":460,"o":"m 460 661 l 451 538 l 446 538 q 374 551 414 551 q 265 496 308 551 q 225 329 225 438 l 225 0 l 92 0 l 92 660 l 225 660 l 224 558 l 228 558 q 390 672 276 672 q 427 669 410 672 q 453 664 444 667 l 460 661 z "},"s":{"ha":575,"x_min":28,"x_max":536,"o":"m 536 193 q 468 43 536 100 q 285 -15 397 -15 q 28 103 118 -15 l 92 181 q 183 111 128 136 q 286 86 238 86 q 376 108 339 86 q 413 181 413 131 q 404 213 413 197 q 385 238 396 228 q 354 257 374 247 q 323 271 335 267 q 290 282 311 275 q 264 290 268 289 q 174 325 192 315 q 69 483 69 378 q 134 622 69 571 q 292 672 199 672 q 517 586 436 672 l 461 504 q 294 575 393 575 q 217 554 246 575 q 189 493 189 533 q 222 435 189 457 q 318 394 256 414 q 407 363 385 371 q 483 315 457 342 q 536 193 536 265 z "},"t":{"ha":432,"x_min":21,"x_max":413,"o":"m 404 114 l 413 7 q 292 -15 361 -15 q 151 53 197 -15 q 118 250 118 103 l 118 551 l 21 551 l 21 658 l 118 658 l 118 856 l 251 856 l 251 658 l 410 658 l 410 551 l 251 551 l 251 253 q 268 132 251 163 q 336 99 288 99 q 370 102 353 99 q 396 110 388 106 l 404 114 z "},"u":{"ha":744,"x_min":86,"x_max":653,"o":"m 653 661 l 653 0 l 524 0 l 522 94 q 440 15 494 44 q 318 -15 386 -15 q 135 61 194 -15 q 86 265 86 126 l 86 661 l 218 661 l 218 271 q 247 143 218 190 q 356 96 275 96 q 478 156 438 96 q 519 307 519 217 l 519 661 l 653 661 z "},"v":{"ha":669,"x_min":1,"x_max":668,"o":"m 531 660 l 668 660 l 393 0 l 276 0 l 1 660 l 140 660 l 336 163 l 531 660 z "},"w":{"ha":1057,"x_min":14,"x_max":1043,"o":"m 908 660 l 1043 660 l 825 0 l 703 0 l 529 493 l 354 0 l 232 0 l 14 660 l 149 660 l 301 161 l 475 661 l 582 661 l 756 161 l 908 660 z "},"x":{"ha":689,"x_min":-1,"x_max":690,"o":"m 422 347 l 690 0 l 540 0 l 344 268 l 149 0 l -1 0 l 267 347 l 29 660 l 176 660 l 344 422 l 513 660 l 661 660 l 422 347 z "},"y":{"ha":665,"x_min":1,"x_max":668,"o":"m 531 661 l 668 660 l 350 -115 q 275 -233 317 -199 q 176 -268 233 -268 q 112 -262 143 -268 q 67 -250 81 -256 l 51 -244 l 78 -136 q 147 -151 114 -151 q 169 -150 163 -151 q 189 -142 176 -149 q 213 -119 201 -136 q 233 -74 224 -103 l 265 14 l 1 661 l 140 660 l 336 147 l 531 661 z "},"z":{"ha":633,"x_min":29,"x_max":604,"o":"m 604 110 l 604 0 l 29 0 l 29 82 l 415 551 l 49 551 l 49 658 l 585 658 l 585 578 l 200 110 l 604 110 z "},"{":{"ha":394,"x_min":15,"x_max":342,"o":"m 342 -117 l 342 -194 l 281 -194 q 142 -146 179 -194 q 104 13 104 -97 l 104 265 q 15 381 104 381 l 15 481 q 104 597 104 481 l 104 849 q 142 1008 104 960 q 281 1057 179 1057 l 342 1057 l 342 978 l 311 978 q 238 958 258 978 q 218 886 218 938 l 218 610 q 194 486 218 522 q 118 433 171 450 l 118 428 q 194 376 171 411 q 218 253 218 340 l 218 -25 q 238 -97 218 -76 q 311 -117 258 -117 l 342 -117 z "},"|":{"ha":394,"x_min":149,"x_max":246,"o":"m 246 1111 l 246 -165 l 149 -165 l 149 1111 l 246 1111 z "},"}":{"ha":394,"x_min":51,"x_max":378,"o":"m 378 481 l 378 381 q 290 265 290 381 l 290 13 q 253 -146 290 -97 q 114 -194 215 -194 l 51 -194 l 51 -117 l 83 -117 q 156 -97 136 -117 q 175 -25 175 -78 l 175 253 q 199 376 175 340 q 276 428 222 411 l 276 433 q 199 486 222 450 q 175 610 175 522 l 175 886 q 156 958 175 939 q 83 978 136 978 l 51 978 l 51 1057 l 114 1057 q 253 1008 215 1057 q 290 849 290 960 l 290 597 q 378 481 290 481 z "},"~":{"ha":926,"x_min":107,"x_max":819,"o":"m 749 513 l 819 444 q 613 304 735 304 q 447 356 550 304 q 311 403 350 403 q 178 306 239 403 l 107 374 q 314 514 193 514 q 479 463 379 514 q 615 415 571 415 q 749 513 690 415 z "}," ":{"ha":276,"x_min":0,"x_max":0,"o":""},"¡":{"ha":418,"x_min":117,"x_max":301,"o":"m 276 651 q 289 639 276 651 q 301 588 301 626 q 276 524 301 549 q 210 500 250 500 q 142 524 168 500 q 117 588 117 549 q 142 651 117 626 q 210 675 168 675 q 276 651 250 675 m 267 406 l 279 -299 l 140 -299 l 151 406 l 267 406 z "},"¢":{"ha":814,"x_min":106,"x_max":708,"o":"m 669 263 l 708 168 q 621 113 685 142 q 494 82 557 83 l 494 -42 l 413 -42 l 413 83 q 192 190 278 97 q 106 424 106 283 q 192 656 106 563 q 413 765 278 750 l 413 889 l 494 889 l 494 767 q 619 737 560 763 q 704 683 679 711 l 663 586 q 494 660 601 650 l 494 192 q 594 215 543 193 q 669 263 646 238 m 413 197 l 413 656 q 283 576 332 642 q 235 425 235 511 q 282 276 235 339 q 413 197 329 213 z "},"£":{"ha":814,"x_min":86,"x_max":746,"o":"m 746 107 l 746 0 l 86 0 l 86 107 l 249 107 q 283 192 268 139 q 297 286 297 246 l 288 396 l 128 396 l 128 485 l 272 485 l 242 571 q 210 729 210 661 q 283 903 210 833 q 475 972 356 972 q 715 857 638 972 l 651 781 l 646 789 q 636 801 640 796 q 622 815 632 806 q 604 831 613 825 q 582 846 596 838 q 555 859 568 854 q 523 867 542 864 q 485 871 504 871 q 372 827 408 871 q 335 725 335 783 q 369 564 335 658 l 397 485 l 606 485 l 606 396 l 413 396 q 422 286 422 339 q 408 192 422 246 q 374 107 393 139 l 746 107 z "},"¤":{"ha":814,"x_min":49,"x_max":764,"o":"m 708 200 l 764 111 l 758 104 q 750 92 754 97 q 737 78 746 88 q 719 60 728 68 q 696 42 710 53 q 667 24 682 32 q 633 8 653 17 q 594 -5 614 0 q 548 -13 574 -10 q 496 -17 522 -17 q 263 79 357 -17 q 142 346 169 175 l 49 346 l 49 436 l 132 438 q 131 486 131 464 l 131 533 l 49 533 l 49 624 l 143 624 q 263 874 167 775 q 499 972 357 972 q 743 878 635 972 l 697 774 q 501 864 626 864 q 359 804 418 864 q 282 624 300 744 l 628 624 l 628 533 l 269 533 l 269 486 l 271 436 l 628 436 l 628 346 l 282 346 q 355 165 296 229 q 503 100 414 100 q 704 196 615 100 q 708 200 707 199 z "},"¥":{"ha":814,"x_min":24,"x_max":790,"o":"m 640 958 l 790 958 l 551 551 l 721 551 l 721 461 l 501 461 l 474 406 l 474 358 l 721 358 l 721 268 l 474 268 l 474 0 l 340 0 l 340 268 l 93 268 l 93 358 l 340 358 l 340 404 l 314 461 l 93 461 l 93 551 l 263 551 l 24 958 l 175 958 l 407 524 l 640 958 z "},"¦":{"ha":394,"x_min":149,"x_max":246,"o":"m 246 1111 l 246 676 l 149 676 l 149 1111 l 246 1111 m 246 433 l 246 0 l 149 0 l 149 433 l 246 433 z "},"§":{"ha":849,"x_min":133,"x_max":715,"o":"m 715 349 q 701 276 715 310 q 667 220 688 242 q 626 183 647 199 q 592 161 606 167 l 578 154 q 660 78 625 129 q 696 -43 696 26 q 616 -210 696 -147 q 419 -272 536 -272 q 133 -104 208 -272 l 221 -43 q 301 -140 246 -106 q 424 -175 356 -175 q 531 -142 490 -175 q 571 -49 571 -110 q 531 42 571 8 q 408 114 490 76 l 289 169 q 151 372 151 235 q 169 457 151 418 q 212 519 186 496 q 258 556 238 543 q 293 575 278 569 q 282 582 289 578 q 258 603 275 586 q 228 638 242 619 q 204 688 215 657 q 193 753 193 719 q 265 913 193 853 q 446 972 336 972 q 714 825 636 972 l 639 760 q 450 879 576 879 q 352 849 389 879 q 315 761 315 818 q 354 676 315 710 q 472 607 393 643 l 568 564 q 715 349 715 494 m 600 339 q 507 467 600 422 l 364 529 q 265 388 265 496 q 357 261 265 310 l 500 199 q 600 339 600 233 z "},"¨":{"ha":465,"x_min":53,"x_max":413,"o":"m 413 857 q 391 804 413 825 q 339 783 369 783 q 288 804 308 783 q 267 857 267 825 q 288 911 267 890 q 339 932 308 932 q 391 911 369 932 q 413 857 413 890 m 199 857 q 178 804 199 825 q 126 783 157 783 q 74 804 96 783 q 53 857 53 825 q 74 911 53 890 q 126 932 96 932 q 178 911 157 932 q 199 857 199 890 z "},"©":{"ha":1093,"x_min":53,"x_max":1042,"o":"m 898 831 q 970 759 898 831 q 1042 479 1042 688 q 898 128 1042 271 q 547 -15 754 -15 q 196 128 339 -15 q 53 479 53 271 q 196 831 53 688 q 547 974 339 974 q 898 831 754 974 m 851 176 q 914 239 851 176 q 976 479 976 301 q 851 783 976 657 q 547 908 725 908 q 244 783 369 908 q 118 479 118 657 q 244 176 118 301 q 547 50 369 50 q 851 176 725 50 m 740 333 l 783 272 q 700 212 756 239 q 568 185 644 185 q 361 267 444 185 q 278 479 278 350 q 361 691 278 608 q 568 774 444 774 q 778 693 707 774 l 733 626 q 669 674 713 653 q 571 696 626 696 q 428 640 486 696 q 371 482 371 583 q 427 324 371 381 q 571 267 483 267 q 740 333 671 267 z "},"ª":{"ha":488,"x_min":43,"x_max":415,"o":"m 415 488 l 415 261 l 319 261 l 318 311 q 265 272 300 290 q 188 254 229 254 q 87 287 131 254 q 43 381 43 319 q 204 501 43 496 l 317 506 l 317 514 q 289 579 317 557 q 217 601 261 601 q 143 589 179 601 q 94 565 107 576 l 63 628 q 225 672 132 672 q 369 625 322 672 q 415 488 415 581 m 317 367 l 317 449 l 225 446 q 146 385 146 440 q 224 321 146 321 q 281 337 256 321 q 317 367 307 353 z "},"«":{"ha":679,"x_min":75,"x_max":586,"o":"m 421 331 l 586 107 l 513 56 l 307 331 l 513 606 l 586 551 l 421 331 m 190 331 l 356 107 l 282 56 l 75 331 l 282 606 l 354 551 l 190 331 z "},"¬":{"ha":929,"x_min":100,"x_max":826,"o":"m 826 647 l 826 232 l 724 232 l 724 544 l 100 544 l 100 647 l 826 647 z "},"­":{"ha":406,"x_min":35,"x_max":371,"o":"m 371 436 l 371 325 l 35 325 l 35 436 l 371 436 z "},"®":{"ha":1093,"x_min":53,"x_max":1042,"o":"m 898 831 q 970 759 898 831 q 1042 479 1042 688 q 898 128 1042 271 q 547 -15 754 -15 q 196 128 339 -15 q 53 479 53 271 q 196 831 53 688 q 547 974 339 974 q 898 831 754 974 m 851 176 q 914 239 851 176 q 976 479 976 301 q 851 783 976 657 q 547 908 725 908 q 244 783 369 908 q 118 479 118 657 q 244 176 118 301 q 547 50 369 50 q 851 176 725 50 m 617 440 l 771 193 l 664 193 l 526 431 l 456 431 l 456 193 l 367 193 l 367 765 l 564 764 q 691 719 639 764 q 743 599 743 675 q 705 489 743 526 q 617 440 667 451 m 532 504 q 651 597 651 504 q 532 690 651 690 l 456 690 l 456 504 l 532 504 z "},"¯":{"ha":465,"x_min":53,"x_max":413,"o":"m 413 899 l 413 822 l 53 822 l 53 899 l 413 899 z "},"°":{"ha":572,"x_min":72,"x_max":500,"o":"m 500 811 q 438 660 500 721 q 286 600 375 600 q 135 660 197 600 q 72 811 72 721 q 135 960 72 900 q 286 1021 197 1021 q 438 960 375 1021 q 500 811 500 900 m 383 715 q 402 735 383 715 q 422 811 422 756 q 383 906 422 867 q 286 946 343 946 q 190 906 229 946 q 151 811 151 867 q 190 715 151 756 q 286 675 229 675 q 383 715 343 675 z "},"±":{"ha":926,"x_min":100,"x_max":826,"o":"m 826 651 l 826 550 l 515 550 l 515 279 l 411 279 l 411 550 l 100 550 l 100 651 l 411 651 l 411 922 l 515 922 l 515 651 l 826 651 m 826 221 l 826 119 l 100 119 l 100 221 l 826 221 z "},"²":{"ha":526,"x_min":50,"x_max":475,"o":"m 475 485 l 475 401 l 64 401 l 57 474 l 276 688 q 345 767 325 736 q 365 835 365 799 q 335 902 365 876 q 251 928 304 928 q 114 822 151 928 l 50 863 q 115 967 58 924 q 258 1011 172 1011 q 406 964 349 1011 q 464 843 464 917 q 460 807 464 825 q 451 776 456 789 q 435 744 447 763 q 419 718 424 726 q 397 692 414 710 q 376 669 381 674 q 353 647 372 665 q 332 626 333 628 l 189 485 l 475 485 z "},"³":{"ha":526,"x_min":57,"x_max":481,"o":"m 481 574 q 418 444 481 493 q 267 394 356 394 q 134 428 189 394 q 57 525 79 461 l 124 568 q 176 501 139 525 q 261 476 213 476 q 347 503 311 476 q 382 575 382 531 q 348 649 382 622 q 261 678 314 676 l 226 678 l 226 756 l 267 756 q 339 782 310 757 q 368 849 368 807 q 340 908 368 885 q 267 932 313 932 q 138 850 176 932 l 82 897 q 153 980 104 949 q 271 1011 203 1011 q 408 967 351 1011 q 465 854 465 924 q 368 721 465 758 l 368 718 q 449 665 418 704 q 481 574 481 625 z "},"´":{"ha":465,"x_min":106,"x_max":360,"o":"m 229 958 l 360 958 l 207 757 l 106 757 l 229 958 z "},"µ":{"ha":751,"x_min":92,"x_max":660,"o":"m 660 658 l 660 0 l 531 0 l 529 89 q 453 22 506 53 q 344 -10 401 -10 q 264 6 297 -10 q 219 43 231 22 l 222 -258 l 92 -258 l 92 658 l 224 658 l 224 286 q 254 148 224 197 q 364 99 285 99 q 487 151 447 99 q 526 292 526 203 l 526 658 l 660 658 z "},"¶":{"ha":835,"x_min":71,"x_max":756,"o":"m 756 958 l 756 863 l 683 863 l 683 -258 l 583 -258 l 583 863 l 457 863 l 457 -258 l 356 -258 l 356 385 q 149 462 228 388 q 71 672 71 536 q 152 885 71 811 q 383 958 233 958 l 756 958 z "},"·":{"ha":471,"x_min":144,"x_max":326,"o":"m 301 464 q 314 452 301 464 q 326 401 326 440 q 301 338 326 363 q 235 314 275 314 q 169 338 194 314 q 144 401 144 363 q 169 464 144 440 q 235 488 194 488 q 301 464 275 488 z "},"¸":{"ha":486,"x_min":126,"x_max":360,"o":"m 267 0 l 360 0 l 247 -203 l 126 -203 l 267 0 z "},"¹":{"ha":526,"x_min":147,"x_max":363,"o":"m 363 997 l 363 400 l 263 400 l 263 922 l 147 922 l 147 997 l 363 997 z "},"º":{"ha":547,"x_min":57,"x_max":490,"o":"m 490 463 q 428 313 490 372 q 274 254 367 254 q 119 313 181 254 q 57 463 57 372 q 119 613 57 554 q 274 672 181 672 q 428 613 367 672 q 490 463 490 554 m 390 467 q 356 559 390 525 q 274 593 322 593 q 190 560 224 593 q 156 467 156 526 q 190 372 156 407 q 274 336 224 336 q 356 372 322 336 q 390 467 390 407 z "},"»":{"ha":679,"x_min":92,"x_max":603,"o":"m 397 606 l 603 331 l 397 56 l 325 108 l 489 331 l 324 553 l 397 606 m 165 606 l 372 331 l 165 56 l 93 108 l 257 331 l 92 553 l 165 606 z "},"¼":{"ha":1236,"x_min":93,"x_max":1135,"o":"m 1135 203 l 1135 122 l 1047 122 l 1047 0 l 949 0 l 949 122 l 635 122 l 635 183 l 954 607 l 1047 607 l 1047 203 l 1135 203 m 804 981 l 874 939 l 281 -32 l 211 10 l 804 981 m 310 958 l 310 403 l 210 403 l 210 883 l 93 883 l 93 958 l 310 958 m 744 203 l 949 203 l 949 482 l 744 203 z "},"½":{"ha":1238,"x_min":90,"x_max":1153,"o":"m 1153 85 l 1153 0 l 746 0 l 732 64 l 932 251 q 1032 410 1032 346 q 1001 483 1032 456 q 922 510 971 510 q 783 415 842 510 l 728 474 q 935 594 788 594 q 1074 547 1018 594 q 1131 425 1131 499 q 1109 336 1131 379 q 1067 272 1088 293 q 1008 214 1047 250 l 871 85 l 1153 85 m 799 981 l 868 939 l 275 -32 l 206 10 l 799 981 m 307 958 l 307 382 l 207 382 l 207 883 l 90 883 l 90 958 l 307 958 z "},"¾":{"ha":1236,"x_min":57,"x_max":1135,"o":"m 1135 203 l 1135 122 l 1047 122 l 1047 0 l 949 0 l 949 122 l 635 122 l 635 183 l 954 607 l 1047 607 l 1047 203 l 1135 203 m 481 574 q 418 444 481 493 q 267 394 356 394 q 134 428 189 394 q 57 525 79 461 l 124 568 q 176 501 139 525 q 261 476 213 476 q 347 503 311 476 q 382 575 382 531 q 348 649 382 622 q 261 678 314 676 l 226 678 l 226 756 l 267 756 q 339 782 310 757 q 368 849 368 807 q 340 908 368 885 q 267 932 313 932 q 138 850 176 932 l 82 897 q 153 980 104 949 q 271 1011 203 1011 q 408 967 351 1011 q 465 854 465 924 q 368 721 465 758 l 368 718 q 449 665 418 704 q 481 574 481 625 m 865 981 l 935 939 l 342 -32 l 272 10 l 865 981 m 744 203 l 949 203 l 949 482 l 744 203 z "},"¿":{"ha":683,"x_min":79,"x_max":603,"o":"m 435 649 q 448 637 435 649 q 461 586 461 625 q 435 523 461 547 q 369 499 410 499 q 302 523 328 499 q 276 586 276 547 q 302 649 276 625 q 369 674 328 674 q 435 649 410 674 m 543 -100 l 603 -183 q 342 -312 525 -312 q 151 -246 224 -312 q 79 -86 79 -179 q 97 11 79 -33 q 135 79 115 56 q 193 139 156 103 q 226 170 206 151 q 258 199 247 189 q 281 225 269 210 q 300 254 293 240 q 310 307 310 281 l 313 404 l 425 404 l 428 306 q 413 213 429 254 q 379 153 396 172 q 331 104 363 133 l 250 29 q 206 -72 206 -11 q 249 -167 206 -132 q 361 -201 292 -201 q 543 -100 483 -201 z "},"À":{"ha":903,"x_min":1,"x_max":901,"o":"m 510 961 l 901 0 l 751 0 l 653 250 l 242 250 l 143 0 l 1 0 l 392 961 l 510 961 m 279 363 l 615 363 l 447 793 l 279 363 m 382 1232 l 506 1031 l 404 1031 l 251 1232 l 382 1232 z "},"Á":{"ha":903,"x_min":1,"x_max":901,"o":"m 510 961 l 901 0 l 751 0 l 653 250 l 242 250 l 143 0 l 1 0 l 392 961 l 510 961 m 279 363 l 615 363 l 447 793 l 279 363 m 521 1232 l 651 1232 l 499 1031 l 397 1031 l 521 1232 z "},"Â":{"ha":903,"x_min":1,"x_max":901,"o":"m 506 1232 l 633 1031 l 536 1031 l 451 1168 l 367 1031 l 269 1031 l 397 1232 l 506 1232 m 510 961 l 901 0 l 751 0 l 653 250 l 242 250 l 143 0 l 1 0 l 392 961 l 510 961 m 279 363 l 615 363 l 447 793 l 279 363 z "},"Ã":{"ha":903,"x_min":1,"x_max":901,"o":"m 603 1199 l 668 1185 q 626 1093 664 1129 q 540 1057 589 1057 q 513 1059 526 1057 q 488 1065 499 1061 q 469 1073 476 1069 q 453 1081 463 1076 q 442 1088 443 1086 q 423 1099 440 1088 q 390 1115 406 1110 q 360 1121 375 1121 q 321 1103 338 1121 q 300 1063 304 1086 l 235 1076 q 276 1168 238 1132 q 363 1204 314 1204 q 390 1202 376 1204 q 415 1196 404 1200 q 433 1188 426 1192 q 450 1180 440 1185 q 461 1174 460 1175 q 480 1163 463 1174 q 513 1146 497 1151 q 543 1140 528 1140 q 582 1158 565 1140 q 603 1199 599 1175 m 510 961 l 901 0 l 751 0 l 653 250 l 242 250 l 143 0 l 1 0 l 392 961 l 510 961 m 279 363 l 615 363 l 447 793 l 279 363 z "},"Ä":{"ha":903,"x_min":1,"x_max":901,"o":"m 631 1126 q 609 1072 631 1093 q 557 1051 588 1051 q 506 1072 526 1051 q 485 1126 485 1093 q 506 1180 485 1160 q 557 1200 526 1200 q 609 1179 588 1200 q 631 1126 631 1158 m 418 1126 q 397 1072 418 1093 q 346 1051 376 1051 q 294 1072 315 1051 q 272 1126 272 1093 q 294 1179 272 1158 q 346 1200 315 1200 q 397 1179 376 1200 q 418 1126 418 1158 m 510 961 l 901 0 l 751 0 l 653 250 l 242 250 l 143 0 l 1 0 l 392 961 l 510 961 m 279 363 l 615 363 l 447 793 l 279 363 z "},"Å":{"ha":903,"x_min":1,"x_max":901,"o":"m 550 1236 q 570 1217 550 1236 q 590 1142 590 1199 q 550 1047 590 1085 q 451 1010 510 1010 q 353 1047 393 1010 q 313 1142 313 1085 q 353 1236 313 1199 q 451 1274 393 1274 q 550 1236 510 1274 m 510 961 l 901 0 l 751 0 l 653 250 l 242 250 l 143 0 l 1 0 l 392 961 l 510 961 m 524 1142 q 503 1193 524 1172 q 451 1214 483 1214 q 399 1193 419 1214 q 379 1142 379 1172 q 400 1089 379 1110 q 451 1068 421 1068 q 503 1089 482 1068 q 524 1142 524 1110 m 279 363 l 615 363 l 447 793 l 279 363 z "},"Æ":{"ha":1221,"x_min":-42,"x_max":1161,"o":"m 1161 114 l 1161 0 l 628 0 l 628 253 l 263 253 l 110 0 l -42 0 l 561 958 l 1150 958 l 1150 846 l 763 846 l 763 565 l 1126 565 l 1126 453 l 763 453 l 763 114 l 1161 114 m 331 364 l 628 364 l 628 849 l 625 849 l 331 364 z "},"Ç":{"ha":924,"x_min":51,"x_max":892,"o":"m 833 224 l 892 125 q 569 -15 771 -10 l 481 -208 l 344 -208 l 460 -10 q 172 139 293 11 q 51 478 51 267 q 192 835 51 699 q 542 972 332 972 q 882 846 753 972 l 825 738 q 715 817 792 781 q 547 854 638 854 q 290 751 390 854 q 190 481 190 647 q 291 210 190 314 q 547 107 392 107 q 833 224 726 107 z "},"È":{"ha":738,"x_min":106,"x_max":678,"o":"m 340 1232 l 463 1031 l 363 1031 l 210 1232 l 340 1232 m 678 114 l 678 0 l 106 0 l 106 958 l 667 958 l 667 846 l 240 846 l 240 560 l 643 560 l 643 447 l 240 447 l 240 114 l 678 114 z "},"É":{"ha":738,"x_min":106,"x_max":678,"o":"m 417 1232 l 546 1232 l 393 1031 l 293 1031 l 417 1232 m 678 114 l 678 0 l 106 0 l 106 958 l 667 958 l 667 846 l 240 846 l 240 560 l 643 560 l 643 447 l 240 447 l 240 114 l 678 114 z "},"Ê":{"ha":738,"x_min":106,"x_max":678,"o":"m 440 1232 l 568 1031 l 471 1031 l 386 1168 l 301 1031 l 204 1031 l 332 1232 l 440 1232 m 678 114 l 678 0 l 106 0 l 106 958 l 667 958 l 667 846 l 240 846 l 240 560 l 643 560 l 643 447 l 240 447 l 240 114 l 678 114 z "},"Ë":{"ha":738,"x_min":106,"x_max":678,"o":"m 544 1180 q 555 1170 544 1180 q 565 1126 565 1160 q 544 1072 565 1093 q 493 1051 524 1051 q 441 1072 463 1051 q 419 1126 419 1093 q 441 1179 419 1158 q 493 1200 463 1200 q 544 1180 524 1200 m 332 1180 q 342 1170 332 1180 q 353 1126 353 1160 q 332 1072 353 1093 q 281 1051 311 1051 q 228 1072 250 1051 q 207 1126 207 1093 q 228 1179 207 1158 q 281 1200 250 1200 q 332 1180 311 1200 m 678 114 l 678 0 l 106 0 l 106 958 l 667 958 l 667 846 l 240 846 l 240 560 l 643 560 l 643 447 l 240 447 l 240 114 l 678 114 z "},"Ì":{"ha":346,"x_min":-14,"x_max":240,"o":"m 240 958 l 240 0 l 106 0 l 106 958 l 240 958 m 117 1232 l 240 1031 l 139 1031 l -14 1232 l 117 1232 z "},"Í":{"ha":346,"x_min":106,"x_max":360,"o":"m 231 1232 l 360 1232 l 207 1031 l 107 1031 l 231 1232 m 240 958 l 240 0 l 106 0 l 106 958 l 240 958 z "},"Î":{"ha":346,"x_min":-8,"x_max":354,"o":"m 228 1232 l 354 1031 l 257 1031 l 174 1168 l 89 1031 l -8 1031 l 118 1232 l 228 1232 m 240 958 l 240 0 l 106 0 l 106 958 l 240 958 z "},"Ï":{"ha":346,"x_min":-6,"x_max":353,"o":"m 353 1131 q 331 1078 353 1099 q 279 1057 310 1057 q 228 1078 249 1057 q 207 1131 207 1099 q 228 1185 207 1164 q 279 1206 249 1206 q 331 1185 310 1206 q 353 1131 353 1164 m 140 1131 q 119 1078 140 1099 q 67 1057 97 1057 q 15 1077 36 1057 q -6 1131 -6 1097 q 15 1185 -6 1164 q 67 1206 36 1206 q 119 1185 97 1206 q 140 1131 140 1164 m 240 958 l 240 0 l 106 0 l 106 958 l 240 958 z "},"Ð":{"ha":953,"x_min":15,"x_max":901,"o":"m 753 833 q 901 479 901 697 q 753 125 901 261 q 394 0 617 0 l 106 0 l 106 451 l 15 451 l 15 551 l 106 551 l 106 958 l 394 958 q 753 833 617 958 m 764 479 q 650 754 764 646 q 394 843 556 843 l 240 843 l 240 551 l 483 551 l 483 453 l 240 453 l 240 117 l 394 117 q 650 206 556 117 q 764 479 764 314 z "},"Ñ":{"ha":1028,"x_min":106,"x_max":921,"o":"m 665 1199 l 731 1185 q 689 1093 726 1129 q 603 1057 651 1057 q 575 1059 589 1057 q 550 1065 561 1061 q 532 1073 539 1069 q 515 1081 525 1076 q 504 1088 506 1086 q 485 1099 503 1088 q 453 1115 468 1110 q 422 1121 438 1121 q 361 1063 375 1121 l 297 1076 q 338 1168 300 1132 q 424 1204 375 1204 q 452 1202 439 1204 q 477 1196 465 1200 q 496 1188 489 1192 q 513 1180 503 1185 q 524 1174 522 1175 q 542 1162 525 1172 q 575 1146 560 1151 q 604 1140 590 1140 q 644 1157 628 1140 q 665 1199 661 1174 m 921 958 l 921 0 l 789 0 l 236 764 q 239 510 239 635 l 239 0 l 106 0 l 106 958 l 247 958 l 790 206 q 789 450 789 324 l 789 958 l 921 958 z "},"Ò":{"ha":1092,"x_min":51,"x_max":1040,"o":"m 474 1232 l 596 1031 l 496 1031 l 343 1232 l 474 1232 m 897 837 q 969 769 897 837 q 1040 478 1040 701 q 897 119 1040 254 q 546 -17 754 -17 q 194 119 338 -17 q 51 478 51 254 q 194 837 51 701 q 546 972 338 972 q 897 837 754 972 m 800 208 q 851 259 800 208 q 903 481 903 310 q 800 753 903 651 q 546 856 697 856 q 292 753 394 856 q 189 481 189 651 q 292 208 189 311 q 546 106 394 106 q 800 208 697 106 z "},"Ó":{"ha":1092,"x_min":51,"x_max":1040,"o":"m 619 1232 l 749 1232 l 596 1031 l 496 1031 l 619 1232 m 897 837 q 969 769 897 837 q 1040 478 1040 701 q 897 119 1040 254 q 546 -17 754 -17 q 194 119 338 -17 q 51 478 51 254 q 194 837 51 701 q 546 972 338 972 q 897 837 754 972 m 800 208 q 851 259 800 208 q 903 481 903 310 q 800 753 903 651 q 546 856 697 856 q 292 753 394 856 q 189 481 189 651 q 292 208 189 311 q 546 106 394 106 q 800 208 697 106 z "},"Ô":{"ha":1092,"x_min":51,"x_max":1040,"o":"m 600 1232 l 728 1031 l 631 1031 l 546 1168 l 461 1031 l 364 1031 l 492 1232 l 600 1232 m 897 837 q 969 769 897 837 q 1040 478 1040 701 q 897 119 1040 254 q 546 -17 754 -17 q 194 119 338 -17 q 51 478 51 254 q 194 837 51 701 q 546 972 338 972 q 897 837 754 972 m 800 208 q 851 259 800 208 q 903 481 903 310 q 800 753 903 651 q 546 856 697 856 q 292 753 394 856 q 189 481 189 651 q 292 208 189 311 q 546 106 394 106 q 800 208 697 106 z "},"Õ":{"ha":1092,"x_min":51,"x_max":1040,"o":"m 697 1199 l 763 1185 q 722 1093 760 1129 q 635 1057 683 1057 q 607 1059 621 1057 q 582 1065 593 1061 q 564 1073 571 1069 q 547 1081 557 1076 q 536 1088 538 1086 q 517 1099 535 1088 q 485 1115 500 1110 q 454 1121 469 1121 q 415 1103 432 1121 q 394 1063 399 1086 l 329 1076 q 371 1168 333 1132 q 457 1204 408 1204 q 485 1202 471 1204 q 510 1196 499 1200 q 528 1188 521 1192 q 544 1180 535 1185 q 556 1174 554 1175 q 574 1163 557 1174 q 607 1146 592 1151 q 638 1140 622 1140 q 676 1158 660 1140 q 697 1199 693 1175 m 897 837 q 969 769 897 837 q 1040 478 1040 701 q 897 119 1040 254 q 546 -17 754 -17 q 194 119 338 -17 q 51 478 51 254 q 194 837 51 701 q 546 972 338 972 q 897 837 754 972 m 800 208 q 851 259 800 208 q 903 481 903 310 q 800 753 903 651 q 546 856 697 856 q 292 753 394 856 q 189 481 189 651 q 292 208 189 311 q 546 106 394 106 q 800 208 697 106 z "},"Ö":{"ha":1092,"x_min":51,"x_max":1040,"o":"m 725 1126 q 704 1072 725 1093 q 653 1051 683 1051 q 601 1072 622 1051 q 579 1126 579 1093 q 601 1179 579 1158 q 653 1200 622 1200 q 704 1179 683 1200 q 725 1126 725 1158 m 513 1126 q 492 1072 513 1093 q 440 1051 471 1051 q 388 1072 410 1051 q 367 1126 367 1093 q 388 1179 367 1158 q 440 1200 410 1200 q 492 1179 471 1200 q 513 1126 513 1158 m 897 837 q 969 769 897 837 q 1040 478 1040 701 q 897 119 1040 254 q 546 -17 754 -17 q 194 119 338 -17 q 51 478 51 254 q 194 837 51 701 q 546 972 338 972 q 897 837 754 972 m 800 208 q 851 259 800 208 q 903 481 903 310 q 800 753 903 651 q 546 856 697 856 q 292 753 394 856 q 189 481 189 651 q 292 208 189 311 q 546 106 394 106 q 800 208 697 106 z "},"×":{"ha":926,"x_min":113,"x_max":815,"o":"m 538 478 l 815 200 l 743 125 l 464 404 l 183 125 l 113 200 l 390 478 l 113 756 l 183 831 l 464 551 l 743 831 l 815 756 l 538 478 z "},"Ø":{"ha":1092,"x_min":51,"x_max":1040,"o":"m 1040 478 q 898 119 1040 254 q 546 -17 756 -17 q 229 89 363 -17 l 121 -22 l 54 44 l 161 154 q 51 478 51 286 q 194 837 51 701 q 546 972 338 972 q 864 868 731 972 l 974 981 l 1040 914 l 931 801 q 1040 478 1040 672 m 257 251 l 775 778 q 546 856 678 856 q 292 753 394 856 q 189 481 189 651 q 257 251 189 346 m 903 481 q 838 708 903 613 l 321 182 q 546 106 419 106 q 800 208 697 106 q 903 481 903 310 z "},"Ù":{"ha":926,"x_min":99,"x_max":828,"o":"m 828 958 l 828 392 q 813 222 828 290 q 751 100 797 154 q 464 -17 650 -17 q 176 100 276 -17 q 115 222 131 154 q 99 392 99 290 l 99 958 l 235 958 l 235 404 q 237 323 235 353 q 249 254 239 293 q 279 189 258 215 q 464 104 342 104 q 649 189 583 104 q 679 254 669 215 q 691 324 689 293 q 693 404 693 354 l 693 958 l 828 958 m 417 1232 l 540 1031 l 439 1031 l 286 1232 l 417 1232 z "},"Ú":{"ha":926,"x_min":99,"x_max":828,"o":"m 510 1232 l 640 1232 l 488 1031 l 388 1031 l 510 1232 m 828 958 l 828 392 q 813 222 828 290 q 751 100 797 154 q 464 -17 650 -17 q 176 100 276 -17 q 115 222 131 154 q 99 392 99 290 l 99 958 l 235 958 l 235 404 q 237 323 235 353 q 249 254 239 293 q 279 189 258 215 q 464 104 342 104 q 649 189 583 104 q 679 254 669 215 q 691 324 689 293 q 693 404 693 354 l 693 958 l 828 958 z "},"Û":{"ha":926,"x_min":99,"x_max":828,"o":"m 518 1232 l 644 1031 l 547 1031 l 464 1168 l 379 1031 l 282 1031 l 408 1232 l 518 1232 m 828 958 l 828 392 q 813 222 828 290 q 751 100 797 154 q 464 -17 650 -17 q 176 100 276 -17 q 115 222 131 154 q 99 392 99 290 l 99 958 l 235 958 l 235 404 q 237 323 235 353 q 249 254 239 293 q 279 189 258 215 q 464 104 342 104 q 649 189 583 104 q 679 254 669 215 q 691 324 689 293 q 693 404 693 354 l 693 958 l 828 958 z "},"Ü":{"ha":926,"x_min":99,"x_max":828,"o":"m 643 1126 q 622 1072 643 1093 q 569 1051 600 1051 q 518 1072 539 1051 q 497 1126 497 1093 q 518 1179 497 1158 q 569 1200 539 1200 q 622 1179 600 1200 q 643 1126 643 1158 m 431 1126 q 409 1072 431 1093 q 357 1051 388 1051 q 306 1072 326 1051 q 285 1126 285 1093 q 306 1180 285 1160 q 357 1200 326 1200 q 409 1179 388 1200 q 431 1126 431 1158 m 828 958 l 828 392 q 813 222 828 290 q 751 100 797 154 q 464 -17 650 -17 q 176 100 276 -17 q 115 222 131 154 q 99 392 99 290 l 99 958 l 235 958 l 235 404 q 237 323 235 353 q 249 254 239 293 q 279 189 258 215 q 464 104 342 104 q 649 189 583 104 q 679 254 669 215 q 691 324 689 293 q 693 404 693 354 l 693 958 l 828 958 z "},"Ý":{"ha":799,"x_min":-1,"x_max":800,"o":"m 446 1232 l 575 1232 l 422 1031 l 322 1031 l 446 1232 m 649 958 l 800 958 l 467 401 l 467 0 l 332 0 l 332 401 l -1 958 l 150 958 l 399 518 l 649 958 z "},"Þ":{"ha":732,"x_min":106,"x_max":688,"o":"m 688 504 q 596 299 688 378 q 363 231 514 231 l 240 231 l 240 0 l 106 0 l 106 958 l 240 958 l 240 778 l 363 778 q 596 710 514 778 q 688 504 688 629 m 549 504 q 489 631 549 590 q 350 668 439 668 l 240 668 l 240 339 l 350 339 q 489 376 436 339 q 549 504 549 419 z "},"ß":{"ha":776,"x_min":99,"x_max":729,"o":"m 729 288 q 637 71 729 151 q 390 -10 544 -10 l 311 -1 l 319 103 q 385 96 346 96 q 533 146 471 96 q 596 293 596 196 q 534 446 596 393 q 369 499 472 499 l 328 499 l 328 600 l 367 600 q 477 638 439 600 q 515 744 515 676 q 472 841 515 807 q 371 875 428 875 q 258 822 296 875 q 231 682 231 778 l 231 0 l 99 0 l 99 621 q 119 815 99 761 q 203 924 146 885 q 382 972 272 972 q 567 910 497 972 q 638 758 638 849 q 595 626 638 679 q 508 567 553 574 l 508 564 q 663 476 597 550 q 729 288 729 401 z "},"à":{"ha":683,"x_min":36,"x_max":604,"o":"m 279 958 l 401 757 l 301 757 l 149 958 l 279 958 m 604 383 l 604 0 l 475 0 l 474 83 q 264 -15 381 -15 q 102 40 168 -15 q 36 189 36 96 q 106 334 36 283 q 294 390 175 385 l 471 397 l 471 424 q 426 535 471 496 q 307 574 382 574 q 108 517 200 574 l 68 606 q 315 672 185 672 q 533 597 458 672 q 604 383 604 524 m 472 175 l 472 317 l 318 307 q 168 193 168 299 q 204 112 168 144 q 304 79 240 79 q 472 175 408 79 z "},"á":{"ha":683,"x_min":36,"x_max":604,"o":"m 367 958 l 496 958 l 343 757 l 243 757 l 367 958 m 604 383 l 604 0 l 475 0 l 474 83 q 264 -15 381 -15 q 102 40 168 -15 q 36 189 36 96 q 106 334 36 283 q 294 390 175 385 l 471 397 l 471 424 q 426 535 471 496 q 307 574 382 574 q 108 517 200 574 l 68 606 q 315 672 185 672 q 533 597 458 672 q 604 383 604 524 m 472 175 l 472 317 l 318 307 q 168 193 168 299 q 204 112 168 144 q 304 79 240 79 q 472 175 408 79 z "},"â":{"ha":683,"x_min":36,"x_max":604,"o":"m 604 383 l 604 0 l 475 0 l 474 83 q 264 -15 381 -15 q 102 40 168 -15 q 36 189 36 96 q 106 334 36 283 q 294 390 175 385 l 471 397 l 471 424 q 426 535 471 496 q 307 574 382 574 q 108 517 200 574 l 68 606 q 315 672 185 672 q 533 597 458 672 q 604 383 604 524 m 472 175 l 472 317 l 318 307 q 168 193 168 299 q 204 112 168 144 q 304 79 240 79 q 472 175 408 79 m 381 958 l 507 757 l 410 757 l 325 896 l 242 757 l 144 757 l 271 958 l 381 958 z "},"ã":{"ha":683,"x_min":36,"x_max":604,"o":"m 497 929 l 563 915 q 521 824 558 860 q 435 788 483 788 q 407 790 421 788 q 382 796 393 792 q 364 803 371 800 q 347 812 357 807 q 336 818 338 817 q 322 827 335 819 q 301 839 308 835 q 279 848 293 843 q 254 853 265 853 q 215 836 231 853 q 193 793 199 819 l 128 807 q 169 899 132 863 q 256 936 207 936 q 292 932 274 936 q 319 924 310 928 q 342 911 328 919 l 356 904 q 369 896 357 903 q 390 884 382 889 q 412 875 399 879 q 436 871 425 871 q 476 888 460 871 q 497 929 493 904 m 604 383 l 604 0 l 475 0 l 474 83 q 264 -15 381 -15 q 102 40 168 -15 q 36 189 36 96 q 106 334 36 283 q 294 390 175 385 l 471 397 l 471 424 q 426 535 471 496 q 307 574 382 574 q 108 517 200 574 l 68 606 q 315 672 185 672 q 533 597 458 672 q 604 383 604 524 m 472 175 l 472 317 l 318 307 q 168 193 168 299 q 204 112 168 144 q 304 79 240 79 q 472 175 408 79 z "},"ä":{"ha":683,"x_min":36,"x_max":604,"o":"m 503 857 q 481 804 503 825 q 429 783 460 783 q 378 804 399 783 q 357 857 357 825 q 378 911 357 890 q 429 932 399 932 q 481 911 460 932 q 503 857 503 890 m 269 911 q 280 901 269 911 q 290 857 290 890 q 269 803 290 824 q 218 783 249 783 q 166 804 188 783 q 144 857 144 825 q 166 911 144 890 q 218 932 188 932 q 269 911 249 932 m 604 383 l 604 0 l 475 0 l 474 83 q 264 -15 381 -15 q 102 40 168 -15 q 36 189 36 96 q 106 334 36 283 q 294 390 175 385 l 471 397 l 471 424 q 426 535 471 496 q 307 574 382 574 q 108 517 200 574 l 68 606 q 315 672 185 672 q 533 597 458 672 q 604 383 604 524 m 472 175 l 472 317 l 318 307 q 168 193 168 299 q 204 112 168 144 q 304 79 240 79 q 472 175 408 79 z "},"å":{"ha":683,"x_min":36,"x_max":604,"o":"m 423 979 q 443 960 423 979 q 463 885 463 942 q 423 790 463 828 q 325 753 383 753 q 226 790 267 753 q 186 885 186 828 q 226 979 186 942 q 325 1017 267 1017 q 423 979 383 1017 m 604 383 l 604 0 l 475 0 l 474 83 q 264 -15 381 -15 q 102 40 168 -15 q 36 189 36 96 q 106 334 36 283 q 294 390 175 385 l 471 397 l 471 424 q 426 535 471 496 q 307 574 382 574 q 108 517 200 574 l 68 606 q 315 672 185 672 q 533 597 458 672 q 604 383 604 524 m 376 833 q 386 843 376 833 q 396 885 396 854 q 376 936 396 915 q 325 957 356 957 q 273 936 293 957 q 253 885 253 915 q 273 833 253 854 q 325 811 293 811 q 376 833 356 811 m 472 175 l 472 317 l 318 307 q 168 193 168 299 q 204 112 168 144 q 304 79 240 79 q 472 175 408 79 z "},"æ":{"ha":1156,"x_min":36,"x_max":1114,"o":"m 1114 357 l 1111 299 l 601 299 q 665 145 607 201 q 815 89 722 89 q 883 95 850 89 q 941 113 915 101 q 983 134 967 125 q 1017 154 1000 143 l 1033 165 l 1089 89 l 1081 81 q 1061 65 1072 74 q 1033 45 1050 57 q 992 24 1015 33 q 941 5 969 14 q 876 -10 913 -4 q 799 -15 839 -15 q 535 113 633 -15 q 531 118 532 117 q 415 18 475 51 q 265 -15 354 -15 q 101 40 167 -15 q 36 189 36 96 q 106 335 36 283 q 297 390 176 386 l 471 397 l 471 425 q 426 535 471 497 q 307 574 382 574 q 108 517 200 574 l 68 606 q 315 672 185 672 q 507 613 443 672 q 535 582 524 597 q 550 558 547 567 l 554 551 q 803 672 638 672 q 1027 583 940 672 q 1114 357 1114 494 m 604 388 l 988 388 q 938 515 988 454 q 799 576 889 576 q 657 517 707 576 q 604 388 607 457 m 492 190 q 471 317 471 243 l 318 307 q 168 193 168 300 q 204 112 168 144 q 303 79 240 79 q 417 114 364 79 q 492 190 471 149 z "},"ç":{"ha":660,"x_min":47,"x_max":644,"o":"m 597 182 l 644 85 q 635 76 643 83 q 623 65 628 69 q 606 51 618 60 q 583 35 594 42 q 555 20 572 29 q 520 6 538 11 q 479 -5 503 0 q 431 -12 456 -10 l 328 -201 l 197 -201 l 329 -11 q 128 98 208 6 q 47 329 47 190 q 147 578 47 483 q 385 672 247 672 q 528 648 464 672 q 610 608 592 624 q 640 578 629 592 l 593 481 q 396 561 513 561 q 244 498 306 561 q 182 333 182 435 q 242 164 182 229 q 397 99 301 99 q 504 119 454 99 q 575 161 554 140 l 597 182 z "},"è":{"ha":735,"x_min":47,"x_max":694,"o":"m 694 357 l 690 299 l 182 299 q 245 145 188 201 q 394 89 303 89 q 444 92 419 89 q 490 102 469 96 q 527 115 510 108 q 560 131 544 122 q 584 146 575 140 q 602 158 593 151 q 613 165 611 165 l 668 89 l 663 83 q 651 73 657 78 q 633 59 644 68 q 608 42 622 50 q 577 26 594 35 q 538 10 560 17 q 493 -3 517 3 q 440 -12 469 -8 q 378 -15 410 -15 q 139 79 231 -15 q 47 331 47 174 q 144 578 47 483 q 382 672 240 672 q 607 584 519 672 q 694 357 694 496 m 183 388 l 568 388 q 517 515 567 454 q 378 576 468 576 q 238 517 288 576 q 183 388 188 458 m 333 958 l 457 757 l 356 757 l 203 958 l 333 958 z "},"é":{"ha":735,"x_min":47,"x_max":694,"o":"m 694 357 l 690 299 l 182 299 q 245 145 188 201 q 394 89 303 89 q 444 92 419 89 q 490 102 469 96 q 527 115 510 108 q 560 131 544 122 q 584 146 575 140 q 602 158 593 151 q 613 165 611 165 l 668 89 l 663 83 q 651 73 657 78 q 633 59 644 68 q 608 42 622 50 q 577 26 594 35 q 538 10 560 17 q 493 -3 517 3 q 440 -12 469 -8 q 378 -15 410 -15 q 139 79 231 -15 q 47 331 47 174 q 144 578 47 483 q 382 672 240 672 q 607 584 519 672 q 694 357 694 496 m 183 388 l 568 388 q 517 515 567 454 q 378 576 468 576 q 238 517 288 576 q 183 388 188 458 m 426 958 l 557 958 l 404 757 l 303 757 l 426 958 z "},"ê":{"ha":735,"x_min":47,"x_max":694,"o":"m 435 958 l 561 757 l 464 757 l 381 896 l 296 757 l 199 757 l 325 958 l 435 958 m 694 357 l 690 299 l 182 299 q 245 145 188 201 q 394 89 303 89 q 444 92 419 89 q 490 102 469 96 q 527 115 510 108 q 560 131 544 122 q 584 146 575 140 q 602 158 593 151 q 613 165 611 165 l 668 89 l 663 83 q 651 73 657 78 q 633 59 644 68 q 608 42 622 50 q 577 26 594 35 q 538 10 560 17 q 493 -3 517 3 q 440 -12 469 -8 q 378 -15 410 -15 q 139 79 231 -15 q 47 331 47 174 q 144 578 47 483 q 382 672 240 672 q 607 584 519 672 q 694 357 694 496 m 183 388 l 568 388 q 517 515 567 454 q 378 576 468 576 q 238 517 288 576 q 183 388 188 458 z "},"ë":{"ha":735,"x_min":47,"x_max":694,"o":"m 561 857 q 540 804 561 825 q 488 783 518 783 q 436 804 457 783 q 415 857 415 825 q 436 911 415 890 q 488 932 457 932 q 540 911 518 932 q 561 857 561 890 m 328 911 q 338 901 328 911 q 349 857 349 890 q 328 803 349 824 q 276 783 307 783 q 224 804 246 783 q 203 857 203 825 q 224 911 203 890 q 276 932 246 932 q 328 911 307 932 m 694 357 l 690 299 l 182 299 q 245 145 188 201 q 394 89 303 89 q 444 92 419 89 q 490 102 469 96 q 527 115 510 108 q 560 131 544 122 q 584 146 575 140 q 602 158 593 151 q 613 165 611 165 l 668 89 l 663 83 q 651 73 657 78 q 633 59 644 68 q 608 42 622 50 q 577 26 594 35 q 538 10 560 17 q 493 -3 517 3 q 440 -12 469 -8 q 378 -15 410 -15 q 139 79 231 -15 q 47 331 47 174 q 144 578 47 483 q 382 672 240 672 q 607 584 519 672 q 694 357 694 496 m 183 388 l 568 388 q 517 515 567 454 q 378 576 468 576 q 238 517 288 576 q 183 388 188 458 z "},"ì":{"ha":328,"x_min":-24,"x_max":231,"o":"m 231 660 l 231 0 l 97 0 l 97 660 l 231 660 m 107 958 l 231 757 l 129 757 l -24 958 l 107 958 z "},"í":{"ha":328,"x_min":97,"x_max":350,"o":"m 221 958 l 350 958 l 197 757 l 97 757 l 221 958 m 231 660 l 231 0 l 97 0 l 97 660 l 231 660 z "},"î":{"ha":328,"x_min":-18,"x_max":346,"o":"m 218 958 l 346 757 l 249 757 l 164 896 l 79 757 l -18 757 l 110 958 l 218 958 m 231 660 l 231 0 l 97 0 l 97 660 l 231 660 z "},"ï":{"ha":328,"x_min":-15,"x_max":343,"o":"m 343 857 q 322 804 343 825 q 269 783 300 783 q 218 803 239 783 q 197 857 197 824 q 218 911 197 890 q 269 932 239 932 q 322 911 300 932 q 343 857 343 890 m 131 857 q 110 804 131 825 q 58 783 89 783 q 6 804 28 783 q -15 857 -15 825 q 6 911 -15 890 q 58 932 28 932 q 110 911 89 932 q 131 857 131 890 m 231 660 l 231 0 l 97 0 l 97 660 l 231 660 z "},"ð":{"ha":793,"x_min":47,"x_max":744,"o":"m 744 322 q 644 81 744 176 q 393 -15 543 -15 q 146 81 244 -15 q 47 322 47 176 q 147 558 47 463 q 376 653 246 653 q 561 588 490 653 q 371 824 500 710 l 210 724 l 171 786 l 311 874 q 175 969 236 932 l 263 1029 q 408 928 339 983 l 576 1032 l 615 968 l 468 876 q 607 725 551 806 q 744 322 744 535 m 550 163 q 580 195 550 163 q 610 325 610 228 q 550 488 610 422 q 396 553 490 553 q 242 488 301 553 q 182 325 182 422 q 242 163 182 228 q 396 99 301 99 q 550 163 490 99 z "},"ñ":{"ha":751,"x_min":92,"x_max":665,"o":"m 526 929 l 592 915 q 550 824 588 860 q 464 788 513 788 q 435 790 449 788 q 410 796 422 792 q 392 803 399 800 q 375 812 385 807 q 364 818 365 817 q 283 853 310 853 q 243 835 260 853 q 222 793 226 818 l 157 807 q 199 899 161 863 q 285 936 236 936 q 320 932 303 936 q 347 924 338 928 q 369 912 356 919 q 383 904 382 904 q 402 893 385 904 q 435 876 419 882 q 465 871 450 871 q 526 929 513 871 m 665 390 l 665 0 l 532 0 l 532 368 q 504 513 532 464 q 394 563 476 563 q 266 499 307 563 q 225 332 225 435 l 225 0 l 92 0 l 92 660 l 225 660 l 224 556 l 228 556 q 308 640 256 607 q 429 672 360 672 q 613 597 560 672 q 665 390 665 522 z "},"ò":{"ha":793,"x_min":47,"x_max":746,"o":"m 349 958 l 471 757 l 371 757 l 218 958 l 349 958 m 646 576 q 696 527 646 576 q 746 328 746 479 q 646 81 746 176 q 397 -15 546 -15 q 147 81 247 -15 q 47 328 47 176 q 147 576 47 479 q 397 672 247 672 q 646 576 546 672 m 553 165 q 582 199 553 165 q 611 332 611 232 q 553 498 611 432 q 397 564 494 564 q 241 498 300 564 q 182 332 182 432 q 241 165 182 232 q 397 99 300 99 q 553 165 494 99 z "},"ó":{"ha":793,"x_min":47,"x_max":746,"o":"m 446 958 l 575 958 l 422 757 l 322 757 l 446 958 m 646 576 q 696 527 646 576 q 746 328 746 479 q 646 81 746 176 q 397 -15 546 -15 q 147 81 247 -15 q 47 328 47 176 q 147 576 47 479 q 397 672 247 672 q 646 576 546 672 m 553 165 q 582 199 553 165 q 611 332 611 232 q 553 498 611 432 q 397 564 494 564 q 241 498 300 564 q 182 332 182 432 q 241 165 182 232 q 397 99 300 99 q 553 165 494 99 z "},"ô":{"ha":793,"x_min":47,"x_max":746,"o":"m 451 958 l 578 757 l 481 757 l 397 896 l 313 757 l 215 757 l 342 958 l 451 958 m 646 576 q 696 527 646 576 q 746 328 746 479 q 646 81 746 176 q 397 -15 546 -15 q 147 81 247 -15 q 47 328 47 176 q 147 576 47 479 q 397 672 247 672 q 646 576 546 672 m 553 165 q 582 199 553 165 q 611 332 611 232 q 553 498 611 432 q 397 564 494 564 q 241 498 300 564 q 182 332 182 432 q 241 165 182 232 q 397 99 300 99 q 553 165 494 99 z "},"õ":{"ha":793,"x_min":47,"x_max":746,"o":"m 549 929 l 614 915 q 572 824 610 860 q 486 788 535 788 q 458 790 471 788 q 433 796 444 792 q 415 803 422 800 q 399 812 407 807 q 388 818 390 817 q 373 827 386 819 q 352 839 360 835 q 331 848 344 843 q 306 853 317 853 q 266 836 282 853 q 244 793 250 819 l 179 807 q 221 899 183 863 q 307 936 258 936 q 406 904 347 936 q 424 893 407 904 q 457 876 442 882 q 488 871 472 871 q 528 888 511 871 q 549 929 544 904 m 646 576 q 696 527 646 576 q 746 328 746 479 q 646 81 746 176 q 397 -15 546 -15 q 147 81 247 -15 q 47 328 47 176 q 147 576 47 479 q 397 672 247 672 q 646 576 546 672 m 553 165 q 582 199 553 165 q 611 332 611 232 q 553 498 611 432 q 397 564 494 564 q 241 498 300 564 q 182 332 182 432 q 241 165 182 232 q 397 99 300 99 q 553 165 494 99 z "},"ö":{"ha":793,"x_min":47,"x_max":746,"o":"m 554 911 q 565 901 554 911 q 575 857 575 890 q 554 803 575 824 q 503 783 533 783 q 451 804 472 783 q 429 857 429 825 q 451 911 429 890 q 503 932 472 932 q 554 911 533 932 m 364 857 q 342 804 364 825 q 290 783 321 783 q 239 804 260 783 q 218 857 218 825 q 239 911 218 890 q 290 932 260 932 q 342 911 321 932 q 364 857 364 890 m 646 576 q 696 527 646 576 q 746 328 746 479 q 646 81 746 176 q 397 -15 546 -15 q 147 81 247 -15 q 47 328 47 176 q 147 576 47 479 q 397 672 247 672 q 646 576 546 672 m 553 165 q 582 199 553 165 q 611 332 611 232 q 553 498 611 432 q 397 564 494 564 q 241 498 300 564 q 182 332 182 432 q 241 165 182 232 q 397 99 300 99 q 553 165 494 99 z "},"÷":{"ha":926,"x_min":100,"x_max":826,"o":"m 549 708 q 524 647 549 672 q 464 622 499 622 q 403 647 428 622 q 378 708 378 672 q 403 768 378 743 q 464 793 429 793 q 524 768 499 793 q 549 708 549 743 m 826 531 l 826 428 l 100 428 l 100 531 l 826 531 m 524 311 q 536 299 524 311 q 549 250 549 286 q 524 190 549 214 q 464 165 500 165 q 403 190 428 165 q 378 250 378 215 q 403 311 378 286 q 464 336 428 336 q 524 311 499 336 z "},"ø":{"ha":793,"x_min":38,"x_max":756,"o":"m 696 686 l 756 628 l 674 546 q 746 328 746 456 q 647 80 746 175 q 397 -15 547 -15 q 178 54 271 -15 l 96 -26 l 38 31 l 118 113 q 47 328 47 203 q 147 576 47 479 q 397 672 247 672 q 614 604 519 672 l 696 686 m 213 206 l 529 521 q 397 564 475 564 q 241 498 300 564 q 182 332 182 432 q 213 206 182 263 m 611 332 q 582 456 611 401 l 265 142 q 397 99 319 99 q 553 165 494 99 q 611 332 611 232 z "},"ù":{"ha":744,"x_min":86,"x_max":653,"o":"m 314 958 l 436 757 l 336 757 l 183 958 l 314 958 m 653 661 l 653 0 l 524 0 l 522 94 q 440 15 494 44 q 318 -15 386 -15 q 135 61 194 -15 q 86 265 86 126 l 86 661 l 218 661 l 218 271 q 247 143 218 190 q 356 96 275 96 q 478 156 438 96 q 519 307 519 217 l 519 661 l 653 661 z "},"ú":{"ha":744,"x_min":86,"x_max":653,"o":"m 653 661 l 653 0 l 524 0 l 522 94 q 440 15 494 44 q 318 -15 386 -15 q 135 61 194 -15 q 86 265 86 126 l 86 661 l 218 661 l 218 271 q 247 143 218 190 q 356 96 275 96 q 478 156 438 96 q 519 307 519 217 l 519 661 l 653 661 m 424 958 l 554 958 l 401 757 l 300 757 l 424 958 z "},"û":{"ha":744,"x_min":86,"x_max":653,"o":"m 424 958 l 551 757 l 454 757 l 369 896 l 285 757 l 188 757 l 315 958 l 424 958 m 653 661 l 653 0 l 524 0 l 522 94 q 440 15 494 44 q 318 -15 386 -15 q 135 61 194 -15 q 86 265 86 126 l 86 661 l 218 661 l 218 271 q 247 143 218 190 q 356 96 275 96 q 478 156 438 96 q 519 307 519 217 l 519 661 l 653 661 z "},"ü":{"ha":744,"x_min":86,"x_max":653,"o":"m 549 857 q 527 804 549 825 q 475 783 506 783 q 424 804 444 783 q 403 857 403 825 q 424 911 403 890 q 475 932 444 932 q 527 911 506 932 q 549 857 549 890 m 315 911 q 326 901 315 911 q 336 857 336 890 q 315 803 336 824 q 264 783 294 783 q 212 804 233 783 q 190 857 190 825 q 212 911 190 890 q 264 932 233 932 q 315 911 294 932 m 653 661 l 653 0 l 524 0 l 522 94 q 440 15 494 44 q 318 -15 386 -15 q 135 61 194 -15 q 86 265 86 126 l 86 661 l 218 661 l 218 271 q 247 143 218 190 q 356 96 275 96 q 478 156 438 96 q 519 307 519 217 l 519 661 l 653 661 z "},"ý":{"ha":665,"x_min":1,"x_max":668,"o":"m 531 661 l 668 660 l 350 -115 q 275 -233 317 -199 q 176 -268 233 -268 q 112 -262 143 -268 q 67 -250 81 -256 l 51 -244 l 78 -136 q 147 -151 114 -151 q 169 -150 163 -151 q 189 -142 176 -149 q 213 -119 201 -136 q 233 -74 224 -103 l 265 14 l 1 661 l 140 660 l 336 147 l 531 661 m 383 958 l 514 958 l 361 757 l 260 757 l 383 958 z "},"þ":{"ha":829,"x_min":99,"x_max":782,"o":"m 782 331 q 694 83 782 181 q 461 -15 606 -15 q 233 103 311 -15 l 231 103 l 231 -258 l 99 -258 l 99 958 l 231 958 l 231 557 l 233 557 q 464 672 314 672 q 694 576 607 672 q 782 331 782 479 m 590 165 q 618 198 590 165 q 646 332 646 231 q 590 499 646 433 q 436 564 533 564 q 282 499 339 564 q 225 332 225 433 q 282 165 225 231 q 436 99 339 99 q 590 165 533 99 z "},"ÿ":{"ha":665,"x_min":1,"x_max":668,"o":"m 494 917 q 505 906 494 917 q 515 863 515 896 q 494 808 515 829 q 442 788 472 788 q 390 808 411 788 q 369 863 369 829 q 390 917 369 896 q 442 938 411 938 q 494 917 472 938 m 303 863 q 282 809 303 831 q 231 788 261 788 q 178 808 200 788 q 157 863 157 829 q 178 917 157 896 q 231 938 200 938 q 282 917 261 938 q 303 863 303 896 m 531 661 l 668 660 l 350 -115 q 275 -233 317 -199 q 176 -268 233 -268 q 112 -262 143 -268 q 67 -250 81 -256 l 51 -244 l 78 -136 q 147 -151 114 -151 q 169 -150 163 -151 q 189 -142 176 -149 q 213 -119 201 -136 q 233 -74 224 -103 l 265 14 l 1 661 l 140 660 l 336 147 l 531 661 z "},"Ā":{"ha":903,"x_min":1,"x_max":901,"o":"m 510 961 l 901 0 l 751 0 l 653 250 l 242 250 l 143 0 l 1 0 l 392 961 l 510 961 m 279 363 l 615 363 l 447 793 l 279 363 m 628 1196 l 628 1119 l 268 1119 l 268 1196 l 628 1196 z "},"ā":{"ha":683,"x_min":36,"x_max":604,"o":"m 604 383 l 604 0 l 475 0 l 474 83 q 264 -15 381 -15 q 102 40 168 -15 q 36 189 36 96 q 106 334 36 283 q 294 390 175 385 l 471 397 l 471 424 q 426 535 471 496 q 307 574 382 574 q 108 517 200 574 l 68 606 q 315 672 185 672 q 533 597 458 672 q 604 383 604 524 m 472 175 l 472 317 l 318 307 q 168 193 168 299 q 204 112 168 144 q 304 79 240 79 q 472 175 408 79 m 511 899 l 511 822 l 151 822 l 151 899 l 511 899 z "},"Ă":{"ha":903,"x_min":1,"x_max":901,"o":"m 510 961 l 901 0 l 751 0 l 653 250 l 242 250 l 143 0 l 1 0 l 392 961 l 510 961 m 279 363 l 615 363 l 447 793 l 279 363 m 586 1240 l 654 1240 q 589 1113 643 1157 q 447 1069 535 1069 q 307 1113 361 1069 q 242 1240 253 1157 l 308 1240 q 447 1150 332 1150 q 586 1240 565 1150 z "},"ă":{"ha":683,"x_min":36,"x_max":604,"o":"m 604 383 l 604 0 l 475 0 l 474 83 q 264 -15 381 -15 q 102 40 168 -15 q 36 189 36 96 q 106 334 36 283 q 294 390 175 385 l 471 397 l 471 424 q 426 535 471 496 q 307 574 382 574 q 108 517 200 574 l 68 606 q 315 672 185 672 q 533 597 458 672 q 604 383 604 524 m 472 175 l 472 317 l 318 307 q 168 193 168 299 q 204 112 168 144 q 304 79 240 79 q 472 175 408 79 m 465 943 l 533 943 q 468 816 522 860 q 326 772 414 772 q 186 816 240 772 q 121 943 132 860 l 188 943 q 326 853 211 853 q 465 943 444 853 z "},"Ą":{"ha":903,"x_min":1,"x_max":932,"o":"m 911 -186 l 932 -229 q 788 -289 869 -289 q 685 -256 725 -289 q 644 -164 644 -222 q 751 0 644 -75 l 653 250 l 242 250 l 143 0 l 1 0 l 392 961 l 510 961 l 901 0 q 778 -58 822 -14 q 733 -144 733 -101 q 757 -199 733 -181 q 815 -217 781 -217 q 911 -186 860 -217 m 279 363 l 615 363 l 447 793 l 279 363 z "},"ą":{"ha":683,"x_min":36,"x_max":657,"o":"m 636 -186 l 657 -229 q 513 -289 594 -289 q 410 -256 450 -289 q 369 -164 369 -222 q 475 0 369 -76 l 474 83 q 264 -15 381 -15 q 102 40 168 -15 q 36 189 36 96 q 106 334 36 283 q 294 390 175 385 l 471 397 l 471 424 q 426 535 471 496 q 307 574 382 574 q 108 517 200 574 l 68 606 q 315 672 185 672 q 533 597 458 672 q 604 383 604 524 l 604 0 q 499 -61 539 -18 q 458 -144 458 -104 q 482 -199 458 -181 q 540 -217 506 -217 q 636 -186 585 -217 m 472 175 l 472 317 l 318 307 q 168 193 168 299 q 204 112 168 144 q 304 79 240 79 q 472 175 408 79 z "},"Ć":{"ha":924,"x_min":51,"x_max":892,"o":"m 833 224 l 892 125 q 542 -17 765 -17 q 190 120 329 -17 q 51 478 51 257 q 192 835 51 699 q 542 972 332 972 q 882 846 753 972 l 825 738 q 715 817 792 781 q 547 854 638 854 q 290 751 390 854 q 190 481 190 647 q 291 210 190 314 q 547 107 392 107 q 833 224 726 107 m 550 1256 l 681 1256 l 528 1054 l 426 1054 l 550 1256 z "},"ć":{"ha":660,"x_min":47,"x_max":644,"o":"m 597 182 l 644 85 q 521 6 588 28 q 381 -15 458 -15 q 145 80 243 -15 q 47 329 47 175 q 147 578 47 483 q 385 672 247 672 q 528 648 464 672 q 610 608 592 624 q 640 578 629 592 l 593 481 q 396 561 513 561 q 244 498 306 561 q 182 333 182 435 q 242 164 182 229 q 397 99 301 99 q 504 119 454 99 q 575 161 554 140 l 597 182 m 383 958 l 514 958 l 361 757 l 260 757 l 383 958 z "},"Ĉ":{"ha":924,"x_min":51,"x_max":892,"o":"m 567 1256 l 693 1054 l 596 1054 l 511 1193 l 428 1054 l 331 1054 l 457 1256 l 567 1256 m 833 224 l 892 125 q 542 -17 765 -17 q 190 120 329 -17 q 51 478 51 257 q 192 835 51 699 q 542 972 332 972 q 882 846 753 972 l 825 738 q 715 817 792 781 q 547 854 638 854 q 290 751 390 854 q 190 481 190 647 q 291 210 190 314 q 547 107 392 107 q 833 224 726 107 z "},"ĉ":{"ha":660,"x_min":47,"x_max":644,"o":"m 425 958 l 551 757 l 454 757 l 369 896 l 286 757 l 189 757 l 315 958 l 425 958 m 597 182 l 644 85 q 521 6 588 28 q 381 -15 458 -15 q 145 80 243 -15 q 47 329 47 175 q 147 578 47 483 q 385 672 247 672 q 528 648 464 672 q 610 608 592 624 q 640 578 629 592 l 593 481 q 396 561 513 561 q 244 498 306 561 q 182 333 182 435 q 242 164 182 229 q 397 99 301 99 q 504 119 454 99 q 575 161 554 140 l 597 182 z "},"Ċ":{"ha":924,"x_min":51,"x_max":892,"o":"m 833 224 l 892 125 q 542 -17 765 -17 q 190 120 329 -17 q 51 478 51 257 q 192 835 51 699 q 542 972 332 972 q 882 846 753 972 l 825 738 q 715 817 792 781 q 547 854 638 854 q 290 751 390 854 q 190 481 190 647 q 291 210 190 314 q 547 107 392 107 q 833 224 726 107 m 575 1156 q 553 1103 575 1125 q 500 1082 532 1082 q 448 1103 469 1082 q 426 1156 426 1125 q 447 1208 426 1188 q 500 1229 468 1229 q 553 1208 532 1229 q 575 1156 575 1188 z "},"ċ":{"ha":660,"x_min":47,"x_max":644,"o":"m 597 182 l 644 85 q 521 6 588 28 q 381 -15 458 -15 q 145 80 243 -15 q 47 329 47 175 q 147 578 47 483 q 385 672 247 672 q 528 648 464 672 q 610 608 592 624 q 640 578 629 592 l 593 481 q 396 561 513 561 q 244 498 306 561 q 182 333 182 435 q 242 164 182 229 q 397 99 301 99 q 504 119 454 99 q 575 161 554 140 l 597 182 m 433 858 q 412 806 433 828 q 358 785 390 785 q 306 806 328 785 q 285 858 285 828 q 306 911 285 890 q 358 932 326 932 q 412 911 390 932 q 433 858 433 890 z "},"Č":{"ha":924,"x_min":51,"x_max":892,"o":"m 594 1256 l 692 1256 l 565 1054 l 456 1054 l 329 1256 l 426 1256 l 510 1117 l 594 1256 m 833 224 l 892 125 q 542 -17 765 -17 q 190 120 329 -17 q 51 478 51 257 q 192 835 51 699 q 542 972 332 972 q 882 846 753 972 l 825 738 q 715 817 792 781 q 547 854 638 854 q 290 751 390 854 q 190 481 190 647 q 291 210 190 314 q 547 107 392 107 q 833 224 726 107 z "},"č":{"ha":660,"x_min":47,"x_max":644,"o":"m 456 958 l 553 958 l 426 757 l 317 757 l 190 958 l 288 958 l 371 819 l 456 958 m 597 182 l 644 85 q 521 6 588 28 q 381 -15 458 -15 q 145 80 243 -15 q 47 329 47 175 q 147 578 47 483 q 385 672 247 672 q 528 648 464 672 q 610 608 592 624 q 640 578 629 592 l 593 481 q 396 561 513 561 q 244 498 306 561 q 182 333 182 435 q 242 164 182 229 q 397 99 301 99 q 504 119 454 99 q 575 161 554 140 l 597 182 z "},"Ď":{"ha":953,"x_min":106,"x_max":901,"o":"m 514 1256 l 611 1256 l 485 1054 l 375 1054 l 249 1256 l 346 1256 l 429 1117 l 514 1256 m 753 833 q 901 479 901 697 q 753 125 901 261 q 394 0 617 0 l 106 0 l 106 958 l 394 958 q 753 833 617 958 m 764 479 q 650 754 764 646 q 394 843 556 843 l 240 843 l 240 117 l 394 117 q 650 206 556 117 q 764 479 764 314 z "},"ď":{"ha":944,"x_min":47,"x_max":1007,"o":"m 731 958 l 731 0 l 603 0 l 603 106 l 600 106 q 368 -15 519 -15 q 135 83 224 -15 q 47 331 47 181 q 135 576 47 479 q 365 672 222 672 q 596 557 518 672 l 599 557 l 599 958 l 731 958 m 547 165 q 575 198 547 165 q 603 332 603 231 q 547 499 603 433 q 393 564 490 564 q 240 499 296 564 q 183 332 183 433 q 240 165 183 231 q 393 99 296 99 q 547 165 490 99 m 871 958 l 1007 958 l 883 661 l 778 661 l 871 958 z "},"Đ":{"ha":953,"x_min":15,"x_max":901,"o":"m 753 833 q 901 479 901 697 q 753 125 901 261 q 394 0 617 0 l 106 0 l 106 451 l 15 451 l 15 551 l 106 551 l 106 958 l 394 958 q 753 833 617 958 m 764 479 q 650 754 764 646 q 394 843 556 843 l 240 843 l 240 551 l 483 551 l 483 453 l 240 453 l 240 117 l 394 117 q 650 206 556 117 q 764 479 764 314 z "},"đ":{"ha":829,"x_min":47,"x_max":822,"o":"m 822 879 l 822 768 l 731 768 l 731 0 l 603 0 l 603 106 l 600 106 q 368 -15 519 -15 q 135 83 224 -15 q 47 331 47 181 q 135 576 47 479 q 365 672 222 672 q 596 557 518 672 l 599 557 l 599 768 l 333 768 l 333 879 l 599 879 l 599 958 l 731 958 l 731 879 l 822 879 m 547 165 q 575 198 547 165 q 603 332 603 231 q 547 499 603 433 q 393 564 490 564 q 240 499 296 564 q 183 332 183 433 q 240 165 183 231 q 393 99 296 99 q 547 165 490 99 z "},"Ē":{"ha":738,"x_min":106,"x_max":678,"o":"m 678 114 l 678 0 l 106 0 l 106 958 l 667 958 l 667 846 l 240 846 l 240 560 l 643 560 l 643 447 l 240 447 l 240 114 l 678 114 m 576 1196 l 576 1119 l 217 1119 l 217 1196 l 576 1196 z "},"ē":{"ha":735,"x_min":47,"x_max":694,"o":"m 694 357 l 690 299 l 182 299 q 245 145 188 201 q 394 89 303 89 q 444 92 419 89 q 490 102 469 96 q 527 115 510 108 q 560 131 544 122 q 584 146 575 140 q 602 158 593 151 q 613 165 611 165 l 668 89 l 663 83 q 651 73 657 78 q 633 59 644 68 q 608 42 622 50 q 577 26 594 35 q 538 10 560 17 q 493 -3 517 3 q 440 -12 469 -8 q 378 -15 410 -15 q 139 79 231 -15 q 47 331 47 174 q 144 578 47 483 q 382 672 240 672 q 607 584 519 672 q 694 357 694 496 m 183 388 l 568 388 q 517 515 567 454 q 378 576 468 576 q 238 517 288 576 q 183 388 188 458 m 560 899 l 560 822 l 200 822 l 200 899 l 560 899 z "},"Ĕ":{"ha":738,"x_min":106,"x_max":678,"o":"m 678 114 l 678 0 l 106 0 l 106 958 l 667 958 l 667 846 l 240 846 l 240 560 l 643 560 l 643 447 l 240 447 l 240 114 l 678 114 m 543 1240 l 611 1240 q 546 1113 600 1157 q 404 1069 492 1069 q 264 1113 318 1069 q 199 1240 210 1157 l 265 1240 q 404 1150 289 1150 q 543 1240 522 1150 z "},"ĕ":{"ha":735,"x_min":47,"x_max":694,"o":"m 694 357 l 690 299 l 182 299 q 245 145 188 201 q 394 89 303 89 q 444 92 419 89 q 490 102 469 96 q 527 115 510 108 q 560 131 544 122 q 584 146 575 140 q 602 158 593 151 q 613 165 611 165 l 668 89 l 663 83 q 651 73 657 78 q 633 59 644 68 q 608 42 622 50 q 577 26 594 35 q 538 10 560 17 q 493 -3 517 3 q 440 -12 469 -8 q 378 -15 410 -15 q 139 79 231 -15 q 47 331 47 174 q 144 578 47 483 q 382 672 240 672 q 607 584 519 672 q 694 357 694 496 m 183 388 l 568 388 q 517 515 567 454 q 378 576 468 576 q 238 517 288 576 q 183 388 188 458 m 506 943 l 574 943 q 508 816 563 860 q 367 772 454 772 q 226 816 281 772 q 161 943 172 860 l 228 943 q 367 853 251 853 q 506 943 485 853 z "},"Ė":{"ha":738,"x_min":106,"x_max":678,"o":"m 678 114 l 678 0 l 106 0 l 106 958 l 667 958 l 667 846 l 240 846 l 240 560 l 643 560 l 643 447 l 240 447 l 240 114 l 678 114 m 485 1156 q 463 1103 485 1125 q 410 1082 442 1082 q 357 1103 378 1082 q 336 1156 336 1125 q 357 1208 336 1188 q 410 1229 378 1229 q 463 1208 442 1229 q 485 1156 485 1188 z "},"ė":{"ha":735,"x_min":47,"x_max":694,"o":"m 694 357 l 690 299 l 182 299 q 245 145 188 201 q 394 89 303 89 q 444 92 419 89 q 490 102 469 96 q 527 115 510 108 q 560 131 544 122 q 584 146 575 140 q 602 158 593 151 q 613 165 611 165 l 668 89 l 663 83 q 651 73 657 78 q 633 59 644 68 q 608 42 622 50 q 577 26 594 35 q 538 10 560 17 q 493 -3 517 3 q 440 -12 469 -8 q 378 -15 410 -15 q 139 79 231 -15 q 47 331 47 174 q 144 578 47 483 q 382 672 240 672 q 607 584 519 672 q 694 357 694 496 m 183 388 l 568 388 q 517 515 567 454 q 378 576 468 576 q 238 517 288 576 q 183 388 188 458 m 442 858 q 420 806 442 828 q 367 785 399 785 q 315 806 336 785 q 293 858 293 828 q 314 911 293 890 q 367 932 335 932 q 420 911 399 932 q 442 858 442 890 z "},"Ę":{"ha":738,"x_min":106,"x_max":678,"o":"m 657 -186 l 678 -229 q 533 -289 615 -289 q 431 -256 471 -289 q 390 -164 390 -222 q 496 0 390 -76 l 106 0 l 106 958 l 667 958 l 667 846 l 240 846 l 240 560 l 643 560 l 643 447 l 240 447 l 240 114 l 678 114 l 678 0 l 588 0 q 512 -67 544 -25 q 479 -144 479 -108 q 503 -199 479 -181 q 561 -217 526 -217 q 657 -186 606 -217 z "},"ę":{"ha":735,"x_min":47,"x_max":694,"o":"m 654 -157 l 675 -200 q 531 -260 613 -260 q 428 -226 468 -260 q 388 -135 388 -193 q 444 -11 388 -71 q 378 -15 414 -15 q 139 79 231 -15 q 47 331 47 174 q 144 578 47 483 q 382 672 240 672 q 607 584 519 672 q 694 357 694 496 l 690 299 l 182 299 q 245 145 188 201 q 394 89 303 89 q 444 92 419 89 q 490 102 469 96 q 527 115 510 108 q 560 131 544 122 q 584 146 575 140 q 602 158 593 151 q 613 165 611 165 l 668 89 q 585 29 636 57 q 509 -37 542 6 q 476 -115 476 -79 q 500 -169 476 -151 q 558 -187 524 -187 q 654 -157 603 -187 m 183 388 l 568 388 q 517 515 567 454 q 378 576 468 576 q 238 517 288 576 q 183 388 188 458 z "},"Ě":{"ha":738,"x_min":106,"x_max":678,"o":"m 478 1256 l 575 1256 l 449 1054 l 339 1054 l 213 1256 l 310 1256 l 393 1117 l 478 1256 m 678 114 l 678 0 l 106 0 l 106 958 l 667 958 l 667 846 l 240 846 l 240 560 l 643 560 l 643 447 l 240 447 l 240 114 l 678 114 z "},"ě":{"ha":735,"x_min":47,"x_max":694,"o":"m 694 357 l 690 299 l 182 299 q 245 145 188 201 q 394 89 303 89 q 444 92 419 89 q 490 102 469 96 q 527 115 510 108 q 560 131 544 122 q 584 146 575 140 q 602 158 593 151 q 613 165 611 165 l 668 89 l 663 83 q 651 73 657 78 q 633 59 644 68 q 608 42 622 50 q 577 26 594 35 q 538 10 560 17 q 493 -3 517 3 q 440 -12 469 -8 q 378 -15 410 -15 q 139 79 231 -15 q 47 331 47 174 q 144 578 47 483 q 382 672 240 672 q 607 584 519 672 q 694 357 694 496 m 183 388 l 568 388 q 517 515 567 454 q 378 576 468 576 q 238 517 288 576 q 183 388 188 458 m 451 958 l 549 958 l 422 757 l 313 757 l 186 958 l 283 958 l 367 819 l 451 958 z "},"Ĝ":{"ha":1038,"x_min":51,"x_max":947,"o":"m 947 511 l 947 139 q 540 -17 792 -17 q 192 121 332 -17 q 51 479 51 258 q 191 835 51 699 q 539 972 331 972 q 919 813 771 972 q 926 806 924 808 l 835 721 q 539 857 718 857 q 289 755 388 857 q 190 479 190 653 q 292 204 190 307 q 547 101 393 101 q 651 110 603 101 q 728 133 699 119 q 778 158 757 146 q 808 181 800 171 l 817 189 l 817 401 l 558 401 l 558 511 l 947 511 m 574 1256 l 700 1054 l 603 1054 l 518 1193 l 435 1054 l 338 1054 l 464 1256 l 574 1256 z "},"ĝ":{"ha":824,"x_min":47,"x_max":731,"o":"m 731 660 l 731 139 q 658 -146 731 -60 q 364 -272 556 -272 q 69 -174 207 -272 l 132 -81 q 233 -136 164 -108 q 368 -164 301 -164 q 549 -92 492 -164 q 599 93 599 -31 l 599 126 l 596 126 q 365 8 517 8 q 140 99 232 8 q 47 340 47 189 q 140 582 47 492 q 365 672 232 672 q 505 640 446 672 q 596 556 564 607 l 600 556 l 599 660 l 731 660 m 547 180 q 575 211 547 180 q 603 340 603 243 q 547 501 603 438 q 393 565 492 565 q 240 501 296 565 q 183 340 183 438 q 239 180 183 243 q 393 117 294 117 q 547 180 492 117 m 422 958 l 549 757 l 451 757 l 367 896 l 283 757 l 186 757 l 313 958 l 422 958 z "},"Ğ":{"ha":1038,"x_min":51,"x_max":947,"o":"m 947 511 l 947 139 q 540 -17 792 -17 q 192 121 332 -17 q 51 479 51 258 q 191 835 51 699 q 539 972 331 972 q 919 813 771 972 q 926 806 924 808 l 835 721 q 539 857 718 857 q 289 755 388 857 q 190 479 190 653 q 292 204 190 307 q 547 101 393 101 q 651 110 603 101 q 728 133 699 119 q 778 158 757 146 q 808 181 800 171 l 817 189 l 817 401 l 558 401 l 558 511 l 947 511 m 660 1240 l 728 1240 q 663 1113 717 1157 q 521 1069 608 1069 q 381 1113 435 1069 q 315 1240 326 1157 l 382 1240 q 521 1150 406 1150 q 660 1240 639 1150 z "},"ğ":{"ha":824,"x_min":47,"x_max":731,"o":"m 731 660 l 731 139 q 658 -146 731 -60 q 364 -272 556 -272 q 69 -174 207 -272 l 132 -81 q 233 -136 164 -108 q 368 -164 301 -164 q 549 -92 492 -164 q 599 93 599 -31 l 599 126 l 596 126 q 365 8 517 8 q 140 99 232 8 q 47 340 47 189 q 140 582 47 492 q 365 672 232 672 q 505 640 446 672 q 596 556 564 607 l 600 556 l 599 660 l 731 660 m 547 180 q 575 211 547 180 q 603 340 603 243 q 547 501 603 438 q 393 565 492 565 q 240 501 296 565 q 183 340 183 438 q 239 180 183 243 q 393 117 294 117 q 547 180 492 117 m 511 943 l 579 943 q 514 816 568 860 q 372 772 460 772 q 232 816 286 772 q 167 943 178 860 l 233 943 q 372 853 257 853 q 511 943 490 853 z "},"Ġ":{"ha":1038,"x_min":51,"x_max":947,"o":"m 947 511 l 947 139 q 540 -17 792 -17 q 192 121 332 -17 q 51 479 51 258 q 191 835 51 699 q 539 972 331 972 q 919 813 771 972 q 926 806 924 808 l 835 721 q 539 857 718 857 q 289 755 388 857 q 190 479 190 653 q 292 204 190 307 q 547 101 393 101 q 651 110 603 101 q 728 133 699 119 q 778 158 757 146 q 808 181 800 171 l 817 189 l 817 401 l 558 401 l 558 511 l 947 511 m 593 1156 q 572 1103 593 1125 q 518 1082 550 1082 q 465 1103 486 1082 q 444 1156 444 1125 q 465 1208 444 1188 q 518 1229 486 1229 q 572 1208 550 1229 q 593 1156 593 1188 z "},"ġ":{"ha":824,"x_min":47,"x_max":731,"o":"m 731 660 l 731 139 q 658 -146 731 -60 q 364 -272 556 -272 q 69 -174 207 -272 l 132 -81 q 233 -136 164 -108 q 368 -164 301 -164 q 549 -92 492 -164 q 599 93 599 -31 l 599 126 l 596 126 q 365 8 517 8 q 140 99 232 8 q 47 340 47 189 q 140 582 47 492 q 365 672 232 672 q 505 640 446 672 q 596 556 564 607 l 600 556 l 599 660 l 731 660 m 547 180 q 575 211 547 180 q 603 340 603 243 q 547 501 603 438 q 393 565 492 565 q 240 501 296 565 q 183 340 183 438 q 239 180 183 243 q 393 117 294 117 q 547 180 492 117 m 453 858 q 431 806 453 828 q 378 785 410 785 q 326 806 347 785 q 304 858 304 828 q 325 911 304 890 q 378 932 346 932 q 431 911 410 932 q 453 858 453 890 z "},"Ģ":{"ha":1038,"x_min":51,"x_max":947,"o":"m 947 511 l 947 139 q 540 -17 792 -17 q 192 121 332 -17 q 51 479 51 258 q 191 835 51 699 q 539 972 331 972 q 919 813 771 972 q 926 806 924 808 l 835 721 q 539 857 718 857 q 289 755 388 857 q 190 479 190 653 q 292 204 190 307 q 547 101 393 101 q 651 110 603 101 q 728 133 699 119 q 778 158 757 146 q 808 181 800 171 l 817 189 l 817 401 l 558 401 l 558 511 l 947 511 m 489 -69 l 625 -69 l 538 -264 l 439 -264 l 489 -69 z "},"ģ":{"ha":824,"x_min":47,"x_max":731,"o":"m 731 660 l 731 139 q 658 -146 731 -60 q 364 -272 556 -272 q 69 -174 207 -272 l 132 -81 q 233 -136 164 -108 q 368 -164 301 -164 q 549 -92 492 -164 q 599 93 599 -31 l 599 126 l 596 126 q 365 8 517 8 q 140 99 232 8 q 47 340 47 189 q 140 582 47 492 q 365 672 232 672 q 505 640 446 672 q 596 556 564 607 l 600 556 l 599 660 l 731 660 m 547 180 q 575 211 547 180 q 603 340 603 243 q 547 501 603 438 q 393 565 492 565 q 240 501 296 565 q 183 340 183 438 q 239 180 183 243 q 393 117 294 117 q 547 180 492 117 m 429 793 l 293 793 l 381 988 l 479 988 l 429 793 z "},"Ĥ":{"ha":992,"x_min":106,"x_max":885,"o":"m 550 1256 l 676 1054 l 579 1054 l 494 1193 l 411 1054 l 314 1054 l 440 1256 l 550 1256 m 885 958 l 885 0 l 750 0 l 750 447 l 240 447 l 240 0 l 106 0 l 106 958 l 240 958 l 240 563 l 750 563 l 750 958 l 885 958 z "},"ĥ":{"ha":761,"x_min":-15,"x_max":672,"o":"m 221 1243 l 347 1042 l 250 1042 l 165 1181 l 82 1042 l -15 1042 l 111 1243 l 221 1243 m 672 393 l 672 0 l 539 0 l 539 374 q 534 444 539 414 q 516 503 529 474 q 474 547 503 532 q 403 563 446 563 q 274 497 317 563 q 231 326 231 432 l 231 0 l 99 0 l 99 958 l 231 958 l 231 556 l 233 556 q 314 640 261 607 q 436 672 367 672 q 621 599 569 672 q 672 393 672 525 z "},"Ħ":{"ha":992,"x_min":7,"x_max":985,"o":"m 985 833 l 985 729 l 885 729 l 885 0 l 750 0 l 750 447 l 240 447 l 240 0 l 106 0 l 106 729 l 7 729 l 7 833 l 106 833 l 106 958 l 240 958 l 240 833 l 750 833 l 750 958 l 885 958 l 885 833 l 985 833 m 240 563 l 750 563 l 750 729 l 240 729 l 240 563 z "},"ħ":{"ha":761,"x_min":7,"x_max":672,"o":"m 672 393 l 672 0 l 539 0 l 539 374 q 534 444 539 414 q 516 503 529 474 q 474 547 503 532 q 403 563 446 563 q 274 497 317 563 q 231 326 231 432 l 231 0 l 99 0 l 99 768 l 7 768 l 7 879 l 99 879 l 99 958 l 231 958 l 231 879 l 496 879 l 496 768 l 231 768 l 231 556 l 233 556 q 314 640 261 607 q 436 672 367 672 q 621 599 569 672 q 672 393 672 525 z "},"Ĩ":{"ha":346,"x_min":-44,"x_max":390,"o":"m 325 1226 l 390 1213 q 349 1121 386 1157 q 263 1085 311 1085 q 164 1115 219 1085 q 149 1124 163 1117 q 128 1136 136 1132 q 107 1145 121 1140 q 82 1150 93 1150 q 42 1133 58 1150 q 21 1090 25 1115 l -44 1104 q -3 1197 -40 1160 q 83 1233 35 1233 q 119 1229 101 1233 q 145 1221 136 1225 q 167 1210 154 1217 q 182 1201 181 1203 q 201 1190 183 1201 q 233 1174 218 1179 q 264 1168 249 1168 q 325 1226 311 1168 m 240 958 l 240 0 l 106 0 l 106 958 l 240 958 z "},"ĩ":{"ha":328,"x_min":-53,"x_max":382,"o":"m 317 929 l 382 915 q 340 824 378 860 q 254 788 303 788 q 156 818 211 788 q 141 827 154 819 q 120 839 128 835 q 99 848 113 843 q 74 853 85 853 q 33 835 50 853 q 13 793 17 818 l -53 807 q -11 899 -49 863 q 75 936 26 936 q 110 932 93 936 q 137 924 128 928 q 159 913 146 919 q 174 904 172 906 q 192 893 175 904 q 225 876 210 882 q 256 871 240 871 q 317 929 303 871 m 231 660 l 231 0 l 97 0 l 97 660 l 231 660 z "},"Ī":{"ha":346,"x_min":-7,"x_max":353,"o":"m 240 958 l 240 0 l 106 0 l 106 958 l 240 958 m 353 1196 l 353 1119 l -7 1119 l -7 1196 l 353 1196 z "},"ī":{"ha":328,"x_min":-15,"x_max":344,"o":"m 231 660 l 231 0 l 97 0 l 97 660 l 231 660 m 344 899 l 344 822 l -15 822 l -15 899 l 344 899 z "},"Ĭ":{"ha":346,"x_min":-33,"x_max":379,"o":"m 311 1240 l 379 1240 q 314 1113 368 1157 q 172 1069 260 1069 q 32 1113 86 1069 q -33 1240 -22 1157 l 33 1240 q 172 1150 57 1150 q 311 1240 290 1150 m 240 958 l 240 0 l 106 0 l 106 958 l 240 958 z "},"ĭ":{"ha":328,"x_min":-42,"x_max":371,"o":"m 303 943 l 371 943 q 306 816 360 860 q 164 772 251 772 q 24 816 78 772 q -42 943 -31 860 l 25 943 q 164 853 49 853 q 303 943 282 853 m 231 660 l 231 0 l 97 0 l 97 660 l 231 660 z "},"Į":{"ha":346,"x_min":0,"x_max":288,"o":"m 267 -186 l 288 -229 q 143 -289 225 -289 q 40 -256 81 -289 q 0 -164 0 -222 q 106 0 0 -76 l 106 958 l 240 958 l 240 0 q 126 -65 163 -26 q 89 -144 89 -104 q 113 -199 89 -181 q 171 -217 136 -217 q 267 -186 215 -217 z "},"į":{"ha":328,"x_min":-8,"x_max":279,"o":"m 258 -186 l 279 -229 q 135 -289 217 -289 q 32 -256 72 -289 q -8 -164 -8 -222 q 97 0 -8 -76 l 97 660 l 231 660 l 231 0 q 120 -60 160 -17 q 81 -144 81 -103 q 104 -199 81 -181 q 163 -217 128 -217 q 258 -186 207 -217 m 226 935 q 238 924 226 935 q 250 876 250 913 q 226 817 250 840 q 164 794 201 794 q 101 817 125 794 q 76 876 76 840 q 101 935 76 913 q 164 958 125 958 q 226 935 201 958 z "},"İ":{"ha":346,"x_min":99,"x_max":247,"o":"m 240 958 l 240 0 l 106 0 l 106 958 l 240 958 m 247 1156 q 226 1103 247 1125 q 172 1082 204 1082 q 120 1103 142 1082 q 99 1156 99 1125 q 119 1208 99 1188 q 172 1229 140 1229 q 226 1208 204 1229 q 247 1156 247 1188 z "},"ı":{"ha":328,"x_min":97,"x_max":231,"o":"m 231 660 l 231 0 l 97 0 l 97 660 l 231 660 z "},"Ĳ":{"ha":692,"x_min":106,"x_max":586,"o":"m 586 958 l 586 3 q 543 -200 586 -133 q 389 -278 486 -278 q 339 -274 364 -278 q 301 -267 314 -271 q 285 -261 288 -262 l 288 -158 q 361 -169 314 -169 q 434 -126 417 -169 q 451 -1 451 -82 l 451 958 l 586 958 m 240 958 l 240 0 l 106 0 l 106 958 l 240 958 z "},"ĳ":{"ha":656,"x_min":76,"x_max":578,"o":"m 553 935 q 566 924 553 935 q 578 876 578 913 q 553 817 578 840 q 492 794 529 794 q 428 817 453 794 q 404 876 404 840 q 428 935 404 913 q 492 958 453 958 q 553 935 529 958 m 558 660 l 558 -1 q 517 -190 558 -132 q 350 -272 456 -272 q 306 -269 326 -272 q 275 -264 285 -267 l 267 -261 l 268 -156 q 331 -165 296 -165 q 407 -123 389 -165 q 425 3 425 -81 l 425 660 l 558 660 m 226 935 q 238 924 226 935 q 250 876 250 913 q 226 817 250 840 q 164 794 201 794 q 101 817 125 794 q 76 876 76 840 q 101 935 76 913 q 164 958 125 958 q 226 935 201 958 m 231 660 l 231 0 l 97 0 l 97 660 l 231 660 z "},"Ĵ":{"ha":346,"x_min":-61,"x_max":354,"o":"m 228 1256 l 354 1054 l 257 1054 l 172 1193 l 89 1054 l -8 1054 l 118 1256 l 228 1256 m 240 958 l 240 3 q 197 -200 240 -133 q 43 -278 140 -278 q -7 -274 18 -278 q -45 -267 -32 -271 q -61 -261 -58 -262 l -58 -158 q 15 -169 -32 -169 q 88 -126 71 -169 q 106 -1 106 -82 l 106 958 l 240 958 z "},"ĵ":{"ha":328,"x_min":-61,"x_max":346,"o":"m 219 958 l 346 757 l 249 757 l 164 896 l 81 757 l -17 757 l 110 958 l 219 958 m 231 660 l 231 -1 q 189 -190 231 -132 q 22 -272 128 -272 q -22 -269 -1 -272 q -53 -264 -43 -267 l -61 -261 l -60 -156 q 3 -165 -32 -165 q 79 -123 61 -165 q 97 3 97 -81 l 97 660 l 231 660 z "},"Ķ":{"ha":804,"x_min":106,"x_max":821,"o":"m 429 581 l 821 0 l 657 0 l 339 481 l 240 381 l 240 0 l 106 0 l 106 958 l 240 958 l 240 550 l 631 958 l 794 958 l 429 581 m 372 -69 l 508 -69 l 421 -264 l 322 -264 l 372 -69 z "},"ķ":{"ha":676,"x_min":99,"x_max":689,"o":"m 397 411 l 689 0 l 533 0 l 307 319 l 231 247 l 231 0 l 99 0 l 99 958 l 231 958 l 231 396 l 500 660 l 656 660 l 397 411 m 319 -69 l 456 -69 l 368 -264 l 269 -264 l 319 -69 z "},"ĸ":{"ha":669,"x_min":92,"x_max":682,"o":"m 390 411 l 682 0 l 526 0 l 300 319 l 224 247 l 224 0 l 92 0 l 92 660 l 224 660 l 224 396 l 493 660 l 649 660 l 390 411 z "},"Ĺ":{"ha":592,"x_min":106,"x_max":578,"o":"m 578 115 l 578 0 l 106 0 l 106 958 l 240 958 l 240 115 l 578 115 m 236 1256 l 367 1256 l 214 1054 l 113 1054 l 236 1256 z "},"ĺ":{"ha":329,"x_min":85,"x_max":339,"o":"m 231 958 l 231 0 l 99 0 l 99 958 l 231 958 m 208 1264 l 339 1264 l 186 1063 l 85 1063 l 208 1264 z "},"Ļ":{"ha":592,"x_min":106,"x_max":578,"o":"m 578 115 l 578 0 l 106 0 l 106 958 l 240 958 l 240 115 l 578 115 m 294 -69 l 431 -69 l 343 -264 l 244 -264 l 294 -69 z "},"ļ":{"ha":329,"x_min":58,"x_max":244,"o":"m 231 958 l 231 0 l 99 0 l 99 958 l 231 958 m 108 -69 l 244 -69 l 157 -264 l 58 -264 l 108 -69 z "},"Ľ":{"ha":592,"x_min":106,"x_max":601,"o":"m 578 115 l 578 0 l 106 0 l 106 958 l 240 958 l 240 115 l 578 115 m 465 958 l 601 958 l 478 661 l 372 661 l 465 958 z "},"ľ":{"ha":444,"x_min":99,"x_max":507,"o":"m 231 958 l 231 0 l 99 0 l 99 958 l 231 958 m 371 958 l 507 958 l 383 661 l 278 661 l 371 958 z "},"Ŀ":{"ha":592,"x_min":106,"x_max":578,"o":"m 578 115 l 578 0 l 106 0 l 106 958 l 240 958 l 240 115 l 578 115 m 530 506 q 543 494 530 506 q 556 443 556 482 q 530 380 556 404 q 464 356 504 356 q 399 380 424 356 q 374 443 374 404 q 399 506 374 482 q 464 529 424 529 q 530 506 504 529 z "},"ŀ":{"ha":565,"x_min":99,"x_max":517,"o":"m 491 464 q 504 452 491 464 q 517 401 517 440 q 491 338 517 363 q 425 314 465 314 q 360 338 385 314 q 335 401 335 363 q 360 464 335 440 q 425 488 385 488 q 491 464 465 488 m 231 958 l 231 0 l 99 0 l 99 958 l 231 958 z "},"Ł":{"ha":592,"x_min":21,"x_max":578,"o":"m 578 115 l 578 0 l 106 0 l 106 356 l 21 290 l 21 403 l 106 468 l 106 958 l 240 958 l 240 563 l 399 686 l 399 572 l 240 450 l 240 115 l 578 115 z "},"ł":{"ha":331,"x_min":17,"x_max":314,"o":"m 314 714 l 314 597 l 232 519 l 232 0 l 99 0 l 99 408 l 17 329 l 17 446 l 99 524 l 99 958 l 232 958 l 232 635 l 314 714 z "},"Ń":{"ha":1028,"x_min":106,"x_max":921,"o":"m 921 958 l 921 0 l 789 0 l 236 764 q 239 510 239 635 l 239 0 l 106 0 l 106 958 l 247 958 l 790 206 q 789 450 789 324 l 789 958 l 921 958 m 563 1256 l 693 1256 l 540 1054 l 439 1054 l 563 1256 z "},"ń":{"ha":751,"x_min":92,"x_max":665,"o":"m 665 390 l 665 0 l 532 0 l 532 368 q 504 513 532 464 q 394 563 476 563 q 266 499 307 563 q 225 332 225 435 l 225 0 l 92 0 l 92 660 l 225 660 l 224 556 l 228 556 q 308 640 256 607 q 429 672 360 672 q 613 597 560 672 q 665 390 665 522 m 372 958 l 503 958 l 350 757 l 249 757 l 372 958 z "},"Ņ":{"ha":1028,"x_min":106,"x_max":921,"o":"m 921 958 l 921 0 l 789 0 l 236 764 q 239 510 239 635 l 239 0 l 106 0 l 106 958 l 247 958 l 790 206 q 789 450 789 324 l 789 958 l 921 958 m 471 -69 l 607 -69 l 519 -264 l 421 -264 l 471 -69 z "},"ņ":{"ha":751,"x_min":92,"x_max":665,"o":"m 665 390 l 665 0 l 532 0 l 532 368 q 504 513 532 464 q 394 563 476 563 q 266 499 307 563 q 225 332 225 435 l 225 0 l 92 0 l 92 660 l 225 660 l 224 556 l 228 556 q 308 640 256 607 q 429 672 360 672 q 613 597 560 672 q 665 390 665 522 m 332 -69 l 468 -69 l 381 -264 l 282 -264 l 332 -69 z "},"Ň":{"ha":1028,"x_min":106,"x_max":921,"o":"m 921 958 l 921 0 l 789 0 l 236 764 q 239 510 239 635 l 239 0 l 106 0 l 106 958 l 247 958 l 790 206 q 789 450 789 324 l 789 958 l 921 958 m 597 1256 l 694 1256 l 568 1054 l 458 1054 l 332 1256 l 429 1256 l 513 1117 l 597 1256 z "},"ň":{"ha":751,"x_min":92,"x_max":665,"o":"m 460 958 l 557 958 l 431 757 l 321 757 l 194 958 l 292 958 l 375 819 l 460 958 m 665 390 l 665 0 l 532 0 l 532 368 q 504 513 532 464 q 394 563 476 563 q 266 499 307 563 q 225 332 225 435 l 225 0 l 92 0 l 92 660 l 225 660 l 224 556 l 228 556 q 308 640 256 607 q 429 672 360 672 q 613 597 560 672 q 665 390 665 522 z "},"Ŋ":{"ha":1028,"x_min":106,"x_max":924,"o":"m 924 958 l 924 3 q 881 -200 924 -133 q 726 -278 824 -278 q 676 -274 701 -278 q 638 -267 651 -271 q 622 -261 625 -262 l 625 -158 q 699 -169 651 -169 q 747 -157 728 -169 q 774 -119 765 -144 q 786 -66 783 -93 q 789 0 789 -39 l 236 764 q 239 510 239 635 l 239 0 l 106 0 l 106 958 l 247 958 l 789 207 l 789 958 l 924 958 z "},"ŋ":{"ha":751,"x_min":92,"x_max":665,"o":"m 665 390 l 665 -1 q 624 -190 665 -132 q 457 -272 563 -272 q 413 -269 433 -272 q 383 -264 392 -267 l 374 -261 l 375 -156 q 438 -165 403 -165 q 514 -123 496 -165 q 532 3 532 -81 l 532 368 q 504 513 532 464 q 394 563 476 563 q 266 499 307 563 q 225 332 225 435 l 225 0 l 92 0 l 92 660 l 225 660 l 224 556 l 228 556 q 308 640 256 607 q 429 672 360 672 q 613 597 560 672 q 665 390 665 522 z "},"Ō":{"ha":1092,"x_min":51,"x_max":1040,"o":"m 897 837 q 969 769 897 837 q 1040 478 1040 701 q 897 119 1040 254 q 546 -17 754 -17 q 194 119 338 -17 q 51 478 51 254 q 194 837 51 701 q 546 972 338 972 q 897 837 754 972 m 800 208 q 851 259 800 208 q 903 481 903 310 q 800 753 903 651 q 546 856 697 856 q 292 753 394 856 q 189 481 189 651 q 292 208 189 311 q 546 106 394 106 q 800 208 697 106 m 725 1196 l 725 1119 l 365 1119 l 365 1196 l 725 1196 z "},"ō":{"ha":793,"x_min":47,"x_max":746,"o":"m 646 576 q 696 527 646 576 q 746 328 746 479 q 646 81 746 176 q 397 -15 546 -15 q 147 81 247 -15 q 47 328 47 176 q 147 576 47 479 q 397 672 247 672 q 646 576 546 672 m 553 165 q 582 199 553 165 q 611 332 611 232 q 553 498 611 432 q 397 564 494 564 q 241 498 300 564 q 182 332 182 432 q 241 165 182 232 q 397 99 300 99 q 553 165 494 99 m 576 899 l 576 822 l 217 822 l 217 899 l 576 899 z "},"Ŏ":{"ha":1092,"x_min":51,"x_max":1040,"o":"m 897 837 q 969 769 897 837 q 1040 478 1040 701 q 897 119 1040 254 q 546 -17 754 -17 q 194 119 338 -17 q 51 478 51 254 q 194 837 51 701 q 546 972 338 972 q 897 837 754 972 m 800 208 q 851 259 800 208 q 903 481 903 310 q 800 753 903 651 q 546 856 697 856 q 292 753 394 856 q 189 481 189 651 q 292 208 189 311 q 546 106 394 106 q 800 208 697 106 m 683 1240 l 751 1240 q 686 1113 740 1157 q 544 1069 632 1069 q 404 1113 458 1069 q 339 1240 350 1157 l 406 1240 q 544 1150 429 1150 q 683 1240 663 1150 z "},"ŏ":{"ha":793,"x_min":47,"x_max":746,"o":"m 646 576 q 696 527 646 576 q 746 328 746 479 q 646 81 746 176 q 397 -15 546 -15 q 147 81 247 -15 q 47 328 47 176 q 147 576 47 479 q 397 672 247 672 q 646 576 546 672 m 553 165 q 582 199 553 165 q 611 332 611 232 q 553 498 611 432 q 397 564 494 564 q 241 498 300 564 q 182 332 182 432 q 241 165 182 232 q 397 99 300 99 q 553 165 494 99 m 535 943 l 603 943 q 538 816 592 860 q 396 772 483 772 q 256 816 310 772 q 190 943 201 860 l 257 943 q 396 853 281 853 q 535 943 514 853 z "},"Ő":{"ha":1092,"x_min":51,"x_max":1040,"o":"m 897 837 q 969 769 897 837 q 1040 478 1040 701 q 897 119 1040 254 q 546 -17 754 -17 q 194 119 338 -17 q 51 478 51 254 q 194 837 51 701 q 546 972 338 972 q 897 837 754 972 m 800 208 q 851 259 800 208 q 903 481 903 310 q 800 753 903 651 q 546 856 697 856 q 292 753 394 856 q 189 481 189 651 q 292 208 189 311 q 546 106 394 106 q 800 208 697 106 m 701 1256 l 829 1256 l 675 1054 l 576 1054 l 701 1256 m 510 1256 l 639 1256 l 485 1054 l 385 1054 l 510 1256 z "},"ő":{"ha":793,"x_min":47,"x_max":746,"o":"m 646 576 q 696 527 646 576 q 746 328 746 479 q 646 81 746 176 q 397 -15 546 -15 q 147 81 247 -15 q 47 328 47 176 q 147 576 47 479 q 397 672 247 672 q 646 576 546 672 m 553 165 q 582 199 553 165 q 611 332 611 232 q 553 498 611 432 q 397 564 494 564 q 241 498 300 564 q 182 332 182 432 q 241 165 182 232 q 397 99 300 99 q 553 165 494 99 m 529 958 l 657 958 l 503 757 l 404 757 l 529 958 m 338 958 l 467 958 l 313 757 l 213 757 l 338 958 z "},"Œ":{"ha":1378,"x_min":51,"x_max":1318,"o":"m 1318 114 l 1318 0 l 793 0 l 793 51 q 540 -17 690 -17 q 193 119 335 -17 q 51 478 51 254 q 193 837 51 701 q 540 972 335 972 q 792 907 683 972 l 792 958 l 1307 958 l 1307 846 l 921 846 l 921 560 l 1283 560 l 1283 447 l 921 447 l 921 114 l 1318 114 m 786 190 l 786 771 q 540 856 689 856 q 290 753 392 856 q 189 481 189 651 q 291 208 189 311 q 540 106 393 106 q 786 190 689 106 z "},"œ":{"ha":1293,"x_min":47,"x_max":1251,"o":"m 1251 357 l 1249 299 l 739 299 q 801 145 744 201 q 951 89 858 89 q 1010 94 981 89 q 1060 107 1039 100 q 1102 124 1081 114 q 1134 141 1124 135 q 1157 156 1144 147 l 1169 165 l 1225 89 l 1219 83 q 1208 72 1214 78 q 1190 58 1201 67 q 1166 42 1179 50 q 1135 26 1153 35 q 1097 10 1118 17 q 1051 -3 1075 3 q 998 -12 1028 -8 q 936 -15 968 -15 q 672 131 756 -15 q 397 -15 585 -15 q 147 81 247 -15 q 47 328 47 176 q 147 576 47 479 q 397 672 247 672 q 561 633 490 672 q 674 525 632 593 q 940 672 765 672 q 1165 584 1078 672 q 1251 357 1251 496 m 742 388 l 1125 388 q 1075 515 1124 454 q 936 576 1026 576 q 794 517 844 576 q 742 388 744 457 m 553 165 q 582 199 553 165 q 611 332 611 232 q 553 498 611 432 q 397 564 494 564 q 241 498 300 564 q 182 332 182 432 q 241 165 182 232 q 397 99 300 99 q 553 165 494 99 z "},"Ŕ":{"ha":750,"x_min":106,"x_max":756,"o":"m 482 426 l 756 0 l 593 0 l 343 413 l 240 413 l 240 0 l 106 0 l 106 958 l 376 958 q 607 892 522 958 q 700 689 700 817 q 635 508 700 574 q 482 426 571 443 m 561 686 q 500 814 561 771 q 339 849 453 849 l 240 849 l 240 524 l 339 524 q 500 557 453 524 q 561 686 561 603 m 399 1256 l 529 1256 l 376 1054 l 275 1054 l 399 1256 z "},"ŕ":{"ha":465,"x_min":92,"x_max":460,"o":"m 460 661 l 451 538 l 446 538 q 374 551 414 551 q 265 496 308 551 q 225 329 225 438 l 225 0 l 92 0 l 92 660 l 225 660 l 224 558 l 228 558 q 390 672 276 672 q 427 669 410 672 q 453 664 444 667 l 460 661 m 285 958 l 415 958 l 263 757 l 161 757 l 285 958 z "},"Ŗ":{"ha":750,"x_min":106,"x_max":756,"o":"m 482 426 l 756 0 l 593 0 l 343 413 l 240 413 l 240 0 l 106 0 l 106 958 l 376 958 q 607 892 522 958 q 700 689 700 817 q 635 508 700 574 q 482 426 571 443 m 561 686 q 500 814 561 771 q 339 849 453 849 l 240 849 l 240 524 l 339 524 q 500 557 453 524 q 561 686 561 603 m 344 -69 l 481 -69 l 393 -264 l 294 -264 l 344 -69 z "},"ŗ":{"ha":465,"x_min":69,"x_max":460,"o":"m 460 661 l 451 538 l 446 538 q 374 551 414 551 q 265 496 308 551 q 225 329 225 438 l 225 0 l 92 0 l 92 660 l 225 660 l 224 558 l 228 558 q 390 672 276 672 q 427 669 410 672 q 453 664 444 667 l 460 661 m 119 -69 l 256 -69 l 168 -264 l 69 -264 l 119 -69 z "},"Ř":{"ha":750,"x_min":106,"x_max":756,"o":"m 482 426 l 756 0 l 593 0 l 343 413 l 240 413 l 240 0 l 106 0 l 106 958 l 376 958 q 607 892 522 958 q 700 689 700 817 q 635 508 700 574 q 482 426 571 443 m 561 686 q 500 814 561 771 q 339 849 453 849 l 240 849 l 240 524 l 339 524 q 500 557 453 524 q 561 686 561 603 m 444 1256 l 542 1256 l 415 1054 l 306 1054 l 179 1256 l 276 1256 l 360 1117 l 444 1256 z "},"ř":{"ha":465,"x_min":79,"x_max":460,"o":"m 344 958 l 442 958 l 315 757 l 206 757 l 79 958 l 176 958 l 260 819 l 344 958 m 460 661 l 451 538 l 446 538 q 374 551 414 551 q 265 496 308 551 q 225 329 225 438 l 225 0 l 92 0 l 92 660 l 225 660 l 224 558 l 228 558 q 390 672 276 672 q 427 669 410 672 q 453 664 444 667 l 460 661 z "},"Ś":{"ha":742,"x_min":47,"x_max":692,"o":"m 692 267 q 592 58 692 140 q 357 -17 500 -17 q 247 -1 299 -17 q 154 45 194 15 q 93 95 114 75 q 47 144 72 115 l 126 235 q 233 138 168 179 q 369 97 297 97 q 503 141 450 97 q 557 258 557 185 q 542 321 557 293 q 495 369 526 349 q 449 397 464 389 q 401 417 433 404 q 249 481 289 461 q 153 549 190 507 q 90 715 90 614 q 178 900 90 826 q 399 971 263 971 q 674 847 556 971 l 603 756 q 392 858 506 858 q 272 824 318 858 q 225 725 225 789 q 235 669 225 693 q 266 627 246 644 q 304 600 286 610 q 349 579 322 590 l 525 506 q 633 428 594 474 q 692 267 692 356 m 367 1256 l 497 1256 l 344 1054 l 243 1054 l 367 1256 z "},"ś":{"ha":575,"x_min":28,"x_max":536,"o":"m 536 193 q 468 43 536 100 q 285 -15 397 -15 q 28 103 118 -15 l 92 181 q 183 111 128 136 q 286 86 238 86 q 376 108 339 86 q 413 181 413 131 q 404 213 413 197 q 385 238 396 228 q 354 257 374 247 q 323 271 335 267 q 290 282 311 275 q 264 290 268 289 q 174 325 192 315 q 69 483 69 378 q 134 622 69 571 q 292 672 199 672 q 517 586 436 672 l 461 504 q 294 575 393 575 q 217 554 246 575 q 189 493 189 533 q 222 435 189 457 q 318 394 256 414 q 407 363 385 371 q 483 315 457 342 q 536 193 536 265 m 283 958 l 414 958 l 261 757 l 160 757 l 283 958 z "},"Ŝ":{"ha":742,"x_min":47,"x_max":692,"o":"m 692 267 q 592 58 692 140 q 357 -17 500 -17 q 247 -1 299 -17 q 154 45 194 15 q 93 95 114 75 q 47 144 72 115 l 126 235 q 233 138 168 179 q 369 97 297 97 q 503 141 450 97 q 557 258 557 185 q 542 321 557 293 q 495 369 526 349 q 449 397 464 389 q 401 417 433 404 q 249 481 289 461 q 153 549 190 507 q 90 715 90 614 q 178 900 90 826 q 399 971 263 971 q 674 847 556 971 l 603 756 q 392 858 506 858 q 272 824 318 858 q 225 725 225 789 q 235 669 225 693 q 266 627 246 644 q 304 600 286 610 q 349 579 322 590 l 525 506 q 633 428 594 474 q 692 267 692 356 m 425 1256 l 551 1054 l 454 1054 l 369 1193 l 286 1054 l 189 1054 l 315 1256 l 425 1256 z "},"ŝ":{"ha":575,"x_min":28,"x_max":536,"o":"m 536 193 q 468 43 536 100 q 285 -15 397 -15 q 28 103 118 -15 l 92 181 q 183 111 128 136 q 286 86 238 86 q 376 108 339 86 q 413 181 413 131 q 404 213 413 197 q 385 238 396 228 q 354 257 374 247 q 323 271 335 267 q 290 282 311 275 q 264 290 268 289 q 174 325 192 315 q 69 483 69 378 q 134 622 69 571 q 292 672 199 672 q 517 586 436 672 l 461 504 q 294 575 393 575 q 217 554 246 575 q 189 493 189 533 q 222 435 189 457 q 318 394 256 414 q 407 363 385 371 q 483 315 457 342 q 536 193 536 265 m 342 958 l 468 757 l 371 757 l 286 896 l 203 757 l 106 757 l 232 958 l 342 958 z "},"Ş":{"ha":742,"x_min":47,"x_max":692,"o":"m 692 267 q 592 58 692 140 q 450 -7 533 10 l 342 -203 l 221 -203 l 349 -17 q 47 144 179 -12 l 126 235 q 233 138 168 179 q 369 97 297 97 q 503 141 450 97 q 557 258 557 185 q 542 321 557 293 q 495 369 526 349 q 449 397 464 389 q 401 417 433 404 q 249 481 289 461 q 153 549 190 507 q 90 715 90 614 q 178 900 90 826 q 399 971 263 971 q 674 847 556 971 l 603 756 q 392 858 506 858 q 272 824 318 858 q 225 725 225 789 q 235 669 225 693 q 266 627 246 644 q 304 600 286 610 q 349 579 322 590 l 525 506 q 633 428 594 474 q 692 267 692 356 z "},"ş":{"ha":575,"x_min":28,"x_max":536,"o":"m 536 193 q 468 43 536 100 q 372 -4 431 11 l 263 -203 l 142 -203 l 271 -15 q 28 103 113 -8 l 92 181 q 183 111 128 136 q 286 86 238 86 q 376 108 339 86 q 413 181 413 131 q 404 213 413 197 q 385 238 396 228 q 354 257 374 247 q 323 271 335 267 q 290 282 311 275 q 264 290 268 289 q 174 325 192 315 q 69 483 69 378 q 134 622 69 571 q 292 672 199 672 q 517 586 436 672 l 461 504 q 294 575 393 575 q 217 554 246 575 q 189 493 189 533 q 222 435 189 457 q 318 394 256 414 q 407 363 385 371 q 483 315 457 342 q 536 193 536 265 z "},"Š":{"ha":742,"x_min":47,"x_max":692,"o":"m 692 267 q 592 58 692 140 q 357 -17 500 -17 q 247 -1 299 -17 q 154 45 194 15 q 93 95 114 75 q 47 144 72 115 l 126 235 q 233 138 168 179 q 369 97 297 97 q 503 141 450 97 q 557 258 557 185 q 542 321 557 293 q 495 369 526 349 q 449 397 464 389 q 401 417 433 404 q 249 481 289 461 q 153 549 190 507 q 90 715 90 614 q 178 900 90 826 q 399 971 263 971 q 674 847 556 971 l 603 756 q 392 858 506 858 q 272 824 318 858 q 225 725 225 789 q 235 669 225 693 q 266 627 246 644 q 304 600 286 610 q 349 579 322 590 l 525 506 q 633 428 594 474 q 692 267 692 356 m 481 1232 l 578 1232 l 451 1031 l 342 1031 l 215 1232 l 313 1232 l 397 1093 l 481 1232 z "},"š":{"ha":575,"x_min":28,"x_max":536,"o":"m 374 958 l 471 958 l 344 757 l 235 757 l 108 958 l 206 958 l 290 819 l 374 958 m 536 193 q 468 43 536 100 q 285 -15 397 -15 q 28 103 118 -15 l 92 181 q 183 111 128 136 q 286 86 238 86 q 376 108 339 86 q 413 181 413 131 q 404 213 413 197 q 385 238 396 228 q 354 257 374 247 q 323 271 335 267 q 290 282 311 275 q 264 290 268 289 q 174 325 192 315 q 69 483 69 378 q 134 622 69 571 q 292 672 199 672 q 517 586 436 672 l 461 504 q 294 575 393 575 q 217 554 246 575 q 189 493 189 533 q 222 435 189 457 q 318 394 256 414 q 407 363 385 371 q 483 315 457 342 q 536 193 536 265 z "},"Ţ":{"ha":696,"x_min":10,"x_max":685,"o":"m 685 958 l 685 846 l 415 846 l 415 0 l 281 0 l 281 846 l 10 846 l 10 958 l 685 958 m 304 -69 l 440 -69 l 353 -264 l 254 -264 l 304 -69 z "},"ţ":{"ha":432,"x_min":21,"x_max":413,"o":"m 404 114 l 413 7 q 292 -15 361 -15 q 151 53 197 -15 q 118 250 118 103 l 118 551 l 21 551 l 21 658 l 118 658 l 118 856 l 251 856 l 251 658 l 410 658 l 410 551 l 251 551 l 251 253 q 268 132 251 163 q 336 99 288 99 q 370 102 353 99 q 396 110 388 106 l 404 114 m 196 -69 l 332 -69 l 244 -264 l 146 -264 l 196 -69 z "},"Ť":{"ha":696,"x_min":10,"x_max":685,"o":"m 432 1256 l 529 1256 l 403 1054 l 293 1054 l 167 1256 l 264 1256 l 347 1117 l 432 1256 m 685 958 l 685 846 l 415 846 l 415 0 l 281 0 l 281 846 l 10 846 l 10 958 l 685 958 z "},"ť":{"ha":432,"x_min":21,"x_max":558,"o":"m 404 114 l 413 7 q 292 -15 361 -15 q 151 53 197 -15 q 118 250 118 103 l 118 551 l 21 551 l 21 658 l 118 658 l 118 856 l 251 856 l 251 658 l 410 658 l 410 551 l 251 551 l 251 253 q 268 132 251 163 q 336 99 288 99 q 370 102 353 99 q 396 110 388 106 l 404 114 m 422 1031 l 558 1031 l 435 733 l 329 733 l 422 1031 z "},"Ŧ":{"ha":696,"x_min":10,"x_max":685,"o":"m 685 958 l 685 846 l 415 846 l 415 593 l 542 593 l 542 489 l 415 489 l 415 0 l 281 0 l 281 489 l 154 489 l 154 593 l 281 593 l 281 846 l 10 846 l 10 958 l 685 958 z "},"ŧ":{"ha":432,"x_min":21,"x_max":413,"o":"m 382 450 l 382 339 l 251 339 l 251 253 q 268 132 251 163 q 336 99 288 99 q 370 102 353 99 q 396 110 388 106 l 404 114 l 413 7 q 292 -15 361 -15 q 151 53 197 -15 q 118 250 118 103 l 118 339 l 46 339 l 46 450 l 118 450 l 118 551 l 21 551 l 21 658 l 118 658 l 118 856 l 251 856 l 251 658 l 410 658 l 410 551 l 251 551 l 251 450 l 382 450 z "},"Ũ":{"ha":926,"x_min":99,"x_max":828,"o":"m 615 1226 l 681 1213 q 639 1121 676 1157 q 553 1085 601 1085 q 454 1115 510 1085 q 440 1124 453 1117 q 419 1136 426 1132 q 397 1145 411 1140 q 372 1150 383 1150 q 332 1133 349 1150 q 311 1090 315 1115 l 246 1104 q 288 1197 250 1160 q 374 1233 325 1233 q 409 1229 392 1233 q 435 1221 426 1225 q 458 1210 444 1217 q 472 1201 471 1203 q 491 1190 474 1201 q 524 1174 508 1179 q 554 1168 539 1168 q 615 1226 601 1168 m 828 958 l 828 392 q 813 222 828 290 q 751 100 797 154 q 464 -17 650 -17 q 176 100 276 -17 q 115 222 131 154 q 99 392 99 290 l 99 958 l 235 958 l 235 404 q 237 323 235 353 q 249 254 239 293 q 279 189 258 215 q 464 104 342 104 q 649 189 583 104 q 679 254 669 215 q 691 324 689 293 q 693 404 693 354 l 693 958 l 828 958 z "},"ũ":{"ha":744,"x_min":86,"x_max":653,"o":"m 524 929 l 589 915 q 547 824 585 860 q 461 788 510 788 q 363 818 418 788 q 348 827 361 819 q 327 839 335 835 q 306 848 319 843 q 281 853 292 853 q 240 835 257 853 q 219 793 224 818 l 154 807 q 196 899 158 863 q 282 936 233 936 q 317 932 300 936 q 344 924 335 928 q 366 913 353 919 q 381 904 379 906 q 399 893 382 904 q 432 876 417 882 q 463 871 447 871 q 524 929 510 871 m 653 661 l 653 0 l 524 0 l 522 94 q 440 15 494 44 q 318 -15 386 -15 q 135 61 194 -15 q 86 265 86 126 l 86 661 l 218 661 l 218 271 q 247 143 218 190 q 356 96 275 96 q 478 156 438 96 q 519 307 519 217 l 519 661 l 653 661 z "},"Ū":{"ha":926,"x_min":99,"x_max":828,"o":"m 828 958 l 828 392 q 813 222 828 290 q 751 100 797 154 q 464 -17 650 -17 q 176 100 276 -17 q 115 222 131 154 q 99 392 99 290 l 99 958 l 235 958 l 235 404 q 237 323 235 353 q 249 254 239 293 q 279 189 258 215 q 464 104 342 104 q 649 189 583 104 q 679 254 669 215 q 691 324 689 293 q 693 404 693 354 l 693 958 l 828 958 m 643 1196 l 643 1119 l 283 1119 l 283 1196 l 643 1196 z "},"ū":{"ha":744,"x_min":86,"x_max":653,"o":"m 653 661 l 653 0 l 524 0 l 522 94 q 440 15 494 44 q 318 -15 386 -15 q 135 61 194 -15 q 86 265 86 126 l 86 661 l 218 661 l 218 271 q 247 143 218 190 q 356 96 275 96 q 478 156 438 96 q 519 307 519 217 l 519 661 l 653 661 m 551 899 l 551 822 l 192 822 l 192 899 l 551 899 z "},"Ŭ":{"ha":926,"x_min":99,"x_max":828,"o":"m 828 958 l 828 392 q 813 222 828 290 q 751 100 797 154 q 464 -17 650 -17 q 176 100 276 -17 q 115 222 131 154 q 99 392 99 290 l 99 958 l 235 958 l 235 404 q 237 323 235 353 q 249 254 239 293 q 279 189 258 215 q 464 104 342 104 q 649 189 583 104 q 679 254 669 215 q 691 324 689 293 q 693 404 693 354 l 693 958 l 828 958 m 601 1240 l 669 1240 q 604 1113 658 1157 q 463 1069 550 1069 q 322 1113 376 1069 q 257 1240 268 1157 l 324 1240 q 463 1150 347 1150 q 601 1240 581 1150 z "},"ŭ":{"ha":744,"x_min":86,"x_max":653,"o":"m 653 661 l 653 0 l 524 0 l 522 94 q 440 15 494 44 q 318 -15 386 -15 q 135 61 194 -15 q 86 265 86 126 l 86 661 l 218 661 l 218 271 q 247 143 218 190 q 356 96 275 96 q 478 156 438 96 q 519 307 519 217 l 519 661 l 653 661 m 510 943 l 578 943 q 513 816 567 860 q 371 772 458 772 q 231 816 285 772 q 165 943 176 860 l 232 943 q 371 853 256 853 q 510 943 489 853 z "},"Ů":{"ha":926,"x_min":99,"x_max":828,"o":"m 828 958 l 828 392 q 813 222 828 290 q 751 100 797 154 q 464 -17 650 -17 q 176 100 276 -17 q 115 222 131 154 q 99 392 99 290 l 99 958 l 235 958 l 235 404 q 237 323 235 353 q 249 254 239 293 q 279 189 258 215 q 464 104 342 104 q 649 189 583 104 q 679 254 669 215 q 691 324 689 293 q 693 404 693 354 l 693 958 l 828 958 m 561 1276 q 581 1258 561 1276 q 601 1182 601 1239 q 561 1088 601 1125 q 463 1050 521 1050 q 364 1088 404 1050 q 324 1182 324 1125 q 364 1276 324 1239 q 463 1314 404 1314 q 561 1276 521 1314 m 514 1129 q 524 1140 514 1129 q 535 1182 535 1150 q 515 1234 535 1214 q 463 1254 494 1254 q 412 1234 432 1254 q 392 1182 392 1214 q 412 1129 392 1150 q 463 1108 432 1108 q 514 1129 493 1108 z "},"ů":{"ha":744,"x_min":86,"x_max":653,"o":"m 653 661 l 653 0 l 524 0 l 522 94 q 440 15 494 44 q 318 -15 386 -15 q 135 61 194 -15 q 86 265 86 126 l 86 661 l 218 661 l 218 271 q 247 143 218 190 q 356 96 275 96 q 478 156 438 96 q 519 307 519 217 l 519 661 l 653 661 m 471 979 q 491 960 471 979 q 511 885 511 942 q 471 790 511 828 q 372 753 431 753 q 274 790 314 753 q 233 885 233 828 q 274 979 233 942 q 372 1017 314 1017 q 471 979 431 1017 m 424 832 q 434 842 424 832 q 444 885 444 853 q 424 937 444 917 q 372 957 403 957 q 322 937 342 957 q 301 885 301 917 q 322 832 301 853 q 372 811 342 811 q 424 832 403 811 z "},"Ű":{"ha":926,"x_min":99,"x_max":828,"o":"m 828 958 l 828 392 q 813 222 828 290 q 751 100 797 154 q 464 -17 650 -17 q 176 100 276 -17 q 115 222 131 154 q 99 392 99 290 l 99 958 l 235 958 l 235 404 q 237 323 235 353 q 249 254 239 293 q 279 189 258 215 q 464 104 342 104 q 649 189 583 104 q 679 254 669 215 q 691 324 689 293 q 693 404 693 354 l 693 958 l 828 958 m 613 1256 l 740 1256 l 586 1054 l 488 1054 l 613 1256 m 421 1256 l 550 1256 l 396 1054 l 296 1054 l 421 1256 z "},"ű":{"ha":744,"x_min":86,"x_max":653,"o":"m 653 661 l 653 0 l 524 0 l 522 94 q 440 15 494 44 q 318 -15 386 -15 q 135 61 194 -15 q 86 265 86 126 l 86 661 l 218 661 l 218 271 q 247 143 218 190 q 356 96 275 96 q 478 156 438 96 q 519 307 519 217 l 519 661 l 653 661 m 510 958 l 638 958 l 483 757 l 385 757 l 510 958 m 318 958 l 447 958 l 293 757 l 193 757 l 318 958 z "},"Ų":{"ha":926,"x_min":99,"x_max":828,"o":"m 639 -181 l 660 -224 q 515 -283 597 -283 q 413 -250 453 -283 q 372 -158 372 -217 q 450 -17 372 -83 q 176 100 272 -12 q 115 222 131 154 q 99 392 99 290 l 99 958 l 235 958 l 235 404 q 237 323 235 353 q 249 254 239 293 q 279 189 258 215 q 464 104 342 104 q 649 189 583 104 q 679 254 669 215 q 691 324 689 293 q 693 404 693 354 l 693 958 l 828 958 l 828 392 q 813 221 828 289 q 751 100 797 153 q 544 -10 675 11 q 485 -73 508 -37 q 461 -139 461 -108 q 485 -193 461 -175 q 543 -211 508 -211 q 639 -181 588 -211 z "},"ų":{"ha":744,"x_min":86,"x_max":706,"o":"m 685 -186 l 706 -229 q 561 -289 643 -289 q 458 -256 499 -289 q 418 -164 418 -222 q 524 0 418 -76 l 522 94 q 440 15 494 44 q 318 -15 386 -15 q 135 61 194 -15 q 86 265 86 126 l 86 661 l 218 661 l 218 271 q 247 143 218 190 q 356 96 275 96 q 478 156 438 96 q 519 307 519 217 l 519 661 l 653 661 l 653 0 q 546 -60 585 -18 q 507 -144 507 -103 q 531 -199 507 -181 q 589 -217 554 -217 q 685 -186 633 -217 z "},"Ŵ":{"ha":1290,"x_min":7,"x_max":1283,"o":"m 1142 958 l 1283 958 l 1007 -1 l 875 -1 l 644 774 l 415 -1 l 283 -1 l 7 958 l 149 958 l 356 203 l 576 958 l 714 958 l 935 203 l 1142 958 m 700 1256 l 826 1054 l 729 1054 l 644 1193 l 561 1054 l 464 1054 l 590 1256 l 700 1256 z "},"ŵ":{"ha":1057,"x_min":14,"x_max":1043,"o":"m 908 660 l 1043 660 l 825 0 l 703 0 l 529 493 l 354 0 l 232 0 l 14 660 l 149 660 l 301 161 l 475 661 l 582 661 l 756 161 l 908 660 m 583 958 l 710 757 l 613 757 l 528 896 l 444 757 l 347 757 l 474 958 l 583 958 z "},"Ŷ":{"ha":799,"x_min":-1,"x_max":800,"o":"m 454 1256 l 581 1054 l 483 1054 l 399 1193 l 315 1054 l 218 1054 l 344 1256 l 454 1256 m 649 958 l 800 958 l 467 401 l 467 0 l 332 0 l 332 401 l -1 958 l 150 958 l 399 518 l 649 958 z "},"ŷ":{"ha":665,"x_min":1,"x_max":668,"o":"m 531 661 l 668 660 l 350 -115 q 275 -233 317 -199 q 176 -268 233 -268 q 112 -262 143 -268 q 67 -250 81 -256 l 51 -244 l 78 -136 q 147 -151 114 -151 q 169 -150 163 -151 q 189 -142 176 -149 q 213 -119 201 -136 q 233 -74 224 -103 l 265 14 l 1 661 l 140 660 l 336 147 l 531 661 m 388 958 l 514 757 l 417 757 l 332 896 l 249 757 l 151 757 l 278 958 l 388 958 z "},"Ÿ":{"ha":799,"x_min":-1,"x_max":800,"o":"m 558 1190 q 568 1180 558 1190 q 579 1136 579 1169 q 558 1082 579 1103 q 506 1061 536 1061 q 454 1082 475 1061 q 433 1136 433 1103 q 454 1190 433 1169 q 506 1211 475 1211 q 558 1190 536 1211 m 344 1190 q 355 1180 344 1190 q 365 1136 365 1169 q 344 1082 365 1103 q 293 1061 324 1061 q 241 1082 263 1061 q 219 1136 219 1103 q 241 1190 219 1169 q 293 1211 263 1211 q 344 1190 324 1211 m 649 958 l 800 958 l 467 401 l 467 0 l 332 0 l 332 401 l -1 958 l 150 958 l 399 518 l 649 958 z "},"Ź":{"ha":786,"x_min":42,"x_max":751,"o":"m 751 115 l 751 0 l 42 0 l 42 103 l 565 844 l 57 844 l 57 958 l 742 958 l 742 867 l 210 115 l 751 115 m 431 1256 l 561 1256 l 408 1054 l 307 1054 l 431 1256 z "},"ź":{"ha":633,"x_min":29,"x_max":604,"o":"m 604 110 l 604 0 l 29 0 l 29 82 l 415 551 l 49 551 l 49 658 l 585 658 l 585 578 l 200 110 l 604 110 m 353 958 l 483 958 l 331 757 l 229 757 l 353 958 z "},"Ż":{"ha":786,"x_min":42,"x_max":751,"o":"m 751 115 l 751 0 l 42 0 l 42 103 l 565 844 l 57 844 l 57 958 l 742 958 l 742 867 l 210 115 l 751 115 m 481 1156 q 459 1103 481 1125 q 406 1082 438 1082 q 353 1103 375 1082 q 332 1156 332 1125 q 353 1208 332 1188 q 406 1229 374 1229 q 459 1208 438 1229 q 481 1156 481 1188 z "},"ż":{"ha":633,"x_min":29,"x_max":604,"o":"m 604 110 l 604 0 l 29 0 l 29 82 l 415 551 l 49 551 l 49 658 l 585 658 l 585 578 l 200 110 l 604 110 m 390 858 q 369 806 390 828 q 315 785 347 785 q 263 806 283 785 q 242 858 242 828 q 263 911 242 890 q 315 932 283 932 q 369 911 347 932 q 390 858 390 890 z "},"Ž":{"ha":786,"x_min":42,"x_max":751,"o":"m 483 1232 l 581 1232 l 454 1031 l 344 1031 l 218 1232 l 315 1232 l 399 1093 l 483 1232 m 751 115 l 751 0 l 42 0 l 42 103 l 565 844 l 57 844 l 57 958 l 742 958 l 742 867 l 210 115 l 751 115 z "},"ž":{"ha":633,"x_min":29,"x_max":604,"o":"m 401 958 l 499 958 l 371 757 l 263 757 l 135 958 l 232 958 l 317 819 l 401 958 m 604 110 l 604 0 l 29 0 l 29 82 l 415 551 l 49 551 l 49 658 l 585 658 l 585 578 l 200 110 l 604 110 z "},"ƒ":{"ha":814,"x_min":60,"x_max":746,"o":"m 746 954 l 710 857 q 628 881 674 881 q 573 859 594 881 q 544 814 551 838 q 528 746 536 790 l 496 581 l 651 581 l 635 482 l 478 482 l 399 57 q 331 -109 379 -49 q 179 -169 282 -169 q 119 -161 149 -169 q 75 -144 89 -153 l 60 -137 l 99 -37 q 176 -57 128 -57 q 243 -25 218 -57 q 281 86 265 1 l 354 482 l 226 482 l 244 581 l 374 581 l 410 767 q 454 892 426 847 q 519 964 489 946 q 613 990 558 990 q 693 977 654 990 q 746 954 732 964 z "},"Ǽ":{"ha":1221,"x_min":-42,"x_max":1161,"o":"m 1161 114 l 1161 0 l 628 0 l 628 253 l 263 253 l 110 0 l -42 0 l 561 958 l 1150 958 l 1150 846 l 763 846 l 763 565 l 1126 565 l 1126 453 l 763 453 l 763 114 l 1161 114 m 331 364 l 628 364 l 628 849 l 625 849 l 331 364 m 900 1256 l 1031 1256 l 878 1054 l 776 1054 l 900 1256 z "},"ǽ":{"ha":1156,"x_min":36,"x_max":1114,"o":"m 1114 357 l 1111 299 l 601 299 q 665 145 607 201 q 815 89 722 89 q 883 95 850 89 q 941 113 915 101 q 983 134 967 125 q 1017 154 1000 143 l 1033 165 l 1089 89 l 1081 81 q 1061 65 1072 74 q 1033 45 1050 57 q 992 24 1015 33 q 941 5 969 14 q 876 -10 913 -4 q 799 -15 839 -15 q 535 113 633 -15 q 531 118 532 117 q 415 18 475 51 q 265 -15 354 -15 q 101 40 167 -15 q 36 189 36 96 q 106 335 36 283 q 297 390 176 386 l 471 397 l 471 425 q 426 535 471 497 q 307 574 382 574 q 108 517 200 574 l 68 606 q 315 672 185 672 q 507 613 443 672 q 535 582 524 597 q 550 558 547 567 l 554 551 q 803 672 638 672 q 1027 583 940 672 q 1114 357 1114 494 m 604 388 l 988 388 q 938 515 988 454 q 799 576 889 576 q 657 517 707 576 q 604 388 607 457 m 492 190 q 471 317 471 243 l 318 307 q 168 193 168 300 q 204 112 168 144 q 303 79 240 79 q 417 114 364 79 q 492 190 471 149 m 628 958 l 758 958 l 606 757 l 504 757 l 628 958 z "},"Ǿ":{"ha":1092,"x_min":51,"x_max":1040,"o":"m 619 1232 l 749 1232 l 596 1031 l 496 1031 l 619 1232 m 1040 478 q 898 119 1040 254 q 546 -17 756 -17 q 229 89 363 -17 l 121 -22 l 54 44 l 161 154 q 51 478 51 286 q 194 837 51 701 q 546 972 338 972 q 864 868 731 972 l 974 981 l 1040 914 l 931 801 q 1040 478 1040 672 m 257 251 l 775 778 q 546 856 678 856 q 292 753 394 856 q 189 481 189 651 q 257 251 189 346 m 903 481 q 838 708 903 613 l 321 182 q 546 106 419 106 q 800 208 697 106 q 903 481 903 310 z "},"ǿ":{"ha":793,"x_min":38,"x_max":756,"o":"m 446 958 l 575 958 l 422 757 l 322 757 l 446 958 m 696 686 l 756 628 l 674 546 q 746 328 746 456 q 647 80 746 175 q 397 -15 547 -15 q 178 54 271 -15 l 96 -26 l 38 31 l 118 113 q 47 328 47 203 q 147 576 47 479 q 397 672 247 672 q 614 604 519 672 l 696 686 m 213 206 l 529 521 q 397 564 475 564 q 241 498 300 564 q 182 332 182 432 q 213 206 182 263 m 611 332 q 582 456 611 401 l 265 142 q 397 99 319 99 q 553 165 494 99 q 611 332 611 232 z "},"ȷ":{"ha":328,"x_min":-61,"x_max":231,"o":"m 231 660 l 231 -1 q 189 -190 231 -132 q 22 -272 128 -272 q -22 -269 -1 -272 q -53 -264 -43 -267 l -61 -261 l -60 -156 q 3 -165 -32 -165 q 79 -123 61 -165 q 97 3 97 -81 l 97 660 l 231 660 z "},"ˆ":{"ha":465,"x_min":51,"x_max":414,"o":"m 288 958 l 414 757 l 317 757 l 232 896 l 149 757 l 51 757 l 178 958 l 288 958 z "},"ˇ":{"ha":465,"x_min":51,"x_max":414,"o":"m 317 958 l 414 958 l 288 757 l 178 757 l 51 958 l 149 958 l 232 819 l 317 958 z "},"˘":{"ha":465,"x_min":26,"x_max":439,"o":"m 371 943 l 439 943 q 374 816 428 860 q 232 772 319 772 q 92 816 146 772 q 26 943 38 860 l 93 943 q 232 853 117 853 q 371 943 350 853 z "},"˙":{"ha":465,"x_min":158,"x_max":307,"o":"m 307 858 q 285 806 307 828 q 232 785 264 785 q 179 806 200 785 q 158 858 158 828 q 179 911 158 890 q 232 932 200 932 q 285 911 264 932 q 307 858 307 890 z "},"˚":{"ha":465,"x_min":93,"x_max":371,"o":"m 331 979 q 351 960 331 979 q 371 885 371 942 q 331 790 371 828 q 232 753 290 753 q 133 790 174 753 q 93 885 93 828 q 133 979 93 942 q 232 1017 174 1017 q 331 979 290 1017 m 283 832 q 294 842 283 832 q 304 885 304 853 q 284 937 304 917 q 232 957 264 957 q 181 937 201 957 q 161 885 161 917 q 181 832 161 853 q 232 811 201 811 q 283 832 263 811 z "},"˛":{"ha":465,"x_min":89,"x_max":376,"o":"m 356 -186 l 376 -229 q 232 -289 314 -289 q 129 -256 169 -289 q 89 -164 89 -222 q 204 7 89 -74 l 286 7 l 286 0 q 210 -67 243 -25 q 178 -144 178 -108 q 201 -199 178 -181 q 260 -217 225 -217 q 356 -186 304 -217 z "},"˜":{"ha":465,"x_min":15,"x_max":450,"o":"m 385 929 l 450 915 q 408 824 446 860 q 322 788 371 788 q 224 818 279 788 q 209 827 222 819 q 188 839 196 835 q 167 848 181 843 q 142 853 153 853 q 101 835 118 853 q 81 793 85 818 l 15 807 q 57 899 19 863 q 143 936 94 936 q 178 932 161 936 q 205 924 196 928 q 227 913 214 919 q 242 904 240 906 q 260 893 243 904 q 293 876 278 882 q 324 871 308 871 q 385 929 371 871 z "},"˝":{"ha":465,"x_min":10,"x_max":454,"o":"m 326 958 l 454 958 l 300 757 l 201 757 l 326 958 m 135 958 l 264 958 l 110 757 l 10 757 l 135 958 z "},"Ẁ":{"ha":1290,"x_min":7,"x_max":1283,"o":"m 1142 958 l 1283 958 l 1007 -1 l 875 -1 l 644 774 l 415 -1 l 283 -1 l 7 958 l 149 958 l 356 203 l 576 958 l 714 958 l 935 203 l 1142 958 m 649 1256 l 772 1054 l 671 1054 l 518 1256 l 649 1256 z "},"ẁ":{"ha":1057,"x_min":14,"x_max":1043,"o":"m 908 660 l 1043 660 l 825 0 l 703 0 l 529 493 l 354 0 l 232 0 l 14 660 l 149 660 l 301 161 l 475 661 l 582 661 l 756 161 l 908 660 m 504 958 l 628 757 l 526 757 l 374 958 l 504 958 z "},"Ẃ":{"ha":1290,"x_min":7,"x_max":1283,"o":"m 1142 958 l 1283 958 l 1007 -1 l 875 -1 l 644 774 l 415 -1 l 283 -1 l 7 958 l 149 958 l 356 203 l 576 958 l 714 958 l 935 203 l 1142 958 m 642 1256 l 772 1256 l 619 1054 l 518 1054 l 642 1256 z "},"ẃ":{"ha":1057,"x_min":14,"x_max":1043,"o":"m 908 660 l 1043 660 l 825 0 l 703 0 l 529 493 l 354 0 l 232 0 l 14 660 l 149 660 l 301 161 l 475 661 l 582 661 l 756 161 l 908 660 m 525 958 l 656 958 l 503 757 l 401 757 l 525 958 z "},"Ẅ":{"ha":1290,"x_min":7,"x_max":1283,"o":"m 1142 958 l 1283 958 l 1007 -1 l 875 -1 l 644 774 l 415 -1 l 283 -1 l 7 958 l 149 958 l 356 203 l 576 958 l 714 958 l 935 203 l 1142 958 m 825 1154 q 803 1101 825 1122 q 751 1081 782 1081 q 700 1101 721 1081 q 679 1154 679 1122 q 700 1208 679 1188 q 751 1229 721 1229 q 803 1208 782 1229 q 825 1154 825 1188 m 611 1154 q 590 1101 611 1122 q 539 1081 569 1081 q 487 1101 508 1081 q 465 1154 465 1122 q 487 1208 465 1188 q 539 1229 508 1229 q 590 1208 569 1229 q 611 1154 611 1188 z "},"ẅ":{"ha":1057,"x_min":14,"x_max":1043,"o":"m 908 660 l 1043 660 l 825 0 l 703 0 l 529 493 l 354 0 l 232 0 l 14 660 l 149 660 l 301 161 l 475 661 l 582 661 l 756 161 l 908 660 m 708 857 q 687 804 708 825 q 635 783 665 783 q 583 804 604 783 q 563 857 563 825 q 583 911 563 890 q 635 932 604 932 q 687 911 665 932 q 708 857 708 890 m 494 857 q 474 804 494 825 q 422 783 453 783 q 370 804 392 783 q 349 857 349 825 q 370 911 349 890 q 422 932 392 932 q 474 911 453 932 q 494 857 494 890 z "},"Ỳ":{"ha":799,"x_min":-1,"x_max":800,"o":"m 649 958 l 800 958 l 467 401 l 467 0 l 332 0 l 332 401 l -1 958 l 150 958 l 399 518 l 649 958 m 353 1256 l 476 1054 l 375 1054 l 222 1256 l 353 1256 z "},"ỳ":{"ha":665,"x_min":1,"x_max":668,"o":"m 531 661 l 668 660 l 350 -115 q 275 -233 317 -199 q 176 -268 233 -268 q 112 -262 143 -268 q 67 -250 81 -256 l 51 -244 l 78 -136 q 147 -151 114 -151 q 169 -150 163 -151 q 189 -142 176 -149 q 213 -119 201 -136 q 233 -74 224 -103 l 265 14 l 1 661 l 140 660 l 336 147 l 531 661 m 292 958 l 415 757 l 314 757 l 161 958 l 292 958 z "},"–":{"ha":642,"x_min":0,"x_max":642,"o":"m 642 432 l 642 328 l 0 328 l 0 432 l 642 432 z "},"—":{"ha":1181,"x_min":8,"x_max":1172,"o":"m 1172 432 l 1172 328 l 8 328 l 8 432 l 1172 432 z "},"‘":{"ha":433,"x_min":107,"x_max":336,"o":"m 231 958 l 336 958 l 243 661 l 107 661 l 231 958 z "},"’":{"ha":433,"x_min":97,"x_max":326,"o":"m 190 958 l 326 958 l 203 661 l 97 661 l 190 958 z "},"‚":{"ha":433,"x_min":97,"x_max":326,"o":"m 190 135 l 326 135 l 203 -161 l 97 -161 l 190 135 z "},"“":{"ha":679,"x_min":110,"x_max":579,"o":"m 478 958 l 579 958 l 486 661 l 354 661 l 478 958 m 232 958 l 335 958 l 242 661 l 110 661 l 232 958 z "},"”":{"ha":679,"x_min":99,"x_max":569,"o":"m 438 958 l 569 958 l 446 661 l 343 661 l 438 958 m 193 958 l 325 958 l 201 661 l 99 661 l 193 958 z "},"„":{"ha":679,"x_min":99,"x_max":569,"o":"m 438 135 l 569 135 l 446 -161 l 343 -161 l 438 135 m 193 135 l 325 135 l 201 -161 l 99 -161 l 193 135 z "},"†":{"ha":835,"x_min":93,"x_max":742,"o":"m 742 658 l 742 554 l 474 554 l 474 -244 l 361 -244 l 361 554 l 93 554 l 93 658 l 361 658 l 361 1008 l 474 1008 l 474 658 l 742 658 z "},"‡":{"ha":835,"x_min":93,"x_max":742,"o":"m 742 203 l 742 99 l 474 99 l 474 -244 l 361 -244 l 361 99 l 93 99 l 93 203 l 361 203 l 361 561 l 93 561 l 93 665 l 361 665 l 361 1008 l 474 1008 l 474 665 l 742 665 l 742 561 l 474 561 l 474 203 l 742 203 z "},"•":{"ha":751,"x_min":167,"x_max":585,"o":"m 523 654 q 554 623 523 654 q 585 507 585 592 q 523 360 585 422 q 376 297 461 297 q 229 360 292 297 q 167 507 167 422 q 229 654 167 592 q 376 717 292 717 q 523 654 461 717 z "},"…":{"ha":1311,"x_min":143,"x_max":1168,"o":"m 1142 134 q 1155 123 1142 134 q 1168 74 1168 111 q 1142 13 1168 36 q 1079 -11 1117 -11 q 1015 13 1040 -11 q 990 74 990 36 q 1015 134 990 111 q 1079 157 1040 157 q 1142 134 1117 157 m 719 134 q 732 123 719 134 q 744 74 744 111 q 719 13 744 36 q 656 -11 694 -11 q 592 13 617 -11 q 567 74 567 36 q 592 134 567 111 q 656 157 617 157 q 719 134 694 157 m 296 134 q 308 123 296 134 q 321 74 321 111 q 296 13 321 36 q 232 -11 271 -11 q 168 13 193 -11 q 143 74 143 36 q 168 134 143 111 q 232 157 193 157 q 296 134 271 157 z "},"‰":{"ha":1568,"x_min":43,"x_max":1525,"o":"m 1461 381 q 1493 349 1461 381 q 1525 214 1525 317 q 1461 47 1525 111 q 1299 -17 1397 -17 q 1136 47 1200 -17 q 1072 214 1072 111 q 1136 381 1072 317 q 1299 444 1200 444 q 1461 381 1397 444 m 975 381 q 1007 349 975 381 q 1039 214 1039 317 q 975 47 1039 111 q 813 -17 911 -17 q 650 47 714 -17 q 586 214 586 111 q 650 381 586 317 q 813 444 714 444 q 975 381 911 444 m 803 981 l 872 939 l 279 -32 l 210 10 l 803 981 m 496 735 q 432 567 496 632 q 269 503 368 503 q 107 567 171 503 q 43 735 43 632 q 107 901 43 836 q 269 965 171 965 q 432 901 368 965 q 496 735 496 836 m 1392 111 q 1410 131 1392 111 q 1428 215 1428 151 q 1392 319 1428 279 q 1299 360 1357 360 q 1205 319 1240 360 q 1169 215 1169 279 q 1205 111 1169 151 q 1299 71 1240 71 q 1392 111 1357 71 m 906 111 q 924 131 906 111 q 942 215 942 151 q 906 319 942 279 q 813 360 871 360 q 719 319 754 360 q 683 215 683 279 q 719 111 683 151 q 813 71 754 71 q 906 111 871 71 m 363 631 q 381 651 363 631 q 399 735 399 671 q 363 839 399 799 q 269 879 328 879 q 176 839 211 879 q 140 735 140 799 q 176 631 140 671 q 269 592 211 592 q 363 631 328 592 z "},"‹":{"ha":440,"x_min":76,"x_max":357,"o":"m 192 331 l 357 108 l 283 54 l 76 331 l 283 606 l 356 551 l 192 331 z "},"›":{"ha":440,"x_min":83,"x_max":364,"o":"m 158 606 l 364 331 l 158 54 l 85 110 l 249 331 l 83 553 l 158 606 z "},"⁄":{"ha":276,"x_min":-208,"x_max":485,"o":"m 414 1036 l 485 994 l -139 -36 l -208 7 l 414 1036 z "},"€":{"ha":814,"x_min":49,"x_max":764,"o":"m 708 200 l 764 111 l 758 104 q 750 92 754 97 q 737 78 746 88 q 719 60 728 68 q 696 42 710 53 q 667 24 682 32 q 633 8 653 17 q 594 -5 614 0 q 548 -13 574 -10 q 496 -17 522 -17 q 263 79 357 -17 q 142 346 169 175 l 49 346 l 49 436 l 132 438 q 131 486 131 464 l 131 533 l 49 533 l 49 624 l 143 624 q 263 874 167 775 q 499 972 357 972 q 743 878 635 972 l 697 774 q 501 864 626 864 q 359 804 418 864 q 282 624 300 744 l 628 624 l 628 533 l 269 533 l 269 486 l 271 436 l 628 436 l 628 346 l 282 346 q 355 165 296 229 q 503 100 414 100 q 704 196 615 100 q 708 200 707 199 z "},"™":{"ha":1181,"x_min":68,"x_max":1103,"o":"m 1060 958 l 1103 406 l 1013 406 l 982 840 l 979 840 l 836 406 l 765 406 l 624 840 l 619 840 l 590 406 l 500 406 l 543 958 l 665 958 l 800 543 l 803 543 l 936 958 l 1060 958 m 469 958 l 469 881 l 314 881 l 314 406 l 224 406 l 224 881 l 68 881 l 68 958 l 469 958 z "},"∏":{"ha":1153,"x_min":69,"x_max":1083,"o":"m 1083 404 l 1083 300 l 963 300 q 844 125 926 201 q 486 0 708 0 l 197 0 l 197 300 l 69 300 l 69 404 l 197 404 l 197 561 l 69 561 l 69 665 l 197 665 l 197 958 l 486 958 q 844 833 708 958 q 960 665 925 756 l 1083 665 l 1083 561 l 988 561 q 993 479 993 508 q 988 404 993 436 l 1083 404 m 856 479 q 847 561 856 524 l 332 561 l 332 404 l 849 404 q 856 479 856 442 m 332 117 l 486 117 q 742 206 647 117 q 814 300 786 250 l 332 300 l 332 117 m 742 754 q 486 843 647 843 l 332 843 l 332 665 l 810 665 q 742 754 781 717 z "},"−":{"ha":926,"x_min":100,"x_max":826,"o":"m 826 531 l 826 428 l 100 428 l 100 531 l 826 531 z "},"≠":{"ha":926,"x_min":100,"x_max":826,"o":"m 826 404 l 826 301 l 476 301 l 432 110 l 328 110 l 372 301 l 100 301 l 100 404 l 394 404 l 429 554 l 100 554 l 100 656 l 450 656 l 494 849 l 599 849 l 554 656 l 826 656 l 826 554 l 533 554 l 499 404 l 826 404 z "},"≤":{"ha":1367,"x_min":65,"x_max":1367,"o":"m 552 22 q 541 10 552 22 q 497 -1 529 -1 q 442 22 465 -1 q 419 76 419 44 q 442 131 419 108 q 497 154 465 154 q 552 131 529 154 q 575 76 575 108 q 552 22 575 44 m 434 181 q 423 170 434 181 q 379 158 411 158 q 324 181 347 158 q 301 236 301 204 q 324 291 301 268 q 379 314 347 314 q 434 291 411 314 q 457 236 457 268 q 434 181 457 204 m 316 341 q 305 330 316 341 q 261 318 293 318 q 206 341 229 318 q 183 396 183 364 q 206 451 183 428 q 261 474 229 474 q 316 451 293 474 q 339 396 339 428 q 316 341 339 364 m 442 1090 q 454 1101 442 1090 q 497 1113 465 1113 q 552 1090 529 1113 q 575 1035 575 1067 q 552 980 575 1003 q 497 957 529 957 q 442 980 465 957 q 419 1035 419 1003 q 442 1090 419 1067 m 324 930 q 336 941 324 930 q 379 953 347 953 q 434 930 411 953 q 457 875 457 907 q 434 820 457 843 q 379 797 411 797 q 324 820 347 797 q 301 875 301 843 q 324 930 301 907 m 206 770 q 218 782 206 770 q 261 793 229 793 q 316 770 293 793 q 339 715 339 747 q 316 660 339 683 q 261 638 293 638 q 206 660 229 638 q 183 715 183 683 q 206 770 183 747 m 1234 610 q 1245 622 1234 610 q 1289 633 1257 633 q 1344 610 1321 633 q 1367 556 1367 588 q 1344 501 1367 524 q 1289 478 1321 478 q 1234 501 1257 478 q 1211 556 1211 524 q 1234 610 1211 588 m 1005 610 q 1016 622 1005 610 q 1060 633 1028 633 q 1115 610 1092 633 q 1138 556 1138 588 q 1115 501 1138 524 q 1060 478 1092 478 q 1005 501 1028 478 q 982 556 982 524 q 1005 610 982 588 m 317 610 q 329 622 317 610 q 372 633 340 633 q 427 610 404 633 q 450 556 450 588 q 427 501 450 524 q 372 478 404 478 q 317 501 340 478 q 294 556 294 524 q 317 610 294 588 m 88 610 q 100 622 88 610 q 143 633 111 633 q 198 610 175 633 q 221 556 221 588 q 198 501 221 524 q 143 478 175 478 q 88 501 111 478 q 65 556 65 524 q 88 610 65 588 m 547 610 q 558 622 547 610 q 601 633 569 633 q 656 610 633 633 q 679 556 679 588 q 656 501 679 524 q 601 478 633 478 q 547 501 569 478 q 524 556 524 524 q 547 610 524 588 m 776 610 q 787 622 776 610 q 831 633 799 633 q 885 610 863 633 q 908 556 908 588 q 885 501 908 524 q 831 478 863 478 q 776 501 799 478 q 753 556 753 524 q 776 610 753 588 z "},"≥":{"ha":1367,"x_min":0,"x_max":1301,"o":"m 481 610 q 493 622 481 610 q 536 633 504 633 q 591 610 568 633 q 614 556 614 588 q 591 501 614 524 q 536 478 568 478 q 481 501 504 478 q 458 556 458 524 q 481 610 458 588 m 710 610 q 722 622 710 610 q 765 633 733 633 q 820 610 797 633 q 843 556 843 588 q 820 501 843 524 q 765 478 797 478 q 710 501 733 478 q 688 556 688 524 q 710 610 688 588 m 1169 610 q 1180 622 1169 610 q 1224 633 1192 633 q 1278 610 1256 633 q 1301 556 1301 588 q 1278 501 1301 524 q 1224 478 1256 478 q 1169 501 1192 478 q 1146 556 1146 524 q 1169 610 1146 588 m 940 610 q 951 622 940 610 q 994 633 963 633 q 1049 610 1026 633 q 1072 556 1072 588 q 1049 501 1072 524 q 994 478 1026 478 q 940 501 963 478 q 917 556 917 524 q 940 610 917 588 m 252 610 q 264 622 252 610 q 307 633 275 633 q 362 610 339 633 q 385 556 385 588 q 362 501 385 524 q 307 478 339 478 q 252 501 275 478 q 229 556 229 524 q 252 610 229 588 m 23 610 q 34 622 23 610 q 78 633 46 633 q 133 610 110 633 q 156 556 156 588 q 133 501 156 524 q 78 478 110 478 q 23 501 46 478 q 0 556 0 524 q 23 610 0 588 m 1051 770 q 1062 782 1051 770 q 1106 793 1074 793 q 1160 770 1138 793 q 1183 715 1183 747 q 1160 660 1183 683 q 1106 638 1138 638 q 1051 660 1074 638 q 1028 715 1028 683 q 1051 770 1028 747 m 933 930 q 944 941 933 930 q 988 953 956 953 q 1042 930 1019 953 q 1065 875 1065 907 q 1042 820 1065 843 q 988 797 1019 797 q 933 820 956 797 q 910 875 910 843 q 933 930 910 907 m 815 1090 q 826 1101 815 1090 q 869 1113 838 1113 q 924 1090 901 1113 q 947 1035 947 1067 q 924 980 947 1003 q 869 957 901 957 q 815 980 838 957 q 792 1035 792 1003 q 815 1090 792 1067 m 1160 341 q 1149 330 1160 341 q 1106 318 1138 318 q 1051 341 1074 318 q 1028 396 1028 364 q 1051 451 1028 428 q 1106 474 1074 474 q 1160 451 1138 474 q 1183 396 1183 428 q 1160 341 1183 364 m 1042 181 q 1031 170 1042 181 q 988 158 1019 158 q 933 181 956 158 q 910 236 910 204 q 933 291 910 268 q 988 314 956 314 q 1042 291 1019 314 q 1065 236 1065 268 q 1042 181 1065 204 m 924 22 q 913 10 924 22 q 869 -1 901 -1 q 815 22 838 -1 q 792 76 792 44 q 815 131 792 108 q 869 154 838 154 q 924 131 901 154 q 947 76 947 108 q 924 22 947 44 z "},"":{"ha":418,"x_min":114,"x_max":300,"o":"m 164 -69 l 300 -69 l 213 -264 l 114 -264 l 164 -69 z "},"":{"ha":1999,"x_min":31,"x_max":1972,"o":"m 874 -86 l 864 -86 q 899 -24 899 -57 q 858 33 899 25 q 865 -39 865 -8 q 821 -119 865 -92 q 721 -147 776 -147 q 656 -127 685 -147 q 628 -72 628 -107 q 649 -27 628 -40 q 692 -14 671 -14 q 710 -15 704 -14 q 772 40 729 22 l 772 44 q 768 76 768 54 q 692 19 740 19 q 647 48 665 19 q 629 118 629 76 q 654 210 629 147 q 679 293 679 274 q 667 325 679 325 q 637 308 651 325 q 621 283 622 292 q 574 210 621 235 q 413 13 574 13 q 333 35 365 13 q 301 103 301 57 q 318 156 301 132 q 361 179 335 179 q 396 139 396 179 q 381 87 396 110 q 339 64 365 64 q 327 67 335 64 q 317 71 319 71 q 335 42 321 54 q 363 31 349 31 q 403 45 385 31 q 433 91 421 60 q 453 145 446 122 q 469 210 460 168 q 421 253 439 222 q 401 249 408 249 q 324 329 324 249 q 368 441 324 392 q 475 490 413 490 q 563 473 525 490 q 613 456 601 456 q 635 458 621 456 l 635 453 q 507 365 557 435 q 485 408 504 392 q 438 424 465 424 q 366 390 397 424 q 335 314 335 356 q 397 256 335 256 q 417 260 408 256 q 410 299 410 274 q 424 346 410 326 q 454 365 439 365 q 478 338 478 365 q 463 293 478 315 q 428 258 449 271 q 471 219 439 233 q 536 365 494 314 q 580 406 551 383 q 633 431 608 428 l 633 424 q 568 272 568 393 q 571 219 568 258 q 615 283 615 243 q 599 336 615 317 l 599 338 q 619 296 617 329 q 688 340 643 340 q 736 310 719 340 q 753 238 753 281 q 728 158 753 222 q 704 65 704 94 q 717 42 704 42 q 747 63 733 42 q 772 121 761 83 q 790 193 782 158 q 806 273 797 228 q 819 338 815 318 q 856 326 842 326 q 903 349 871 326 q 885 269 900 332 q 863 160 871 207 q 854 79 854 113 l 854 69 l 856 50 q 907 -19 907 39 q 874 -86 907 -58 m 1935 125 l 1778 94 l 1789 39 l 1692 117 q 1603 -19 1657 38 q 1660 -29 1626 -29 q 1761 28 1733 -29 l 1764 28 q 1728 -24 1758 -4 q 1665 -43 1699 -43 q 1592 -29 1631 -43 q 1435 -111 1513 -111 q 1354 21 1354 -111 q 1346 19 1353 19 q 1272 59 1303 19 q 1240 171 1240 99 q 1297 280 1240 219 q 1417 340 1354 340 q 1456 323 1440 340 q 1472 268 1472 306 q 1427 186 1472 221 q 1332 146 1382 151 q 1318 54 1318 76 q 1346 31 1318 31 q 1354 32 1351 31 l 1354 33 q 1381 122 1354 76 q 1447 167 1408 167 q 1465 139 1465 167 q 1433 65 1465 104 q 1364 22 1400 26 q 1442 -99 1364 -99 q 1578 -24 1503 -99 q 1490 110 1490 18 q 1510 175 1490 144 q 1564 213 1531 206 l 1564 208 q 1515 171 1532 200 q 1499 106 1499 142 q 1588 -14 1499 25 q 1671 128 1649 54 l 1546 165 l 1600 188 l 1528 336 l 1586 318 l 1574 406 l 1631 343 l 1664 392 l 1697 283 l 1744 432 l 1768 393 l 1854 444 l 1854 346 l 1907 346 l 1793 233 l 1906 265 l 1888 207 l 1972 199 l 1890 160 l 1935 125 m 1107 -6 l 1107 -11 q 1086 -18 1096 -11 q 1076 -36 1076 -25 q 1085 -57 1076 -49 q 1107 -65 1094 -65 q 1176 -24 1147 -65 q 1206 58 1206 18 q 1190 107 1206 82 q 1093 19 1149 19 q 1051 78 1051 19 q 1072 138 1051 115 q 1113 164 1092 160 q 1128 315 1128 261 q 1115 326 1128 326 q 1098 318 1108 326 q 1078 289 1088 310 q 1068 240 1068 268 q 1036 49 1068 211 q 999 -132 1004 -114 q 963 -121 976 -121 q 917 -143 950 -121 q 940 -18 919 -128 q 978 192 961 92 q 996 308 996 292 q 978 360 996 340 q 941 391 961 379 q 903 444 921 403 q 886 554 886 485 q 912 674 886 592 q 938 797 938 757 q 928 821 938 821 q 895 797 915 821 q 861 738 875 774 q 849 667 858 719 q 830 566 839 615 q 819 513 821 517 q 783 525 794 525 q 740 511 758 525 q 756 596 743 525 q 777 725 768 667 q 786 800 786 783 q 776 819 786 819 q 735 761 758 819 l 724 761 q 737 797 731 783 q 758 822 743 810 q 794 833 774 833 q 860 771 850 833 q 870 787 863 775 q 883 805 878 799 q 896 819 888 811 q 914 831 904 828 q 935 835 924 835 q 985 797 967 835 q 1004 708 1004 758 q 976 571 1004 653 q 949 450 949 489 q 965 389 949 410 q 1001 363 981 368 q 1040 340 1021 358 q 1064 288 1058 321 q 1128 340 1096 340 q 1188 292 1165 340 q 1211 203 1211 244 q 1193 118 1211 160 q 1214 54 1214 88 q 1186 -35 1214 6 q 1111 -75 1158 -75 q 1081 -64 1093 -75 q 1068 -36 1068 -53 q 1077 -15 1068 -24 q 1099 -6 1086 -6 l 1107 -6 m 238 357 l 232 357 l 236 361 q 265 373 249 361 q 282 401 282 385 l 282 408 q 228 399 257 399 q 166 410 199 399 q 133 446 133 422 q 153 471 133 463 q 190 479 172 479 q 245 463 214 479 q 289 426 276 447 q 338 490 338 447 q 326 529 338 517 q 249 507 289 507 q 141 553 183 507 q 99 676 99 599 q 113 736 99 697 q 76 817 76 763 q 109 913 76 868 q 188 958 142 958 q 198 958 192 958 q 206 957 204 957 l 206 950 l 193 950 q 117 908 149 950 q 85 818 85 867 q 118 749 85 772 q 228 917 156 833 q 347 1000 300 1000 q 390 926 390 1000 q 341 812 390 867 q 228 733 292 757 l 228 732 q 226 729 226 731 q 196 568 196 604 q 208 534 196 547 q 231 518 221 521 q 247 515 240 515 q 315 540 281 515 q 268 554 296 554 q 229 546 238 554 l 229 550 q 264 563 242 563 q 322 546 299 563 q 381 672 381 597 q 342 733 381 733 q 281 701 304 733 q 257 631 257 668 q 282 589 257 589 q 313 613 301 589 q 325 661 325 638 q 322 678 325 667 l 331 678 q 333 661 333 672 q 318 608 333 635 q 282 581 303 581 q 249 633 249 581 q 274 707 249 671 q 338 743 300 743 q 384 717 367 743 q 401 656 401 692 q 335 535 401 582 q 351 488 351 518 q 292 411 351 436 q 293 406 293 410 q 275 372 293 386 q 238 357 257 357 m 1635 635 l 1647 635 q 1563 515 1615 515 q 1519 533 1539 515 q 1493 583 1499 550 q 1456 528 1472 542 q 1421 514 1440 514 q 1363 561 1383 514 q 1343 654 1343 608 q 1395 769 1343 703 q 1489 835 1447 835 q 1522 808 1513 835 q 1535 878 1528 842 q 1548 935 1543 914 q 1553 960 1553 957 q 1589 949 1575 949 q 1638 971 1603 949 q 1561 549 1561 567 q 1571 531 1561 531 q 1608 566 1589 531 q 1635 635 1626 601 m 1318 589 l 1328 589 q 1265 515 1310 515 q 1199 582 1213 515 q 1162 528 1178 542 q 1128 514 1146 514 q 1069 561 1090 514 q 1049 654 1049 608 q 1101 769 1049 703 q 1194 835 1153 835 q 1231 803 1221 835 l 1238 831 q 1275 821 1264 821 q 1321 842 1286 821 q 1268 549 1268 571 q 1276 531 1268 531 q 1318 589 1296 531 m 1935 589 l 1946 589 q 1882 515 1925 515 q 1817 582 1828 515 q 1779 527 1794 540 q 1746 514 1764 514 q 1687 561 1708 514 q 1665 654 1665 608 q 1718 769 1665 703 q 1813 835 1771 835 q 1849 803 1836 835 l 1856 831 q 1892 821 1882 821 q 1938 842 1906 821 q 1921 757 1935 826 q 1896 626 1907 688 q 1885 549 1885 565 q 1894 531 1885 531 q 1935 589 1913 531 m 694 589 l 704 589 q 640 515 686 515 q 599 532 618 515 q 575 582 581 549 q 539 527 554 540 q 503 514 524 514 q 447 561 467 514 q 426 654 426 608 q 479 769 426 703 q 574 835 532 835 q 607 803 594 835 l 614 831 q 650 821 640 821 q 667 824 660 821 q 685 834 675 826 q 697 842 696 842 q 680 756 694 825 q 654 626 665 688 q 643 549 643 565 q 654 531 643 531 q 694 589 672 531 m 467 -103 l 461 -103 q 410 -90 436 -103 q 383 -50 383 -76 q 419 -21 383 -21 q 466 -38 444 -21 q 488 -78 488 -56 q 487 -83 488 -79 q 486 -89 486 -87 q 544 -57 519 -81 q 569 4 569 -33 q 563 44 569 24 l 567 44 q 575 4 575 32 q 547 -64 575 -35 q 481 -100 519 -93 q 401 -139 460 -139 q 330 -122 364 -139 q 296 -71 296 -104 q 306 -43 296 -54 q 332 -32 315 -32 q 349 -33 342 -32 q 149 44 260 44 q 31 33 113 44 q 89 53 56 43 q 132 67 122 63 q 219 128 181 85 q 258 210 258 171 q 227 282 258 256 q 149 308 196 308 q 50 251 50 308 q 69 224 50 235 q 110 214 88 214 q 182 251 136 214 l 182 242 q 110 199 151 199 q 60 213 82 199 q 39 251 39 228 q 143 318 39 318 q 238 287 204 318 q 271 204 271 256 q 236 126 271 165 q 172 69 201 88 l 192 64 q 289 28 250 51 q 363 -43 328 6 l 361 -43 l 361 -44 q 349 -42 357 -44 q 338 -40 342 -40 q 303 -71 303 -40 q 337 -116 303 -100 q 401 -132 371 -132 q 467 -103 444 -132 m 1515 774 q 1494 824 1513 824 q 1483 819 1488 824 q 1474 810 1478 815 q 1468 795 1471 804 q 1464 780 1465 786 q 1460 764 1463 774 q 1458 753 1458 754 q 1424 540 1424 600 q 1433 529 1424 529 q 1475 576 1460 529 q 1515 774 1490 624 m 703 -33 l 686 -33 q 640 -76 640 -33 q 664 -122 640 -106 q 718 -139 688 -139 q 774 -120 747 -139 q 801 -71 801 -101 q 797 -40 801 -57 q 784 0 792 -22 q 774 29 776 22 q 718 -18 733 15 q 749 -40 738 -25 q 760 -68 760 -56 q 752 -85 760 -76 q 732 -94 744 -94 q 710 -81 719 -94 q 700 -54 700 -68 q 703 -33 700 -40 m 1814 628 q 1838 763 1817 668 q 1818 824 1838 824 q 1782 753 1792 824 q 1749 540 1749 569 q 1757 529 1749 529 q 1814 628 1790 529 m 1197 628 q 1221 763 1199 657 q 1201 824 1221 824 q 1188 819 1193 824 q 1178 803 1182 814 q 1172 786 1174 793 q 1167 767 1169 779 q 1165 753 1165 754 q 1132 540 1132 569 q 1139 529 1132 529 q 1197 628 1174 529 m 574 628 q 597 763 576 668 q 578 824 597 824 q 555 799 565 824 q 542 753 544 774 q 508 540 508 606 q 517 529 508 529 q 574 628 549 529 m 294 919 q 289 906 294 918 q 276 873 283 893 q 261 831 269 853 q 244 785 253 808 q 231 746 236 761 q 326 832 286 771 q 367 958 367 893 q 347 986 367 986 q 324 972 335 986 q 294 919 313 958 m 1642 539 l 1644 539 q 1608 470 1638 496 q 1539 439 1578 444 q 1510 388 1539 410 q 1442 365 1481 365 q 1381 381 1408 365 q 1354 433 1354 397 q 1372 474 1354 454 q 1413 494 1389 493 l 1413 490 q 1380 473 1394 488 q 1365 442 1365 458 q 1444 385 1365 385 q 1532 439 1529 385 q 1524 438 1529 438 q 1481 448 1499 438 q 1464 476 1464 458 q 1472 491 1464 485 q 1489 497 1481 497 q 1519 484 1506 497 q 1539 453 1533 471 q 1603 482 1574 457 q 1642 539 1633 507 m 1300 494 l 1311 489 q 1265 424 1303 451 q 1181 397 1226 397 l 1169 397 q 1117 379 1151 379 q 1008 438 1039 379 l 1008 439 q 1114 385 1057 385 q 1160 399 1144 385 q 1065 434 1111 406 q 1019 513 1019 463 q 1031 550 1019 538 l 1036 546 q 1031 515 1031 526 q 1075 444 1031 469 q 1172 414 1119 419 q 1176 433 1176 422 q 1156 476 1176 458 q 1107 493 1135 493 q 1064 482 1082 493 l 1060 483 q 1106 500 1076 500 q 1159 481 1135 500 q 1183 435 1183 463 q 1181 414 1183 425 l 1185 414 q 1258 434 1225 414 q 1300 494 1292 454 m 1333 157 q 1397 214 1372 163 q 1422 306 1422 265 q 1411 329 1422 329 q 1333 157 1367 329 m 1363 36 l 1363 33 q 1422 72 1389 33 q 1454 143 1454 110 q 1444 158 1454 158 q 1388 116 1414 158 q 1363 36 1363 74 m 278 422 q 239 456 265 442 q 190 471 213 471 q 147 446 147 471 q 221 413 147 413 q 278 422 250 413 m 875 354 l 869 356 l 869 358 q 849 399 865 386 q 818 413 833 413 q 775 397 808 413 q 708 381 742 381 q 672 408 672 381 q 688 435 672 426 q 719 443 703 443 l 783 436 q 818 461 818 436 q 806 485 818 476 q 776 494 793 494 q 746 475 746 494 q 763 460 746 460 q 786 467 775 460 l 788 458 q 764 453 776 453 q 738 474 738 453 q 751 493 738 485 q 778 501 765 501 q 813 490 799 501 q 826 463 826 479 q 783 431 826 431 l 719 438 q 678 408 678 438 q 707 389 678 389 q 761 406 725 389 q 810 424 797 424 q 857 404 839 424 q 875 354 875 385 m 1111 151 q 1074 125 1089 150 q 1058 72 1058 100 q 1083 33 1058 33 q 1093 42 1089 33 q 1100 66 1097 50 q 1105 94 1103 82 q 1109 126 1107 106 q 1111 151 1111 146 m 478 -75 q 460 -42 478 -56 q 424 -29 443 -29 q 394 -57 394 -29 q 415 -84 394 -75 q 457 -93 436 -93 q 478 -75 478 -93 m 425 265 q 471 336 471 297 q 454 357 471 357 q 428 338 436 357 q 419 297 419 318 q 425 265 419 276 m 1526 453 l 1531 453 q 1493 489 1522 489 q 1476 475 1476 489 q 1526 453 1476 453 m 714 -36 q 713 -50 713 -42 q 729 -83 713 -83 q 746 -71 746 -83 q 714 -36 746 -50 z "},"ﬀ":{"ha":761,"x_min":22,"x_max":814,"o":"m 814 958 l 806 860 q 731 872 768 872 q 650 835 671 872 q 629 732 629 799 l 629 658 l 786 658 l 786 551 l 629 551 l 629 0 l 497 0 l 497 551 l 249 551 l 249 0 l 117 0 l 117 551 l 22 551 l 22 658 l 117 658 l 117 725 q 161 901 117 846 q 319 974 219 974 q 381 970 353 974 q 422 963 410 967 l 433 958 l 425 860 q 350 872 388 872 q 269 835 290 872 q 249 732 249 799 l 249 658 l 497 658 l 497 725 q 542 901 497 846 q 700 974 600 974 q 762 970 733 974 q 803 963 790 967 l 814 958 z "},"ﬁ":{"ha":721,"x_min":22,"x_max":644,"o":"m 620 935 q 632 924 620 935 q 644 876 644 913 q 620 817 644 840 q 557 794 596 794 q 495 817 519 794 q 471 876 471 840 q 495 935 471 913 q 557 958 519 958 q 620 935 596 958 m 624 660 l 624 0 l 492 0 l 492 660 l 624 660 m 429 958 l 419 860 q 350 872 388 872 q 299 860 319 872 q 269 835 279 849 q 255 792 260 821 q 249 748 250 763 q 249 699 249 733 l 249 658 l 406 658 l 406 551 l 249 551 l 249 0 l 117 0 l 117 551 l 22 551 l 22 658 l 117 658 l 117 725 q 161 901 117 851 q 325 974 225 974 q 376 970 350 974 q 415 963 401 967 l 429 958 z "},"ﬂ":{"ha":724,"x_min":22,"x_max":625,"o":"m 625 958 l 625 0 l 492 0 l 492 958 l 625 958 m 429 958 l 419 860 q 350 872 392 872 q 269 835 290 872 q 249 732 249 799 l 249 658 l 406 658 l 406 551 l 249 551 l 249 0 l 117 0 l 117 551 l 22 551 l 22 658 l 117 658 l 117 731 q 158 897 117 835 q 325 974 214 974 q 380 970 354 974 q 417 963 406 967 l 429 958 z "},"ﬃ":{"ha":1089,"x_min":22,"x_max":1011,"o":"m 814 958 l 806 860 q 731 872 768 872 q 650 835 671 872 q 629 732 629 799 l 629 658 l 786 658 l 786 551 l 629 551 l 629 0 l 497 0 l 497 551 l 249 551 l 249 0 l 117 0 l 117 551 l 22 551 l 22 658 l 117 658 l 117 725 q 161 901 117 846 q 319 974 219 974 q 381 970 353 974 q 422 963 410 967 l 433 958 l 425 860 q 350 872 388 872 q 269 835 290 872 q 249 732 249 799 l 249 658 l 497 658 l 497 725 q 542 901 497 846 q 700 974 600 974 q 762 970 733 974 q 803 963 790 967 l 814 958 m 992 660 l 992 0 l 858 0 l 858 660 l 992 660 m 987 935 q 999 924 987 935 q 1011 876 1011 913 q 987 817 1011 840 q 925 794 963 794 q 862 817 886 794 q 838 876 838 840 q 862 935 838 913 q 925 958 886 958 q 987 935 963 958 z "},"ﬄ":{"ha":1090,"x_min":22,"x_max":992,"o":"m 814 958 l 806 860 q 731 872 768 872 q 650 835 671 872 q 629 732 629 799 l 629 658 l 786 658 l 786 551 l 629 551 l 629 0 l 497 0 l 497 551 l 249 551 l 249 0 l 117 0 l 117 551 l 22 551 l 22 658 l 117 658 l 117 725 q 161 901 117 846 q 319 974 219 974 q 381 970 353 974 q 422 963 410 967 l 433 958 l 425 860 q 350 872 388 872 q 269 835 290 872 q 249 732 249 799 l 249 658 l 497 658 l 497 725 q 542 901 497 846 q 700 974 600 974 q 762 970 733 974 q 803 963 790 967 l 814 958 m 992 958 l 992 0 l 860 0 l 860 958 l 992 958 z "}}}
